<?xml version="1.0" encoding="utf-8"?>
<!-- Generator: Adobe Illustrator 24.1.0, SVG Export Plug-In . SVG Version: 6.00 Build 0)  -->
<svg version="1.1" id="レイヤー_1" xmlns="http://www.w3.org/2000/svg" xmlns:xlink="http://www.w3.org/1999/xlink" x="0px"
	 y="0px" viewBox="0 0 25.4 25.4" style="enable-background:new 0 0 25.4 25.4;" xml:space="preserve">
<style type="text/css">
	.st0{fill:none;stroke:#000000;stroke-miterlimit:10;}
</style>
<circle class="st0" cx="12.4" cy="12.8" r="10"/>
<g>
	<path d="M14.2,9c0-1.1-0.7-2-2-2c-0.9,0-1.7,0.4-2.4,1.2l-1-0.9c0.9-1,2-1.7,3.5-1.7c2.1,0,3.5,1.3,3.5,3.3c0,2.7-3.3,3.8-3,6.7
		h-1.5C10.9,12.4,14.2,11.3,14.2,9z M10.9,18.7c0-0.8,0.6-1.3,1.2-1.3c0.7,0,1.2,0.6,1.2,1.3c0,0.8-0.6,1.3-1.2,1.3
		C11.5,20,10.9,19.5,10.9,18.7z"/>
</g>
</svg>
