<?xml version="1.0" encoding="utf-8"?>
<!-- Generator: Adobe Illustrator 24.1.0, SVG Export Plug-In . SVG Version: 6.00 Build 0)  -->
<svg version="1.1" id="レイヤー_1" xmlns="http://www.w3.org/2000/svg" xmlns:xlink="http://www.w3.org/1999/xlink" x="0px"
	 y="0px" viewBox="0 0 390.2 241.1" style="enable-background:new 0 0 390.2 241.1;" xml:space="preserve">
<style type="text/css">
	.st0{fill:#EFF9F8;}
	.st1{opacity:0;clip-path:url(#SVGID_2_);fill-rule:evenodd;clip-rule:evenodd;fill:#FFFFFF;}
	.st2{fill:#95CE84;}
	.st3{fill:#82D86C;}
	.st4{fill:#F9C2C6;}
	.st5{fill:#6CC4C4;}
	.st6{fill:none;}
	.st7{fill:#06B2C4;}
	.st8{fill:#F7C4C8;}
	.st9{fill:#FFFFFF;}
	.st10{fill:#E2DD1A;}
	.st11{opacity:0.51;}
	.st12{font-family:'MoriMizuumiMarumincho-R-83pv-RKSJ-H';}
	.st13{font-size:42px;}
</style>
<g>
	<path class="st0" d="M398.6,31.3c-15.9-16.4-19.4,2.2-42.2,2.2c-22.8,0-22.8-1.6-45.6-1.6c-22.8,0-22.8-4.9-45.6-4.9
		c-22.8,0-22.8,0.3-45.6,0.3c-22.8,0-22.8,0.7-45.6,0.7c-22.8,0-22.8,0.2-45.6,0.2c-22.8,0-22.8,3.2-45.6,3.2
		c-22.8,0-22.8,0.7-45.6,0.7C14.4,32.1,14.4,30-8.4,30S-34,15.6-49.9,32c-16.4,16.9-5.9,19.5-5.9,43s-17.1,32.5-0.7,49.4
		c15.9,16.4,25.3-5.9,48.1-5.9c22.8,0,22.8,3.9,45.6,3.9c22.8,0,22.8-3.9,45.6-3.9c22.8,0,22.8,6.4,45.6,6.4
		c22.8,0,22.8-0.8,45.6-0.8c22.8,0,22.8,1.7,45.6,1.7c22.8,0,22.8-6.7,45.6-6.7c22.8,0,22.8-0.3,45.6-0.3c22.8,0,22.8,6.6,45.6,6.6
		c22.8,0,30.1,13.3,46-3c16.4-16.9-1.6-23.7,2.5-46.9C408.9,52.6,414.9,48.2,398.6,31.3z"/>
</g>
<rect x="-351.4" y="-235.8" class="st6" width="136.4" height="66.4"/>
<text transform="matrix(1 0 0 1.01 -351.4304 -179.8806)" class="st12" style="fill:#2E3192; font-size:63.6px;">戸倉</text>
<rect x="-331.1" y="-160.6" class="st6" width="229.9" height="108.3"/>
<text transform="matrix(1 0 0 1.01 -331.1306 -123.6873)"><tspan x="0" y="0" class="st12 st13" style="fill:#2E3192;">里海 里山</tspan><tspan x="0" y="53.5" class="st12 st13" style="fill:#2E3192;">カレンダー</tspan></text>
<rect x="-247" y="-176.9" class="st6" width="42.8" height="56"/>
<text transform="matrix(1 0 0 1 -258.9562 -134.6433)" style="fill:#2E3192; font-family:'KAWAIITEGAKIMOJI'; font-size:48px; letter-spacing:-12;">・</text>
<g>
	<defs>
		<rect id="SVGID_1_" x="-339.5" y="-97.1" width="101.5" height="97.5"/>
	</defs>
	<clipPath id="SVGID_2_">
		<use xlink:href="#SVGID_1_"  style="overflow:visible;"/>
	</clipPath>
	<rect x="-339.5" y="-97.1" class="st1" width="101.5" height="97.5"/>
</g>
<path class="st2" d="M61.1,182.4c0,0,50.5-124.2,115.5-124.4c82-0.3,126.5,125.5,126.5,125.5"/>
<path class="st3" d="M212.6,123.2c0,0,51.8-123.7,116.8-123.2c82,0.5,125.2,126.8,125.2,126.8"/>
<path class="st4" d="M-28.6-168.9c-2.6-3.9-2.3-14.5-1.7-28.1h7.6l-0.1,1.4c-0.5,8-1,14.9-0.4,21c0,0.5,0.5,0.9,1,0.9
	c0.1,0,0.2,0,0.3-0.1c6.3-2.4,9.8-5.2,14.2-9.4c0.8-0.8,1.7-1.2,2.5-1.2c0.6,0,1.1,0.2,1.4,0.7c0.4,0.8,0.1,2.1-0.7,3.5
	c-4,6.6-9,11-15.5,13.5c-1.4,0.6-2.6,0.8-3.7,0.8C-25.6-165.8-27.2-166.8-28.6-168.9z"/>
<g>
	<path class="st5" d="M404.6,103.3c-15.9-16.4-19.4,2.2-42.2,2.2c-22.8,0-22.8-1.6-45.6-1.6c-22.8,0-22.8-4.9-45.6-4.9
		c-22.8,0-22.8,0.3-45.6,0.3c-22.8,0-22.8,0.7-45.6,0.7c-22.8,0-22.8,0.2-45.6,0.2c-22.8,0-22.8,3.2-45.6,3.2
		c-22.8,0-22.8,0.7-45.6,0.7c-22.8,0-22.8-2.1-45.6-2.1c-22.8,0-25.6-14.4-41.5,1.9c-16.4,16.9-5.9,19.5-5.9,43s-17.1,32.5-0.7,49.4
		c15.9,16.4,25.3-5.9,48.1-5.9c22.8,0,22.8,3.9,45.6,3.9c22.8,0,22.8-3.9,45.6-3.9c22.8,0,22.8,6.4,45.6,6.4
		c22.8,0,22.8-0.8,45.6-0.8c22.8,0,22.8,1.7,45.6,1.7c22.8,0,22.8-6.7,45.6-6.7c22.8,0,22.8-0.3,45.6-0.3c22.8,0,22.8,6.6,45.6,6.6
		c22.8,0,30.1,13.3,46-3c16.4-16.9-1.6-23.7,2.5-46.9C414.9,124.6,420.9,120.2,404.6,103.3z"/>
</g>
<rect class="st6" width="390" height="241"/>
<g>
	<path class="st7" d="M426.9,259.1c-13.2,13.1-19.5,3.4-38.2,3.4c-18.6,0-18.6-1.6-37.2-1.6c-18.6,0-18.6-5.7-37.2-5.7
		c-18.6,0-18.6,3.9-37.3,3.9c-18.6,0-18.6-2.1-37.2-2.1c-18.6,0-18.6-2.3-37.2-2.3c-18.6,0-18.6,8.1-37.2,8.1
		c-18.6,0-18.6-2.8-37.2-2.8c-18.6,0-18.6-5.3-37.3-5.3c-18.6,0-18.6,3.1-37.3,3.1c-18.6,0-18.6-0.3-37.3-0.3s-25.2,14.9-38.4,1.8
		c-13.1-13,0.4-19.6,0.4-38.1c0-18.5,4.2-18.5,4.2-37c0-18.5-17.4-24.8-4.3-37.9c13.2-13.1,19.5-2.2,38.1-2.2
		c18.6,0,18.6,5.8,37.2,5.8c18.6,0,18.6-1.4,37.2-1.4c18.6,0,18.6-0.6,37.3-0.6c18.6,0,18.6-1,37.2-1c18.6,0,18.6-4.4,37.2-4.4
		c18.6,0,18.6,9.1,37.2,9.1c18.6,0,18.6,0.1,37.2,0.1c18.6,0,18.6-4,37.3-4c18.6,0,18.6-3.4,37.3-3.4c18.6,0,18.6,2.4,37.3,2.4
		c18.6,0,25.8-14.5,39-1.3c13.1,13,0.1,20.3,0.1,38.8c0,18.5-6.2,19-2.1,37.1C430.2,241,440,246,426.9,259.1z"/>
</g>
<g>
	<path class="st8" d="M93.5,175c-0.4,0.5-0.8,0.9-1.2,1.3c0.5,14.7-0.2,24.1-5.6,29.1c-2.9,2.6-7.5,3.3-13.9,1
		c-3.5-1.3-1.8-4.2,0.4-3.8s5.5,0.2,6.9-4.9c1.6-5.8,1.8-13.9,1.3-20.2h-8.9c-4.2,13.2-10,21.2-17,27.6c-5.5,4.9-9,0.6-5.5-3.9
		c5.5-7.1,9-13.8,11.2-23.7H49.7v-9.1h13c0.5-3.4,0.8-7.1,1.1-11.2l12.9,1.2c-0.6,3.6-1.2,6.9-1.9,10h8.5c0.2-0.4,0.4-0.7,0.7-1
		c2.6-2.8,6.5-2.8,9.1,0.2C95.1,169.8,95.1,172.7,93.5,175z"/>
	<path class="st8" d="M121.2,201.7c-4-6.1-3.6-22.4-2.7-43.2h11.7l-0.2,2.2c-0.8,12.3-1.6,23-0.7,32.4c0.1,0.8,0.8,1.4,1.5,1.4
		c0.2,0,0.4-0.1,0.5-0.2c9.7-3.8,15.2-8,21.9-14.5c1.2-1.2,2.6-1.8,3.9-1.8c0.9,0,1.7,0.4,2.1,1.1c0.6,1.2,0.2,3.2-1.1,5.5
		c-6.1,10.2-13.9,16.9-23.8,20.8c-2.2,0.9-4,1.3-5.6,1.3C125.8,206.5,123.4,204.9,121.2,201.7z"/>
	<path class="st8" d="M201.6,170.8h-15.2v-9H198c0.1-0.2,0.2-0.2,0.3-0.4c2.4-2.7,6-2.7,8.5,0.2c1.8,2,1.8,4.7,0.3,6.8
		C205.7,170.4,203.7,170.8,201.6,170.8z M228.9,185.7c-10.4,8.1-19.4,12.7-33.7,18.3l-4-10.3c12-4.2,21.6-8.1,33.1-15.2
		C231.1,174.4,235.4,180.6,228.9,185.7z"/>
	<path class="st8" d="M300.5,164.4c1.9,2.2,2,5.1,0.3,7.3c0,0,0,0.1-0.1,0.1c-3.7,22.5-15.6,30.3-26.9,34.9
		c-5.9,2.5-7.8-2.2-2.7-5.5c4-2.5,7.5-5.8,10.2-9.9c-2.8-2.2-5.8-3.9-9.6-5.2l4.9-7.4c3.2,1.6,5.9,3.5,8.4,6.1
		c1.5-3.2,2.7-6.8,3.4-10.5h-13c-3,3.7-6.1,6.6-8.5,8.2c-5.4,3.5-8.5-0.4-5.3-4.4c3.2-4,9.8-16.1,11.6-22.3l11.7,3.3
		c-0.8,2-2,4.1-3.1,6.2h8.8c0.2-0.3,0.4-0.6,0.7-0.9C294,161.3,297.8,161.4,300.5,164.4z M307.6,165c0.2,0.4,0.2,0.8,0.2,1.2
		c0,1.4-1,2.3-2.1,2.3c-0.7,0-1.4-0.4-2.1-1.3c-1.5-2.4-2.8-3.9-5.3-6.5l4.6-3.5C305.5,160.7,306.4,161.9,307.6,165z M312.9,162.4
		c0,1.4-1.1,2.3-2.1,2.3c-0.8,0-1.7-0.5-2.2-1.5c-1.2-2.5-2.3-4-4.5-6.8l4.8-3.3c2.1,3.8,3,5.3,3.9,8.5
		C312.9,161.8,312.9,162.1,312.9,162.4z"/>
	<path class="st8" d="M334.8,177.7c8.5,0.9,14.5,1.4,21.2,1.4c3.4,0,7.2-0.2,11.4-0.4c4-0.2,6,1.7,6,3.8c0,1.8-1.7,3.8-5.3,4.5
		c-6.3,1.2-12.1,1.7-18.7,1.7c-4.4,0-9.2-0.2-14.8-0.7L334.8,177.7z"/>
</g>
<polygon class="st9" points="377.4,130.8 374,136 380.9,136 "/>
<polygon class="st9" points="363.1,132.8 359.7,138 366.5,138 "/>
<polygon class="st9" points="350.1,135.8 346.7,141 353.5,141 "/>
<polygon class="st9" points="352.3,193.8 348.8,199 355.7,199 "/>
<polygon class="st9" points="337.9,193.8 334.5,199 341.3,199 "/>
<polygon class="st9" points="323.9,193.8 320.5,199 327.3,199 "/>
<polygon class="st9" points="21.3,206.8 17.8,212 24.7,212 "/>
<polygon class="st9" points="39.9,176.8 36.5,182 43.3,182 "/>
<polygon class="st9" points="15.9,173.8 12.5,179 19.3,179 "/>
<polygon class="st9" points="26.9,176.8 23.5,182 30.3,182 "/>
<polygon class="st9" points="12.9,206.8 9.5,212 16.3,212 "/>
<g>
	<path class="st10" d="M246.1,131.6c0,0.7-0.2,1.3-0.6,2c-0.8,1.1-2,1.4-3.4,1.4h-35.6v-4.7H224V126h-14.5v-4.8H224v-3.5h-13.2V95.5
		h5.7v1.5h20c0.2-0.5,0.5-1,1.1-1.4c0.6-0.4,1.2-0.6,1.9-0.6c0.7,0,1.5,0.3,2.2,0.8c0.8,0.6,1.1,1.7,1.1,2.7c0,1-0.3,2-1,2.6v16.6
		h-12.3v3.5h7.6c0.1-0.3,0.3-0.7,0.6-1c0.7-0.8,1.6-1.2,2.6-1.2s1.9,0.4,2.7,1.3c0.6,0.6,0.8,1.4,0.8,2.2c0,0.7-0.2,1.4-0.6,2
		c-0.8,1.2-2,1.5-3.4,1.5h-10.3v4.3h9.7c0.1-0.3,0.3-0.7,0.6-1c0.7-0.8,1.6-1.2,2.5-1.2c0.9,0,1.9,0.5,2.7,1.3
		C245.9,130.1,246.1,130.8,246.1,131.6z M216.5,101.8v3.2h7.4v-3.2H216.5z M224,113v-3.2h-7.4v3.2H224z M236.2,101.8h-6.5v3.2h6.5
		V101.8z M236.2,113v-3.2h-6.5v3.2H236.2z"/>
	<g>
		<path class="st10" d="M189.7,122.2c0-1.4,0.4-2.6,1.1-3.5c1.2-0.7,2.3-1,3.4-1c1.5,0,2.7,0.6,3.7,1.8c0.9,1.2,1.4,2.7,1.4,4.3
			c0,1.5-0.4,2.8-1.3,3.9c-0.9,1.1-2.1,1.7-3.7,1.7c-1.2-0.3-2.3-1.1-3.2-2.6C190.2,125.3,189.7,123.8,189.7,122.2z"/>
	</g>
	<path class="st10" d="M145.4,120.3c-2.1-0.7-4.3-1.8-6.7-3.3l3-5c1.9,1.8,3.9,3.4,5.5,4.7c0.8,0.6,1.2,1.4,1.2,2.1
		c0,0.9-0.6,1.7-1.8,1.7C146.1,120.5,145.7,120.5,145.4,120.3z M149.3,126.8c0,0.2,0,0.4,0,0.6c-0.8,5.4-1.8,8.8-4,13.8l-6-3.2
		c3-4.5,4-6.7,6.2-11.5c0.6-1.3,1.5-1.9,2.2-1.9C148.6,124.6,149.3,125.4,149.3,126.8z M147.4,108.8c-1.4-0.6-4.1-2-6.4-3.9l3.9-4.3
		c1.9,2.1,3.6,3.8,5,5.1c0.6,0.6,0.9,1.2,0.9,1.8c0,0.9-0.7,1.6-1.9,1.6C148.4,109.1,147.9,109,147.4,108.8z M176.4,127l-0.3,3.6
		h3.5v4.8h-4c-0.8,4.9-3.8,6.6-6.7,6.6c-0.8,0-1.6-0.2-2.4-0.4c-1.6-0.5-2.2-1.4-2.2-2.2c0-1,0.9-1.8,2.1-1.6c0.2,0,0.5,0,0.7,0
		c0.9,0,1.6-0.3,2.3-0.8c0.3-0.3,0.5-0.8,0.7-1.6h-11.8l-0.2,1.8l-5.7-0.5l1.2-9.7h-3.5v-4.7h4.1l1.1-9.1l-0.6,0.7
		c-0.9,0.9-1.8,1.4-2.6,1.4c-0.9,0-1.5-0.6-1.5-1.6c0-0.5,0.2-1.2,0.6-2c1.8-3.2,3.1-6.1,4.6-11.6l5.9,1.8c-0.5,1.5-1,2.7-1.5,3.9
		h12.2c0.1-0.4,0.3-0.7,0.6-1c0.7-0.8,1.6-1.2,2.6-1.2c0.9,0,1.9,0.4,2.7,1.3c0.6,0.6,0.9,1.4,0.9,2.2c0,0.6-0.2,1.3-0.6,1.9
		c-0.8,1.2-2.1,1.5-3.4,1.5h-17.5c-0.4,0.6-0.8,1.1-1.4,1.8l4.9,0.5l-0.2,1.4h11c0.2-0.6,0.6-1.2,1.3-1.6c0.6-0.3,1.2-0.5,1.8-0.5
		c0.8,0,1.6,0.3,2.3,1c0.7,0.6,1,1.6,1,2.5c0,1.1-0.4,2.1-1.2,2.8c0,0,0,0-0.1,0l-0.3,4.1h3.3v4.7H176.4z M158.9,130.6h3.1l0.3-3.6
		h-3L158.9,130.6z M160,122.2h2.8l0.3-3.5h-2.7L160,122.2z M170.8,127h-2.8l-0.3,3.6h2.8L170.8,127z M171.4,118.7h-2.6l-0.3,3.5h2.7
		L171.4,118.7z"/>
	<path class="st10" d="M130.7,131.6c0,0.7-0.2,1.3-0.6,2c-0.8,1.1-2,1.4-3.4,1.4H91.1v-4.7h17.4V126H93.9v-4.8h14.5v-3.5H95.3V95.5
		h5.7v1.5h20c0.2-0.5,0.5-1,1.1-1.4c0.6-0.4,1.2-0.6,1.9-0.6c0.7,0,1.5,0.3,2.2,0.8c0.8,0.6,1.1,1.7,1.1,2.7c0,1-0.3,2-1,2.6v16.6
		h-12.3v3.5h7.6c0.1-0.3,0.3-0.7,0.6-1c0.7-0.8,1.6-1.2,2.6-1.2c0.9,0,1.9,0.4,2.7,1.3c0.6,0.6,0.8,1.4,0.8,2.2c0,0.7-0.2,1.4-0.6,2
		c-0.8,1.2-2,1.5-3.4,1.5h-10.3v4.3h9.7c0.1-0.3,0.3-0.7,0.6-1c0.7-0.8,1.6-1.2,2.5-1.2c0.9,0,1.9,0.5,2.7,1.3
		C130.4,130.1,130.7,130.8,130.7,131.6z M101.1,101.8v3.2h7.4v-3.2H101.1z M108.5,113v-3.2h-7.4v3.2H108.5z M120.7,101.8h-6.5v3.2
		h6.5V101.8z M120.7,113v-3.2h-6.5v3.2H120.7z"/>
	<path class="st10" d="M290.4,109.6v28.2h-5.7v-1.6H261v1.6h-5.7v-28.1h5.7v21.2h8.8v-30.6h5.7v30.6h9.2v-21.2H290.4z"/>
</g>
<g class="st11">
	<polygon class="st9" points="75.2,105.8 71.8,111 78.6,111 	"/>
	<polygon class="st9" points="60.9,105.8 57.4,111 64.3,111 	"/>
	<polygon class="st9" points="46.9,104.8 43.4,110 50.3,110 	"/>
	<polygon class="st9" points="50,115.8 46.6,121 53.5,121 	"/>
	<polygon class="st9" points="35.7,115.8 32.3,121 39.1,121 	"/>
	<polygon class="st9" points="21.7,116.8 18.3,122 25.1,122 	"/>
</g>
<text transform="matrix(1 0 0 1.01 17.5991 69.6406)" class="st3 st12 st13">戸倉</text>
</svg>
