<?xml version="1.0" encoding="utf-8"?>
<!-- Generator: Adobe Illustrator 23.1.1, SVG Export Plug-In . SVG Version: 6.00 Build 0)  -->
<svg version="1.1" id="レイヤー_1" xmlns="http://www.w3.org/2000/svg" xmlns:xlink="http://www.w3.org/1999/xlink" x="0px"
	 y="0px" viewBox="0 0 47.945 126.027" style="enable-background:new 0 0 47.945 126.027;" xml:space="preserve">
<style type="text/css">
	.st0{fill:#267839;}
</style>
<g>
	<g>
		<path class="st0" d="M40.638,50.95c-0.221-3.252-1.509-5.86-3.921-8.021c-0.738-0.662-1.623-1.375-1.748-2.473
			c-0.217-1.918-0.524-3.842,0.043-5.771c0.124-0.423,0.183-0.529,0.655-0.567c2.059-0.167,3.505-0.652,2.588-3.294
			c-0.217-0.626-0.988-1.765,0.444-2.225c2.506-0.805,5.066-4.119,4.499-7.052c-0.432-2.236-0.994-4.405-2.045-6.392
			c-0.854-1.613-1.478-3.531-3.284-4.383c-3.891-1.836-8.063-2.509-12.293-2.716c-5.801-0.104-10.452,2.117-14.134,6.545
			c-1.784,2.145-2.612,4.696-3.465,7.254c-0.647,1.943-0.125,4.079,1.687,5.024c1.956,1.02,2.335,2.259,1.874,4.27
			c-0.297,1.297-0.432,3.18,1.301,3.463c1.86,0.304,1.943,1.391,2.231,2.729c0.694,3.219-0.003,5.174-2.036,6.659
			C3.735,50.787,5.406,63.94,5.19,74.052C5.014,82.34,4.592,90.529,4.88,98.832c0.222,6.406-0.894,14.194,1.836,20.183
			c0.978,2.146,2.421,3.604,4.774,3.801c6.523,0.545,13.201,0.573,19.738,0.311c2.731-0.109,5.971-0.206,8.023-2.283
			c2.638-2.67,2.456-7.355,2.553-10.827c0.128-4.562-0.132-9.122-0.138-13.683c-0.014-10.415,0.096-20.808,0.148-31.221
			C41.837,60.369,40.96,55.677,40.638,50.95z M36.34,32.934c-1.182,0.109-2.355,0.316-3.538,0.413
			c-0.804,0.066-1.135-0.629-1.239-1.206c-0.174-0.961-0.225-1.945-0.098-2.95c0.188-1.487,1.285-1.241,2.182-1.236
			c1.011,0.005,0.257,0.87,0.483,1.286c0.07,0.128,0.011,0.326,0.011,1.051c0.01,0.131,0.032,0.824,0.126,1.508
			c0.043,0.31,0.279,0.59,0.642,0.517c0.364-0.073,0.199-0.377,0.175-0.615c-0.079-0.795-0.092-1.6-0.231-2.383
			c-0.216-1.213,0.419-1.636,1.464-1.802c0.396-0.063,0.51,0.137,0.55,0.437c0.167,1.256,0.326,2.514,0.476,3.772
			C37.43,32.469,37.121,32.862,36.34,32.934z M11.176,27.104c-2.237-1.107-2.685-2.318-2.191-5.203
			c0.831-4.852,3.589-8.411,7.845-10.777c2.89-1.607,6.041-2.078,9.357-2.14c3.701-0.07,7.119,0.813,10.42,2.265
			c2.451,1.078,3.398,3.496,4.437,5.733c0.774,1.666,1.274,3.432,1.241,4.61c0.058,3.165-1.464,5.357-3.541,5.755
			c-0.22,0.042-0.545,0.451-0.701,0.024c-0.124-0.34-0.125-0.755,0.248-1.062c0.36-0.297,0.668-0.656,1.007-0.98
			c2.005-1.917,1.472-4.018,0.354-6.082c-2.634-4.865-6.914-6.675-12.272-6.812c-3.548-0.091-6.911,0.29-10.115,1.851
			c-3.132,1.526-5.499,3.878-7.221,6.852c-0.95,1.641-0.216,4.18,1.382,5.55c0.177,0.152,0.296,0.369,0.443,0.556
			C11.636,27.2,11.38,27.205,11.176,27.104z M11.935,25.725c-0.193,0.26-1.012-0.503-1.103-1.118
			c-0.477-3.231,1.405-5.307,3.572-7.273c2.273-2.062,5.052-3.02,7.928-3.764c0.82-0.212,1.705-0.168,2.561-0.242
			c4.236-0.303,8.06,0.645,11.452,3.342c1.912,1.52,2.916,3.478,3.295,5.765c0.173,1.044-0.61,1.917-1.317,2.681
			c-0.071,0.076-0.35,0.095-0.404,0.031c-1.842-2.19-4.483-1.637-6.857-2.071c-2.942-0.538-5.892-0.194-8.831-0.25
			c-2.49-0.047-4.948,0.624-7.334,1.421C13.843,24.599,12.717,24.672,11.935,25.725z M14.566,33.798
			c-0.655,0.104-1.498,0.178-1.739-0.704c-0.209-0.765-0.227-1.583-0.318-2.285c0.155-1.149,0.292-2.189,0.438-3.228
			c0.054-0.381,0.107-0.937,0.594-0.802c0.415,0.115,1.015,0.299,0.946,1.037c-0.156,1.662-0.1,3.314,0.285,4.954
			C14.845,33.081,15.209,33.696,14.566,33.798z M14.67,25.881c-0.514-0.399,0.238-0.571,0.431-0.633
			c2.671-0.851,5.364-1.45,8.212-1.544c3.139-0.104,6.255,0.226,9.387,0.184c1.194-0.016,2.411,0.537,3.582,0.938
			c0.269,0.092,0.84,0.345,0.718,0.796c-0.108,0.399-0.453,0.748-0.921,0.879c-2.121,0.59-4.29,0.802-7.08,0.868
			c-3.697,0.235-7.962-0.227-12.226-0.598C16.043,26.709,15.256,26.336,14.67,25.881z M30.573,29.522
			c0.113,1.089,0.198,1.913,0.283,2.737c0.036,0.35,0.603,0.899-0.035,0.998c-0.699,0.109-1.686,0.587-2.164-0.258
			c-0.8-1.414-0.575-3.008-0.055-4.433c0.208-0.57,1.298-0.266,1.881-0.167C31.254,28.531,30.428,29.326,30.573,29.522z
			 M27.609,32.231c0.346,0.888,0.465,1.539-0.787,1.101c-1.362,0.186-2.043-0.239-1.832-1.676c0.132-0.9-0.02-1.872,0.256-2.714
			c0.375-1.142,1.524-0.525,2.284-0.569c0.74-0.042,0.092,0.59,0.04,0.829C27.347,30.227,27.22,31.234,27.609,32.231z
			 M24.245,32.879c0.01,0.373-0.219,0.468-0.456,0.426c-0.667-0.119-1.684,0.475-1.916-0.564c-0.237-1.062-0.25-2.203-0.168-3.294
			c0.037-0.487,0.174-1.328,1.043-1.214c0.815,0.107,2.15-0.249,1.487,1.493C24.235,30.735,24.217,31.808,24.245,32.879z
			 M21.082,32.684c0.263,0.489-0.157,0.74-0.58,0.715c-0.631-0.037-1.325,0.771-1.892-0.114c-0.842-1.313-0.626-2.68-0.349-4.121
			c0.201-1.048,0.626-1.402,1.582-1.158c2.049-0.403,1.037,1.162,1.052,1.798C20.919,30.769,20.566,31.722,21.082,32.684z
			 M17.477,28.519c0.058,1.762-0.886,3.443,0.202,5.054c0.021,0.031-0.128,0.251-0.175,0.243c-0.44-0.07-1.101,0.315-1.29-0.239
			c-0.618-1.814-1.097-3.69-0.503-5.6c0.203-0.654,0.865-0.21,1.329-0.198C17.705,27.797,17.43,28.306,17.477,28.519z
			 M40.495,84.534c0.299,10.204-0.145,20.393-0.102,30.588c0.012,2.955-2.573,6.77-6.333,6.761c-1.555-0.004-3.11,0.162-4.665,0.25
			c0-0.064,0-0.128-0.001-0.192c-4.239,0-8.477,0.017-12.716-0.008c-1.689-0.01-3.379-0.074-5.065-0.182
			c-2.546-0.162-3.843-2.325-4.566-5.816c-1.347-6.502-0.902-13.085-1.311-19.623C5.413,91.16,5.143,85.928,5.686,80.819
			c0.581-5.466,0.327-10.908,0.542-16.355c0.149-3.762,0.387-7.487,1.436-11.097c0.845-2.907,2.343-5.464,4.681-7.501
			c1.292-1.125,2.601-2.307,3.58-3.69c0.758-1.071,0.461-2.552,0.294-3.842c-0.11-0.854,0.072-1.738-0.386-2.586
			c-0.271-0.501,0.227-0.811,0.769-0.885c5.545-0.759,11.095-0.424,16.647-0.104c0.831,0.048,0.409,0.558,0.391,0.869
			c-0.129,2.175-0.663,4.424,0.721,6.382c0.808,1.142,1.766,2.212,2.804,3.151c1.718,1.553,2.199,3.53,2.469,5.702
			c0.592,4.762,1.179,9.54,1.224,14.327C40.921,71.636,40.306,78.095,40.495,84.534z"/>
		<path class="st0" d="M17.015,51.799c-0.474-0.127-1-0.043-1.49-0.129c-1.537-0.269-3.178-0.217-4.46-1.325
			c-0.275-0.238-0.37-0.75-0.885-0.57c-0.116,0.041-0.251,0.245-0.248,0.371c0.011,0.465,0.3,0.76,0.712,0.939
			c1.924,0.839,4.005,0.942,6.179,1.357c0.479-0.171,1.063-0.38,1.647-0.588C18.005,51.475,17.512,51.932,17.015,51.799z"/>
		<path class="st0" d="M18.099,60.331c-2.586,0.977-5.109,0.852-7.568-0.421c-0.35-0.181-0.699-0.192-1.012,0.058
			c-0.091,0.073-0.178,0.325-0.153,0.344c0.279,0.21,0.564,0.514,0.879,0.558c1.248,0.174,2.439,0.798,3.47,0.517
			c1.717,0.117,3.071-0.204,4.369-0.803c0.101-0.046,0.164-0.172,0.245-0.261C18.252,60.324,18.167,60.306,18.099,60.331z"/>
		<path class="st0" d="M11.031,56.012c1.634,0.475,3.304,0.563,5.379,0.573c-0.03,0.002,0.329-0.015,0.687-0.039
			c0.37-0.024,0.787,0.168,1.08-0.226c-0.383-0.019-0.768-0.023-1.15-0.06c-2.254-0.215-4.617,0.051-6.565-1.515
			c-0.198-0.159-0.547-0.347-0.747-0.07c-0.188,0.26,0.081,0.505,0.268,0.714C10.268,55.708,10.611,55.89,11.031,56.012z"/>
		<path class="st0" d="M15.08,67.5c0.574-0.039,1.149-0.067,1.72-0.126c0.15-0.015,0.289-0.127,0.434-0.195
			c-0.142-0.06-0.289-0.182-0.425-0.171c-2.001,0.164-3.969,0.129-5.854-0.714c-0.278-0.125-0.809-0.215-0.912,0.26
			c-0.089,0.41,0.365,0.521,0.679,0.576C12.16,67.386,13.599,67.684,15.08,67.5z"/>
		<path class="st0" d="M17.084,74.641c-1.685,0.071-3.296-0.12-4.727-1.131c-0.234-0.165-0.608-0.477-0.858-0.051
			c-0.233,0.399,0.151,0.577,0.436,0.751c1.206,0.734,2.554,0.813,3.742,0.877c0.584-0.046,0.999-0.068,1.411-0.117
			c0.223-0.026,0.44-0.099,0.659-0.151C17.593,74.519,17.308,74.632,17.084,74.641z"/>
		<path class="st0" d="M10.482,103.378c-0.041,0.556,0.552,0.299,0.847,0.386c0.417,0.123,0.875,0.108,1.361,0.156
			c0.932-0.165,1.902-0.33,2.868-0.514c0.112-0.021,0.205-0.142,0.307-0.217c-0.111-0.039-0.221-0.109-0.334-0.114
			c-1.345-0.055-2.691-0.128-4.037-0.131C11.134,102.943,10.524,102.804,10.482,103.378z"/>
		<path class="st0" d="M13.14,116.48c-0.498-0.042-1.251-0.646-1.401,0.072c-0.119,0.572,0.839,0.602,1.363,0.79
			c0.098,0.035,0.22,0.005,0.564,0.005c0.836-0.097,1.904-0.213,2.969-0.356c0.124-0.017,0.228-0.183,0.341-0.281
			c-0.128,0.005-0.256,0.023-0.383,0.014C15.442,116.648,14.29,116.578,13.14,116.48z"/>
		<path class="st0" d="M14.692,110.715c0.2-0.056,0.381-0.176,0.571-0.267c-0.189-0.005-0.387,0.027-0.564-0.021
			c-0.921-0.245-1.83-0.019-2.733,0.087c-0.568,0.066-1.222-0.252-1.699,0.314c0.581,0.431,1.263,0.337,2.213,0.404
			C13.083,111.356,13.871,110.945,14.692,110.715z"/>
		<path class="st0" d="M11.977,97.21c1.44,0.57,2.678-0.153,3.959-0.598c0.08-0.028,0.135-0.128,0.202-0.195
			c-0.107-0.015-0.228-0.07-0.32-0.039c-1.258,0.419-2.538,0.228-3.813,0.173c-0.218-0.016-0.508-0.069-0.536,0.225
			C11.44,97.09,11.741,97.117,11.977,97.21z"/>
		<path class="st0" d="M12.795,81.106c-0.19-0.082-0.554-0.141-0.61,0.197c-0.021,0.13,0.22,0.407,0.382,0.445
			c0.802,0.187,1.618,0.316,2.209,0.425c0.887-0.082,1.546-0.131,2.2-0.213c0.139-0.018,0.263-0.159,0.394-0.243
			c-0.137-0.019-0.273-0.048-0.411-0.055C15.557,81.595,14.136,81.686,12.795,81.106z"/>
		<path class="st0" d="M16.458,88.283c-1.159,0.061-2.32,0.096-3.481,0.094c-0.367-0.001-0.745-0.317-1.084,0.058
			c-0.06,0.066-0.077,0.28-0.068,0.283c0.388,0.126,0.793,0.361,1.171,0.325c1.178-0.112,2.345-0.328,3.517-0.504
			c0.263,0.016,0.737,0.213,0.722-0.083C17.219,88.141,16.765,88.267,16.458,88.283z"/>
	</g>
	<path class="st0" d="M40.34,27.125c-0.143-0.776-0.707-1.487-1.508-1.637c-0.109-0.02-0.219-0.028-0.329-0.028
		c-0.279-0.093-0.581-0.116-0.865-0.043c-0.165,0.042-0.273,0.2-0.278,0.365c-0.002,0.054,0.003,0.108,0.004,0.161
		c-0.148,0.165-0.261,0.366-0.312,0.61c-0.089,0.426,0.019,0.859,0.275,1.162c-0.196,0.171-0.289,0.45-0.24,0.736
		c0.077,0.446,0.516,0.692,0.939,0.704c0.405,0.011,0.805-0.18,1.078-0.477c0.407,0.025,0.896,0.07,1.136-0.298
		C40.465,28.038,40.411,27.509,40.34,27.125z M39.447,27.903c0.007-0.122-0.004-0.248-0.041-0.374
		c-0.011-0.038-0.026-0.075-0.041-0.112c0.069-0.119,0.114-0.248,0.144-0.383c0.086,0.244,0.113,0.513,0.095,0.783
		c0.001-0.01-0.007,0.058-0.009,0.081c-0.001,0.003-0.001,0.005-0.002,0.009C39.551,27.907,39.5,27.905,39.447,27.903z"/>
	<path class="st0" d="M13.334,26.519c-0.111-0.367-0.35-0.705-0.688-0.897c-0.315-0.179-0.674-0.211-1.026-0.149
		c-0.086,0.015-0.171,0.038-0.253,0.067c-0.216-0.019-0.436,0.017-0.629,0.117c-0.398,0.208-0.579,0.667-0.619,1.091
		c-0.035,0.368,0.068,0.765,0.264,1.077c0.231,0.366,0.581,0.603,0.97,0.703c0.072,0.093,0.152,0.181,0.244,0.258
		c0.174,0.146,0.352,0.248,0.563,0.331c0.162,0.064,0.372-0.042,0.454-0.185c0.189-0.329,0.386-0.648,0.52-1.004
		c0.009-0.023,0.008-0.046,0.011-0.068C13.394,27.476,13.476,26.988,13.334,26.519z M11.817,27.575
		c-0.006,0.002-0.013,0.005-0.016,0.006c-0.005,0.001-0.01,0.002-0.014,0.004c-0.001-0.004-0.001-0.005-0.002-0.008
		c-0.004-0.039-0.006-0.079-0.006-0.118c0-0.033,0.001-0.067,0.004-0.1c0.001-0.02,0.003-0.04,0.006-0.06
		c-0.005,0.04-0.003,0.036,0.005-0.012c0.053-0.208,0.117-0.349,0.241-0.489c0.06,0.084,0.119,0.169,0.175,0.252
		c0.017,0.025,0.039,0.043,0.061,0.063c0,0.001-0.001,0.001-0.001,0.002c-0.031,0.058-0.067,0.112-0.103,0.167
		c-0.002,0.004-0.011,0.015-0.017,0.024c-0.021,0.026-0.043,0.051-0.066,0.076c-0.017,0.018-0.035,0.036-0.054,0.054
		c-0.002,0.002-0.035,0.031-0.048,0.043C11.931,27.515,11.875,27.548,11.817,27.575z"/>
</g>
<g>
</g>
<g>
</g>
<g>
</g>
<g>
</g>
<g>
</g>
<g>
</g>
</svg>
