<?xml version="1.0" encoding="utf-8"?>
<!-- Generator: Adobe Illustrator 23.1.1, SVG Export Plug-In . SVG Version: 6.00 Build 0)  -->
<svg version="1.1" id="レイヤー_1" xmlns="http://www.w3.org/2000/svg" xmlns:xlink="http://www.w3.org/1999/xlink" x="0px"
	 y="0px" viewBox="0 0 113.699 163.246" style="enable-background:new 0 0 113.699 163.246;" xml:space="preserve">
<style type="text/css">
	.st0{fill:#267839;}
</style>
<g>
	<path class="st0" d="M107.41,115.193c-0.676-1.138-1.084-2.447-1.532-3.707c-0.67-1.886-3.253-3.026-4.868-1.86
		c-7.838,5.664-17.554,7.932-25.17,13.98c-0.17,0.135-0.426,0.16-0.642,0.237c0.08-0.267,0.079-0.615,0.253-0.79
		c2.168-2.181,8.382-6.478,9.027-7.336c0.793-1.056-0.469-7.207-1.654-7.903c-0.173-0.101-0.424-0.136-0.607-0.134
		c-5.14,0.068-17.848,9.221-21.059,11.588c-0.162,0.119-0.736,0.305-0.61,0.117c1.137-1.691-0.393-3.012-0.468-4.486
		c-0.118-2.334-0.439-3.286-3.102-2.026c-5.311,2.514-10.997,4.179-16.163,7.076c-1.48,0.83-3.339,2.065-4.968,1.121
		c-3.811-2.209-7.411-4.784-11.074-7.246c-1.817-1.222-4.012-2.193-5.279-3.854c-2.323-3.045-5.056-3.865-8.321-1.81
		c-0.969,0.61-2.087,0.992-3.155,1.435c-1.317,0.546-2.849,0.937-1.479,2.867c0.352,0.496-0.057,0.657-0.426,0.844
		c-0.33,0.167-0.856,0.324-0.65,0.796c0.153,0.349,0.591,0.812,0.901,0.811c1.169-0.003,1.616,0.852,2.197,1.582
		c1.826,2.294,4.081,4.211,6.643,5.46c3.231,1.575,6.677,2.71,9.761,4.627c0.502,0.312,0.764,0.432,0.074,0.79
		c-2.37,1.229-4.571,2.822-7.26,3.354c-0.894,0.177-1.306,0.602-1.254,1.6c0.172,3.296,2.677,4.7,4.976,6.266
		c0.566,0.386,1.318,1.074,1.909,0.17c0.681-1.042,1.776-1.128,2.746-1.522c0.219-0.089,0.495-0.038,0.745-0.051
		c-0.202,0.197-0.383,0.537-0.609,0.57c-2.154,0.311-1.837,1.92-1.544,3.238c0.914,4.104,6.027,6.473,10.889,6.564
		c0.422,0.165,1.045-0.368,1.251,0.24c0.057,0.169-0.59,0.597-0.937,0.878c-0.825,0.667-1.601,1.427-2.511,1.951
		c-1.854,1.068-1.554,2.466-0.387,3.597c1.118,1.083,1.642,2.362,2.245,3.694c0.455,1.003,1.052,1.986,1.773,2.815
		c1.497,1.718,3.777,0.529,5.284,1.093c3.256,1.219,3.931-1.177,5.179-2.722c1.771-2.194,3.366-4.485,5.419-6.489
		c1.98-1.932,3.259-0.96,4.684,0.34c0.875,0.798,2.59,0.927,2.515,2.472c-0.066,1.375,0.771,1.594,1.684,1.859
		c4.148,1.208,7.882,0.049,11.404-2.104c1.332-0.814,2.388-1.939,2.26-3.643c-0.272-3.606-4.795-6.243-7.6-7.827
		c3.877-1.915,7.799-3.747,11.442-6.157c5.877-3.887,11.447-8.144,16.89-12.583c3.26-2.659,5.916-6.102,10.256-7.285
		C107.592,117.391,108.22,116.559,107.41,115.193z M62.408,119.976c2.888-2.051,5.818-4.039,8.689-6.118
		c2.542-1.84,5.665-2.945,8.637-4.105c2.246-0.877,2.73-0.367,2.783,1.844c0.26,2.354-1.044,3.558-2.307,4.894
		c-3.407,3.605-7.013,7.002-10.949,9.996c-3.411,2.594-6.548,5.611-10.519,7.418c-0.52,0.236-0.866,0.569-0.836,1.171
		c0.028,0.573,0.428,0.826,0.916,0.948c0.262,0.066,0.545,0.044,0.819,0.062c-0.115,0.165-0.209,0.351-0.348,0.492
		c-0.315,0.317-0.727,0.365-1.073,0.134c-2.888-1.927-5.76-3.878-8.641-5.815c-0.834-0.561-0.33-1.115,0.115-1.452
		C53.907,126.257,58.1,123.035,62.408,119.976z M59.134,118.182c0.245,0.563-0.315,0.865-0.642,1.157
		c-2.843,2.541-6.2,4.355-9.301,6.534c-0.834,0.586-2.026,0.841-2.072,2.212c-0.006,0.181-0.423,0.348-0.697,0.558
		c-1.518-1.157-2.975-2.267-4.42-3.392c-0.019-0.015,0.105-0.329,0.194-0.347c5.717-1.157,10.389-4.723,15.71-6.786
		C58.256,117.981,58.83,117.483,59.134,118.182z M48.336,128.554c-0.297,0.279-0.556,0.63-0.904,0.814
		c-0.291,0.154-0.453-0.171-0.422-0.429c0.05-0.423,0.35-0.645,0.886-0.737C48.003,128.288,48.17,128.421,48.336,128.554z
		 M39.504,121.993c5.63-2.745,11.304-5.39,17.243-7.418c0.2-0.069,0.424-0.07,0.923-0.147c0.511-0.12,0.648,0.477,0.834,1.011
		c0.17,0.487,0.041,0.861-0.465,1.029c-3.327,1.11-6.08,3.358-9.275,4.7c-2.687,1.128-5.482,2.005-8.255,2.914
		c-0.669,0.219-1.3-0.262-1.609-0.846C38.611,122.692,38.996,122.241,39.504,121.993z M7.905,111.572
		c-0.319,0.151-0.319-0.375-0.131-0.519c1.825-1.399,3.901-2.302,6.081-2.98c0.092-0.028,0.239,0.123,0.372,0.197
		c-0.085,0.115-0.104,0.164-0.138,0.181C12.034,109.504,9.992,110.585,7.905,111.572z M18.767,122.328
		c-3.503-1.656-6.458-3.905-8.963-6.805c-0.288-0.333-0.835-0.721-0.4-1.209c0.419-0.47,0.817-0.097,1.195,0.258
		c5.675,5.324,12.836,8.056,19.689,11.348c2.609,1.253,4.975,2.946,6.633,5.451c0.224,0.338,0.5,1.253,1.248,0.532
		c0.564-0.544,0.495-1.114-0.038-1.701c-0.792-0.872-1.532-1.79-2.294-2.689c0.95,0.746,1.928,1.46,2.845,2.245
		c2.656,2.274,5.314,4.54,8.246,6.464c0.64,0.42,1.437,0.725,1.804,0.093c0.318-0.548-0.659-0.547-1.036-0.774
		c-2.754-1.662-4.813-4.153-7.329-6.085c-5.143-3.949-9.927-8.395-15.712-11.464c-0.114-0.061-0.236-0.108-0.348-0.174
		c-0.757-0.442-1.337-1.281-2.379-1.065c-0.07,0.014-0.166,0.281-0.144,0.299c0.821,0.666,1.577,1.471,2.502,1.942
		c3.622,1.847,6.821,4.268,9.839,6.956c0.093,0.083,0.156,0.201,0.233,0.302c-0.163-0.016-0.349,0.014-0.486-0.055
		c-4.925-2.438-9.907-4.773-14.742-7.379c-2.478-1.336-4.698-3.151-7.014-4.779c-0.229-0.161-0.955-0.391-0.367-0.816
		c1.834-1.326,4.079-1.727,6.139-2.692c1.65,0.943,3.383,1.686,4.825,2.804c4.353,3.373,9.148,6.089,13.577,9.367
		c3.368,2.494,6.988,4.671,10.034,7.583c2.77,2.648,6.553,3.613,9.492,5.972c1.194,0.959,1.801,1.537-0.088,2.354
		c-2.532,1.094-4.996,2.344-7.489,3.528c-0.953,0.453-1.751-0.249-2.226-0.706c-2.419-2.326-4.774-4.733-6.975-7.266
		c-0.885-1.019-2.045-1.554-3.009-2.408C31.002,127.315,24.701,125.133,18.767,122.328z M43.396,142.116
		c1.052-0.744,2.302,0.497,3.527,0.431c-0.058,0.126-0.083,0.326-0.178,0.368c-1.984,0.89-3.977,1.761-5.873,2.595
		c-0.255-0.022-0.373-0.032-0.492-0.042c0.071-0.191,0.085-0.469,0.223-0.559C41.742,144.165,42.36,142.85,43.396,142.116z
		 M42.034,141.494c0.265-0.259,0.563-0.484,0.85-0.721c0.048,0.092,0.16,0.236,0.134,0.268c-0.232,0.288-0.488,0.556-0.854,0.958
		C42.089,141.724,41.99,141.536,42.034,141.494z M20.201,136.115c-0.794-0.566-1.34-1.336-1.715-2.224
		c-0.029-0.07,0.271-0.385,0.316-0.364c0.927,0.429,1.489,1.15,1.642,2.322C20.408,135.889,20.216,136.126,20.201,136.115z
		 M24.351,136.116c-0.659-1.215-2.242-1.333-3.374-2.351c-2.227-2.001-0.579-2.376,0.97-3.192c1.683-0.886,3.371-1.831,5.016-2.764
		c0.791-0.449,2.711,0.821,3.979,1.556c1.558,0.903,2.987,2.035,4.429,3.125c0.381,0.289,0.832,0.784,0.843,1.196
		c0.018,0.659-0.734,0.379-1.139,0.521C31.712,135.388,28.159,135.503,24.351,136.116z M36.42,145.536
		c-0.568,0.75-1.753,0.518-2.55,0.139c-1.895-0.9-3.699-1.991-5.568-2.952c-1.029-0.529-1.309-1.274-0.955-2.337
		c0.348-1.042,1.273-0.841,1.918-0.975c2.938,0.07,5.159,1.213,6.808,3.537C36.686,143.811,36.96,144.824,36.42,145.536z
		 M34.349,139.093c-0.378-0.385,0.504-0.847,0.911-1.174c0.179-0.144,0.441-0.526,0.726-0.06c0.13,0.211-0.252,1.051,0.535,0.488
		c0.676-0.484,0.975-1.233,0.915-2.02c-0.042-0.55-0.55-0.691-1.096-0.612c-1.16,0.169-1.561,1.35-2.506,1.84
		c-0.901,0.467-1.73,0.974-2.772,0.549c-0.074-0.03-0.073-0.246-0.106-0.376c1.067-0.191,1.126-1.855,2.485-1.662
		c1.461,0.207,2.121-1.373,3.339-1.64c1.303,0.113,1.812,1.213,2.557,1.923c0.923,0.88,1.68,1.941,2.46,2.96
		c0.166,0.216,0.76,0.505,0.117,0.908c-0.414,0.259-0.729,0.846-1.318,0.346c-0.346-0.294-0.654-0.629-1.065-0.099
		c-0.455,0.586-0.901,1.875-1.37,1.622C36.754,141.326,35.479,140.244,34.349,139.093z M39.77,146.019
		c-0.288,0.185-0.445,0.35-0.622,0.374c-0.114,0.015-0.256-0.177-0.385-0.276c0.164-0.122,0.313-0.289,0.497-0.349
		C39.359,145.736,39.518,145.888,39.77,146.019z M35.899,151.752c0.222,0.043,0.431,0.151,0.863,0.318
		c-0.304,0.139-0.432,0.251-0.513,0.224c-0.215-0.072-0.409-0.204-0.611-0.312C35.726,151.9,35.83,151.738,35.899,151.752z
		 M39.482,160.888c-2.131-0.52-2.598-2.403-3.342-4.056c-0.141-0.314-0.007-0.586,0.314-0.302c1.411,1.244,2.781,2.534,4.16,3.813
		c0.053,0.049,0.049,0.158,0.08,0.267C40.4,161.149,39.952,161.003,39.482,160.888z M41.505,158.623
		c-0.462-0.435-0.911-0.883-1.362-1.329c0.102-0.037,0.256-0.135,0.298-0.1c0.46,0.379,0.902,0.779,1.439,1.252
		C41.667,158.549,41.529,158.646,41.505,158.623z M42.491,157.398c-1.505-0.805-2.587-2.456-4.697-2.101
		c-0.542,0.091-1.278-0.901-1.105-1.518c0.221-0.786,0.97-0.119,1.413,0.007c1.756,0.498,3.386,1.256,4.517,2.79
		c0.151,0.205,0.287,0.421,0.41,0.604C42.952,157.637,42.773,157.549,42.491,157.398z M61.011,153.349
		c-0.189,0.043-0.477,0.102-0.581,0.002c-0.93-0.888-1.835-1.804-2.73-2.727c-0.125-0.129-0.254-0.381,0.104-0.392
		c1.436,0.591,2.352,1.741,3.332,2.812C61.171,153.082,61.076,153.334,61.011,153.349z M72.296,154.418
		c-1.656,0.898-3.279,1.886-5.342,2.187c-0.143-0.065-0.392-0.176-0.64-0.288c0.198-0.211,0.358-0.526,0.6-0.615
		c1.722-0.634,3.46-1.226,5.197-1.818c0.141-0.048,0.316,0.006,0.476,0.013C72.492,154.075,72.443,154.337,72.296,154.418z
		 M73.347,152.265c-3.06,1.137-6.054,2.488-9.307,2.983c-0.842,0.12-0.558-0.377-0.431-0.768c0.928-2.851,7.342-4.803,9.669-2.95
		C73.58,151.77,73.898,152.06,73.347,152.265z M67.128,144.609c0.845,0.512,3.655,2.279,4.454,2.853
		c0.75,0.539,1.608,1.043,1.779,2.098c-0.826-0.006-1.679,0.117-2.472-0.048c-1.28-0.267-2.978,0.341-3.595-1.532
		c-0.169-0.512-0.017-1.609-0.756-1.311c-0.752,0.304-0.266,1.268,0.022,1.953c0.105,0.25,0.703,0.509,0.166,0.812
		c-0.409,0.231-0.936,0.308-1.207-0.298c-0.157-0.352-0.298-0.711-0.442-1.068c-0.199-0.495-0.527-1.152-1.028-0.952
		c-0.57,0.228,0.046,0.809,0.071,1.242c0.034,0.575,1.03,1.084,0.22,1.694c-1.613,1.214-3.161,1.897-4.997,0.102
		c-1.151-1.125-1.357-1.594,0.289-2.193c0.996-0.362,1.939-0.895,2.865-1.422c1.375-0.783,2.776-1.512,4.188-2.221
		C66.815,144.429,66.98,144.52,67.128,144.609z M96.645,122.773c-9.613,7.684-19.244,15.286-30.818,20.023
		c-5.914,2.42-11.313,5.897-16.153,10.145c-0.21,0.185-0.35,0.45-0.523,0.677c-1.357,1.028-1.765,2.719-2.794,3.971
		c-0.221,0.27-0.658,1.141-1.004,0.328c-1.522-3.578-5.364-4.469-7.843-6.925c-0.559-0.554-0.427-0.638,0.019-1.109
		c3.553-3.755,8.691-4.625,12.931-7.132c2.468-1.46,5.172-2.519,7.757-3.784c0.543-0.266,1.075-0.341,1.344,0.221
		c0.334,0.699-0.45,0.573-0.753,0.734c-5.938,3.159-11.823,6.399-16.952,10.822c-0.545,0.47-1.244,0.904-1.127,1.751
		c0.033,0.239,0.458,0.544,0.749,0.606c0.88,0.186,1.15-0.624,1.554-1.134c2.264-2.853,5.491-4.38,8.485-6.231
		c1.593-0.984,3.164-2.004,4.767-2.972c0.262-0.158,0.636-0.13,0.958-0.188c-0.225,0.216-0.427,0.464-0.678,0.644
		c-4.029,2.898-6.906,6.976-10.533,10.287c-0.336,0.307-0.381,0.787,0.087,1.113c0.439,0.305,0.88,0.365,1.248-0.123
		c0.448-0.593,0.864-1.24,1.781-0.876c0.01-0.961,0.748-1.49,1.264-2.157c4.237-5.486,10.099-8.595,16.114-11.748
		c4.654-2.439,9.582-4.217,14.19-6.72c5.554-3.017,10.69-6.613,15.63-10.521c0.286-0.226,0.634-0.375,0.953-0.559
		C97.083,122.204,96.917,122.555,96.645,122.773z M58.379,142.046c-0.169,0.097-0.332,0.211-0.513,0.276
		c-0.044,0.016-0.147-0.13-0.223-0.202c0.133-0.121,0.266-0.242,0.479-0.435C58.24,141.85,58.309,141.948,58.379,142.046z
		 M63.747,139.098c0.287-0.618,0.921-0.63,1.463-0.79c0.109-0.032,0.256,0.064,0.385,0.102c-0.474,0.317-0.947,0.635-1.47,0.984
		C63.949,139.258,63.734,139.125,63.747,139.098z M105.598,116.233c-0.78,0.359-0.247-0.339-0.382-0.511
		c-0.408-0.52-0.718,0.007-0.976,0.166c-3.802,2.34-7.529,4.779-11.072,7.515c-6.627,5.118-13.936,9.066-21.687,12.207
		c-0.246,0.1-0.558,0.038-0.839,0.051c0.217-0.308,0.365-0.764,0.661-0.903c7.403-3.46,13.255-9.271,20.252-13.337
		c3.514-2.042,7.072-4.009,10.65-5.935c0.612-0.329,0.972-0.776,0.753-1.262c-0.352-0.785-1.093-0.523-1.666-0.175
		c-2.759,1.678-5.431,3.51-8.263,5.051c-9.18,4.995-16.846,12.33-26.282,16.92c-1.705,0.829-3.382,1.719-5.048,2.623
		c-0.592,0.322-0.891-0.03-1.211-0.374c-0.474-0.509-0.003-0.747,0.328-1.016c7.714-6.288,15.372-12.689,24.032-17.642
		c3.849-2.202,8.274-3.355,12.124-5.663c1.369-0.821,2.707-1.693,4.052-2.552c1.975-1.262,3.08-0.866,3.863,1.347
		c0.33,0.933,0.755,1.832,1.186,2.863C105.926,115.809,105.814,116.133,105.598,116.233z"/>
	<g>
		<path class="st0" d="M36.626,82.143c0.328-8.934,0.749-17.865,0.935-26.802c0.068-3.278-1.154-6.314-2.495-9.344
			c-0.989-2.235-1-4.906-2.111-7.16c-2.144-4.351-1.783-8.978-1.733-13.587c0.005-0.486,0.236-1.198-0.335-1.395
			c-0.576-0.199-0.816,0.516-1.136,0.892c-5.414,6.369-7.96,13.968-9.565,22.01c-1.253,6.279-2.291,12.657-2.143,18.99
			c0.234,9.991,2.276,19.562,10.579,26.538c3.372,2.833,6.496,5.96,9.728,8.959c0.652,0.605,1.192,1.477,0.447,2.127
			c-0.827,0.722-1.071-0.471-1.475-0.903c-2.604-2.782-5.388-5.37-8.303-7.82c-0.139-0.116-0.342-0.156-0.515-0.231
			c0.024,0.157-0.004,0.356,0.081,0.466c2.683,3.452,5.444,6.832,9.166,9.248c0.356,0.231,0.374,0.393,0.241,0.708
			c-0.269,0.64-0.725,0.996-1.423,0.789c-1.068-0.317-1.876-1.034-2.633-1.825c-4.489-4.694-8.313-9.898-11.822-15.348
			c-4.245-6.593-7.441-13.613-7.735-21.557c-0.188-5.087,0.967-10.097,1.952-15.081c1.47-7.435,3.928-14.514,7.596-21.169
			c2.586-4.692,6.224-8.578,9.54-12.712c0.267-0.333,0.444-0.745,0.736-1.051c0.964-1.013,2.452-1.203,3.391-0.695
			c1.078,0.583-0.333,1.36-0.676,1.909c-2.503,4.006-2.507,8.349-2.061,12.818c0.375,3.754,1.401,7.396,1.489,11.224
			c0.059,2.579,1.14,5.136,1.774,7.7c0.036,0.147,0.164,0.271,0.249,0.405c0.114-0.149,0.291-0.283,0.334-0.451
			c2.204-8.615,7.753-15.867,9.83-24.594c1.025-4.305,2.838-8.625,5.235-12.329c1.538-2.376,3.784-4.565,5.858-6.704
			c0.322-0.332,0.796-0.223,0.879,0.08c0.75,2.752,3.157,4.503,3.662,7.663c0.846,5.293,0.636,10.641,1.548,15.892
			c0.145,0.836,0.215,1.641-0.987,1.803c-0.35,0.047-0.352,3.079,0.008,3.229c0.057,0.024,0.406-0.407,0.459-0.661
			c0.604-2.865,1.86-5.44,3.288-7.973c0.599-1.063,1.696-1.605,2.257-2.762c0.39-0.806,0.982,0,1.156,0.716
			c1.211,4.994,2.24,10.044,3.728,14.954c1.149,3.792,1.947,7.663,3.067,11.452c0.104,0.353,0.127,1.357,0.905,0.511
			c2.392-2.603,4.846-5.165,6.459-8.371c0.097-0.192,0.121-0.438,0.256-0.59c0.443-0.497-0.421-1.929,0.98-1.632
			c1.138,0.241,0.632,1.404,0.744,2.188c0.111,0.781-0.557,1.782,0.231,2.258c0.246,0.148,1.206-0.901,1.847-1.391
			c3.814-2.913,5.825-6.729,5.904-11.565c0.013-0.794,0.248-1.775,1.274-1.832c1.088-0.061,0.815,1.02,0.852,1.571
			c0.508,7.551,2.062,15.032,1.368,22.665c-0.813,8.937-2.299,17.689-6.258,25.86c-4.385,9.052-10.279,16.958-17.776,23.672
			c-0.598,0.536-1.022,1.265-1.542,1.891c-0.207,0.25-0.422,0.703-0.808,0.391c-0.308-0.249-0.721-0.748-0.649-1.019
			c0.259-0.97,0.505-2.048,1.108-2.804c8.343-10.451,16.286-21.13,21.063-33.812c2.939-7.802,3.698-15.813,2.778-24.043
			c-0.154-1.374-0.166-2.762-0.278-4.141c-0.027-0.328-0.194-0.644-0.296-0.966c-0.25,0.26-0.566,0.482-0.739,0.786
			c-2.197,3.853-4.79,7.385-8.265,10.194c-0.465,0.376-0.947,1.117-1.669,0.647c-0.726-0.473-0.732-1.332-0.677-2.118
			c0.06-0.854,0.182-1.703,0.276-2.555c-0.668,0.66-1.399,1.269-1.993,1.991c-1.536,1.865-3.007,3.784-4.519,5.669
			c-0.254,0.317-0.474,0.899-0.971,0.667c-0.332-0.155-0.681-0.629-0.724-0.995c-0.989-8.45-4.63-16.262-5.925-24.637
			c-0.098-0.631-0.028-1.669-0.741-1.757c-0.686-0.085-0.746,0.943-0.958,1.509c-1.964,5.25-4.085,10.465-3.987,16.227
			c0.012,0.68-0.017,1.423-0.608,1.916c-0.379,0.316-0.645,0.93-1.267,0.764c-0.703-0.188-0.349-0.868-0.514-1.312
			c-1.639-4.415,0.248-8.862-0.148-13.284c-0.183-2.046,0.127-4.092-1.389-5.991c-0.693-0.868-0.198-2.661-0.298-4.031
			c-0.275-3.779-1.449-7.372-2.337-11.022c-0.108-0.443-0.412-0.839-0.625-1.256c-0.186,0.355-0.301,0.78-0.569,1.054
			c-1.708,1.738-3.475,3.453-4.415,5.746c-1.804,4.404-3.405,8.893-5.28,13.266c-1.389,3.239-3.192,6.299-4.608,9.527
			c-2.369,5.399-4.361,10.788-4.385,16.963c-0.014,3.516-0.664,7.2-0.934,10.807c-0.386,5.154-0.472,10.331-0.712,15.497
			c-0.033,0.711,0.24,1.941-0.7,1.887c-0.968-0.056-0.479-1.271-0.535-1.991c-0.036-0.471,0.035-0.95,0.058-1.425
			C36.672,82.145,36.649,82.144,36.626,82.143z M15.69,65.364c-0.136,1.763,0.117,3.921,0.9,6.006
			c0.085,0.225,0.214,0.434,0.323,0.65c0.035-0.231,0.106-0.463,0.101-0.693c-0.057-2.285-0.526-4.544-0.28-6.853
			c0.407-3.818,0.718-7.646,1.057-11.471c0.01-0.117-0.114-0.245-0.175-0.368c-0.064,0.098-0.176,0.191-0.184,0.293
			C17.089,56.957,15.719,60.838,15.69,65.364z M33.747,33.911c-0.098-0.323-0.251-0.825-0.404-1.327
			c-0.097,0.148-0.303,0.324-0.273,0.438c0.166,0.624,0.391,1.233,0.595,1.848C33.686,34.62,33.708,34.37,33.747,33.911z"/>
		<path class="st0" d="M64.78,102.985c-1.921-0.231-2.028-1.717-2.366-2.889c-0.324-1.125-0.708-1.371-1.624-0.585
			c-0.844,0.725-1.786,1.348-2.561,2.138c-1.679,1.712-2.691,0.671-3.478-0.836c-0.419-0.801-0.676-0.863-1.196-0.182
			c-0.131,0.171-0.291,0.32-0.441,0.476c-2.744,2.855-2.742,2.852-5.837,0.612c-0.292-0.212-0.631-0.359-0.948-0.537
			c0.049,0.378,0.129,0.755,0.142,1.134c0.038,1.088,1.56,1.884,0.565,3.2c-0.413,0.545-0.768,0.689-0.99,0.033
			c-0.957-2.822-1.845-5.667-2.726-8.514c-0.057-0.184,0.103-0.598,0.254-0.653c0.553-0.201,0.997,0.118,1.362,0.503
			c1.363,1.438,2.532,3.037,4.141,4.272c1.175,0.902,1.941,0.709,2.719-0.309c0.707-0.926,1.362-1.892,2.017-2.856
			c0.211-0.311,0.268-0.747,0.797-0.701c0.522,0.045,0.687,0.389,0.861,0.824c1.193,2.979,2.366,3.146,4.55,0.676
			c0.43-0.486,0.866-0.968,1.324-1.427c0.815-0.818,1.421-0.671,1.791,0.428c1.562,4.64,1.561,4.639,5.249,1.208
			c0.733-0.682,1.388-2.28,2.376-1.594c1.188,0.825-0.291,1.951-0.624,2.927c-0.345,1.014-0.875,1.965-1.307,2.951
			c-0.176,0.402-0.447,0.728-0.88,0.526c-0.488-0.228-0.03-0.598,0.025-0.884c0.143-0.748,0.357-1.482,0.543-2.221
			c-0.709,0.428-1.42,0.854-2.128,1.285C65.808,102.343,65.231,102.705,64.78,102.985z"/>
		<path class="st0" d="M54.886,59.162c-1.572-0.257-2.004-1.482-2.558-2.527c-0.585-1.103-1.003-2.292-1.561-3.411
			c-0.176-0.353-0.569-0.598-0.863-0.892c-0.267,0.315-0.595,0.596-0.79,0.95c-0.582,1.056-1.101,2.146-1.668,3.21
			c-0.23,0.432-0.535,0.875-1.112,0.526c-0.485-0.293-0.742-0.741-0.42-1.316c1.014-1.808,1.986-3.642,3.079-5.4
			c0.543-0.874,1.24-0.931,1.912,0.045c1.08,1.569,2.017,3.206,2.754,4.963c0.541,1.289,1.244,2.207,2.738,1.013
			c1.382-1.104,2.808-2.153,4.174-3.276c0.686-0.564,1.466-0.609,1.991-0.079c0.558,0.563-0.319,1.367-0.544,1.465
			c-2.458,1.067-3.975,3.45-6.418,4.498C55.33,59.049,55.038,59.114,54.886,59.162z"/>
		<path class="st0" d="M69.71,72.244c-0.097-1.072-0.17-2.147-0.302-3.214c-0.073-0.591-0.015-1.091,0.663-1.165
			c0.723-0.08,0.681,0.569,0.715,0.998c0.113,1.416,0.274,2.843,0.208,4.256c-0.08,1.715,0.801,1.594,1.849,1.089
			c2.009-0.968,3.972-2.03,5.967-3.027c0.437-0.218,0.893-0.666,1.43-0.256c0.538,0.411,0.625,1.038,0.538,1.649
			c-0.246,1.745-0.522,3.487-0.831,5.222c-0.041,0.231-0.354,0.597-0.525,0.588c-0.492-0.027-0.79-0.479-0.772-0.901
			c0.049-1.154,0.221-2.302,0.325-3.454c0.033-0.363,0.003-0.733,0.002-1.099c-0.4,0.109-0.835,0.151-1.194,0.338
			c-1.518,0.792-2.987,1.685-4.524,2.435c-2.788,1.361-3.805,0.666-3.664-2.413c0.016-0.345,0.002-0.692,0.002-1.037
			C69.636,72.249,69.673,72.247,69.71,72.244z"/>
		<path class="st0" d="M47.227,84.684c0.66,0.096,0.811,0.726,1.055,1.183c2.03,3.802,2.436,3.935,5.924,1.793
			c2.301-1.413,3.098-1.082,4.016,1.518c0.325,0.921,0.841,1.784,1.338,2.633c0.359,0.614,0.89,0.554,1.426,0.166
			c0.358-0.259,0.942-0.566,1.146-0.189c0.23,0.424-0.456,0.606-0.765,0.874c-2.004,1.732-2.877,0.238-3.666-1.321
			c-1.682-3.326-1.675-3.349-4.809-1.421c-1.879,1.156-3.395,1.269-4.439-1.102c-0.463-1.052-1.262-1.951-1.837-2.96
			C46.29,85.285,46.572,84.869,47.227,84.684z"/>
		<path class="st0" d="M34.039,70.898c-0.288,0.303-0.484,0.697-0.755,0.758c-0.899,0.204-1.865-0.136-2.362-0.735
			c-1.153-1.391-1.76-0.737-2.481,0.337c-0.357,0.531-0.816,1-1.267,1.46c-0.564,0.577-1.218,1.614-1.739,1.559
			c-0.831-0.087-0.955-1.301-1.259-2.07c-0.598-1.513-1.5-2.797-2.567-3.994c-0.307-0.345-0.77-0.742-0.284-1.216
			c0.574-0.561,1.017,0.048,1.261,0.398c0.914,1.308,1.753,2.669,2.583,4.033c0.426,0.7,0.761,0.795,1.309,0.092
			c0.876-1.123,1.857-2.164,2.743-3.281c0.518-0.653,1.266-0.782,1.611-0.194c0.677,1.154,1.627,1.828,2.779,2.35
			C33.771,70.471,33.866,70.689,34.039,70.898z"/>
	</g>
	<path class="st0" d="M71.929,118.417c-0.169,0.152-0.288,0.347-0.451,0.394c-4.18,1.202-6.219,5.255-9.74,7.299
		c-1.48,0.859-1.685,2.601-2.961,3.568c-0.623,0.472-1.292,0.63-1.973,0.865c-0.42,0.145-0.765,0.151-0.965-0.318
		c-0.176-0.414-0.066-0.757,0.274-1.039c4.401-3.64,8.789-7.296,13.215-10.906C70.105,117.646,71.029,117.439,71.929,118.417z"/>
	<path class="st0" d="M61.088,130.954c-0.691-0.226-0.95-0.676-0.431-1.16c3.109-2.907,6.25-5.78,9.411-8.631
		c0.196-0.176,0.77-0.21,0.961-0.056c0.363,0.294-0.019,0.641-0.241,0.852c-3.083,2.931-6.181,5.846-9.28,8.76
		C61.39,130.83,61.217,130.883,61.088,130.954z"/>
</g>
<g>
</g>
<g>
</g>
<g>
</g>
<g>
</g>
<g>
</g>
<g>
</g>
</svg>
