<?xml version="1.0" encoding="utf-8"?>
<!-- Generator: Adobe Illustrator 23.1.1, SVG Export Plug-In . SVG Version: 6.00 Build 0)  -->
<svg version="1.1" id="map_x5F_base_x5F_sec_xA0_画像_1_"
	 xmlns="http://www.w3.org/2000/svg" xmlns:xlink="http://www.w3.org/1999/xlink" x="0px" y="0px" viewBox="0 0 117.372 36.442"
	 style="enable-background:new 0 0 117.372 36.442;" xml:space="preserve">
<style type="text/css">
	.st0{fill:none;stroke:#FFFFFF;stroke-miterlimit:10;}
	.st1{fill:#FFFFFF;}
</style>
<g>
	<g>
		<polygon points="117.026,31.849 112.774,36.101 4.906,36.101 0.654,31.849 0.654,4.911 4.906,0.659 112.774,0.659 117.026,4.911 
					"/>
		<polygon class="st0" points="117.026,31.849 112.774,36.101 4.906,36.101 0.654,31.849 0.654,4.911 4.906,0.659 112.774,0.659 
			117.026,4.911 		"/>
	</g>
	<g>
		<path class="st1" d="M109.045,9.042c0-0.096,0.072-0.18,0.108-0.288c0.072-0.168,0.096-0.336,0.192-0.563
			c0.096-0.216,0.108-0.624,0.3-0.911c0.276-0.408,0.563-0.504,0.587-0.504c-0.036-0.013-0.228-0.061-0.312-0.072
			c-0.108-0.036-0.444-0.18-0.576-0.275c-0.132-0.097-0.144-0.108-0.204-0.252c-0.072-0.145-0.216-0.168-0.312-0.312
			c-0.108-0.155-0.096-0.252-0.18-0.479c-0.06-0.132-0.108-0.324-0.108-0.527c0-0.132,0.024-0.276,0.072-0.42
			c0.108-0.324,0.228-0.456,0.564-0.456s0.563,0.528,0.54,0.516c-0.024-0.023-0.204-0.071-0.324-0.071
			c-0.156,0.023-0.324,0.275-0.336,0.443c0,0.191,0.144,0.3,0.264,0.384c0.036,0.024,0.096,0.036,0.144,0.036
			c0.132,0,0.276-0.061,0.384-0.084c0.156-0.036,0.3-0.408,0.444-0.563c0.156-0.156,0.348-0.432,0.696-0.456
			c0.252,0,0.755,0.156,0.839,0.156c0-0.108-0.419-0.444-0.852-0.648c-0.096-0.023-0.335-0.119-0.552-0.119
			c-0.204,0-0.456-0.145-0.647-0.145c-0.252,0.024-0.731,0.048-0.888,0.048c-0.156,0-0.54,0.013-0.971,0.013
			c-0.408,0-0.516,0.048-0.756,0.048h-0.072c-0.192-0.013-0.3-0.024-0.408-0.024c-0.048,0-0.108,0-0.18,0.012
			c-0.144,0.024-0.288,0.036-0.396,0.036c-0.06,0-0.108,0-0.132-0.012c-0.084-0.024-0.264-0.024-0.408-0.024
			c-0.132,0-0.744,0.061-0.816,0.061c-0.06,0-0.479-0.024-0.551-0.024c-0.048,0-0.192-0.048-0.444-0.048
			c-0.096,0-0.204,0.012-0.336,0.024v-0.6c0.048,0,0.144,0.012,0.228,0.012c0.12,0,0.264-0.012,0.348-0.024
			c0.024,0,0.048-0.012,0.072-0.012c0.108,0,0.216,0.036,0.408,0.036c0.24,0,0.408,0,0.504-0.012h1.403
			c0.228,0,0.492,0.023,0.636,0.023c0.144,0,0.36,0.024,0.432,0.036c0.096,0,0.24-0.036,0.336-0.036c0.024,0,0.048,0.013,0.06,0.013
			c0.036,0.012,0.072,0.012,0.12,0.012c0.072,0,0.168-0.012,0.276-0.024c0.168-0.023,0.288-0.023,0.839-0.036h0.432
			c0.3,0,0.479,0,0.563,0.013c0.12,0.012,0.888,0.132,1.067,0.275c0.18,0.145,0.624,0.3,0.756,0.444
			c0.132,0.144,0.3,0.348,0.492,0.552c0.192,0.203,0.396,0.6,0.432,0.707c0,0.132-0.06,0.252-0.18,0.288
			c-0.156,0-0.288-0.168-0.492-0.252c-0.084-0.036-0.167-0.048-0.24-0.048c-0.12,0-0.228,0.036-0.312,0.072
			c-0.144,0.048-0.3,0.167-0.528,0.371c-0.228,0.204-0.48,0.372-0.66,0.432c-0.12,0.036-0.216,0.061-0.348,0.061
			c-0.06,0-0.132-0.013-0.216-0.024c-0.228-0.036-0.551-0.191-0.647-0.239c0.144,0.18,0.204,0.323,0.36,0.455
			c0.168,0.132,0.504,0.312,0.78,0.36c0.275,0.048,0.443,0.144,0.492,0.228c0.024,0.024,0.036,0.06,0.036,0.096
			c0,0.084-0.072,0.216-0.264,0.348c-0.288,0.181-0.444,0.229-0.6,0.492c-0.156,0.264-0.168,0.492-0.252,0.684
			c-0.084,0.18-0.192,0.516-0.264,0.611c0.12-0.071,0.456-0.18,0.635-0.264c0.192-0.084,0.42-0.096,0.684-0.252
			c0.264-0.155,0.312-0.312,0.492-0.6c0.132-0.191,0.264-0.264,0.348-0.264c0.036,0,0.072,0.012,0.096,0.036
			c0.084,0.048,0.18,0.216,0.228,0.491c0.048,0.276,0.228,0.612,0.36,0.78c0.132,0.155,0.276,0.216,0.479,0.371
			c-0.06-0.084-0.228-0.419-0.264-0.659c-0.012-0.084-0.024-0.156-0.024-0.216c0-0.132,0.024-0.228,0.06-0.348
			c0.06-0.181,0.228-0.432,0.432-0.66c0.204-0.228,0.324-0.384,0.372-0.527c0.036-0.084,0.072-0.192,0.072-0.312
			c0-0.072-0.012-0.156-0.048-0.24c-0.084-0.204-0.252-0.336-0.252-0.456c0.036-0.155,0.156-0.216,0.252-0.216
			c0.144,0.036,0.54,0.24,0.743,0.432c0.204,0.192,0.408,0.36,0.552,0.492c0.144,0.132,0.3,0.575,0.444,0.756
			c0.144,0.18,0.264,0.947,0.276,1.067c0.012,0.084,0.012,0.264,0.012,0.563v0.432c-0.012,0.552-0.012,0.672-0.036,0.84
			c-0.012,0.107-0.024,0.203-0.024,0.275c0,0.192-0.012,0.336-0.012,0.479c0.012,0.108,0.036,0.324,0.036,0.468
			c0,0.145,0.024,0.408,0.024,0.636v0.996c-0.012,0.096-0.012,0.695-0.012,0.935c0,0.192,0.036,0.301,0.036,0.408
			c0,0.024-0.012,0.048-0.012,0.072c-0.012,0.084-0.024,0.228-0.024,0.348c0,0.084,0.012,0.18,0.012,0.228h-0.6
			c0.012-0.132,0.024-0.239,0.024-0.336c0-0.252-0.048-0.396-0.048-0.443c0-0.072-0.024-0.492-0.024-0.552
			c0-0.072,0.024-0.708,0.024-0.84c0-0.144,0-0.323-0.024-0.407c-0.012-0.024-0.012-0.072-0.012-0.132
			c0-0.108,0.012-0.252,0.036-0.396c0.012-0.071,0.012-0.132,0.012-0.18c0-0.107-0.012-0.216-0.024-0.407
			c0-0.312,0.048-0.42,0.048-0.828c0-0.432,0.012-0.756,0.012-0.911c0-0.132-0.036-0.528-0.036-0.779
			c0-0.168,0.012-0.217,0.012-0.265c0-0.18-0.036-0.384-0.036-0.552c0-0.216-0.096-0.455-0.12-0.552
			c-0.216-0.491-0.636-0.899-0.648-0.863c0,0.096,0.156,0.588,0.156,0.828c-0.024,0.371-0.3,0.563-0.456,0.72
			c-0.156,0.144-0.528,0.287-0.563,0.443c-0.024,0.107-0.084,0.252-0.084,0.384c0,0.048,0.012,0.107,0.036,0.144
			c0.084,0.12,0.192,0.264,0.348,0.264c0.204-0.012,0.456-0.18,0.479-0.3c0-0.155-0.048-0.335-0.072-0.359
			c-0.012-0.024,0.516,0.204,0.516,0.54s-0.132,0.455-0.456,0.563c-0.144,0.048-0.288,0.072-0.42,0.072
			c-0.204,0-0.396-0.049-0.528-0.108c-0.228-0.084-0.324-0.072-0.479-0.18c-0.144-0.096-0.168-0.24-0.312-0.312
			c-0.144-0.06-0.156-0.071-0.252-0.203c-0.096-0.132-0.24-0.468-0.276-0.576c-0.024-0.096-0.072-0.323-0.072-0.323
			s-0.072,0.312-0.504,0.6c-0.288,0.191-0.695,0.203-0.911,0.3c-0.228,0.096-0.42,0.084-0.564,0.191
			c-0.06,0.036-0.192,0.108-0.312,0.108c-0.06,0-0.108-0.013-0.156-0.061C109.069,9.162,109.045,9.101,109.045,9.042z
			 M113.494,7.375c-0.06,0.048-0.083,0.048-0.348,0.336c-0.216,0.239-0.276,0.479-0.276,0.671c0,0.048,0.012,0.084,0.012,0.12
			c0.108-0.264,0.324-0.396,0.432-0.552c0.096-0.168,0.3-0.191,0.36-0.359c0.024-0.084,0.072-0.204,0.072-0.36
			c0-0.096-0.024-0.203-0.06-0.3C113.626,7.111,113.554,7.302,113.494,7.375z M111.108,4.616c-0.156,0-0.276,0.048-0.36,0.072
			c-0.168,0.06-0.192,0.264-0.36,0.359c-0.156,0.108-0.288,0.324-0.552,0.432c0.036,0,0.072,0.013,0.12,0.013
			c0.191,0,0.432-0.061,0.671-0.276c0.288-0.264,0.288-0.288,0.336-0.348c0.072-0.06,0.264-0.132,0.444-0.192
			C111.311,4.64,111.203,4.616,111.108,4.616z"/>
		<path class="st1" d="M8.519,9.525c-0.096,0-0.18-0.072-0.288-0.108C8.063,9.345,7.895,9.321,7.668,9.225
			c-0.216-0.096-0.624-0.108-0.911-0.3C6.348,8.649,6.253,8.362,6.253,8.338C6.24,8.374,6.192,8.565,6.18,8.649
			c-0.036,0.108-0.18,0.444-0.275,0.576C5.808,9.357,5.797,9.369,5.653,9.429C5.509,9.501,5.485,9.645,5.341,9.741
			c-0.155,0.108-0.252,0.096-0.479,0.18c-0.132,0.06-0.324,0.108-0.527,0.108c-0.132,0-0.276-0.024-0.42-0.072
			C3.59,9.849,3.458,9.729,3.458,9.393s0.528-0.563,0.516-0.54C3.95,8.877,3.902,9.057,3.902,9.177
			c0.023,0.156,0.275,0.324,0.443,0.336c0.191,0,0.3-0.144,0.384-0.264c0.024-0.036,0.036-0.096,0.036-0.144
			c0-0.132-0.061-0.276-0.084-0.384c-0.036-0.156-0.408-0.3-0.563-0.444C3.962,8.122,3.686,7.93,3.662,7.582
			c0-0.252,0.156-0.755,0.156-0.839c-0.108,0-0.444,0.419-0.648,0.852C3.146,7.69,3.051,7.93,3.051,8.146
			c0,0.204-0.145,0.456-0.145,0.647C2.93,9.045,2.954,9.525,2.954,9.681c0,0.156,0.013,0.54,0.013,0.971
			c0,0.408,0.048,0.516,0.048,0.756v0.072c-0.013,0.192-0.024,0.3-0.024,0.408c0,0.048,0,0.108,0.012,0.18
			c0.024,0.144,0.036,0.288,0.036,0.396c0,0.06,0,0.108-0.012,0.132c-0.024,0.084-0.024,0.264-0.024,0.408
			c0,0.132,0.061,0.744,0.061,0.816c0,0.06-0.024,0.479-0.024,0.551c0,0.048-0.048,0.192-0.048,0.444
			c0,0.096,0.012,0.204,0.024,0.336h-0.6c0-0.048,0.012-0.144,0.012-0.228c0-0.12-0.012-0.264-0.024-0.348
			c0-0.024-0.012-0.048-0.012-0.072c0-0.108,0.036-0.216,0.036-0.408c0-0.24,0-0.408-0.012-0.504v-1.403
			c0-0.228,0.023-0.492,0.023-0.636c0-0.144,0.024-0.36,0.036-0.432c0-0.096-0.036-0.24-0.036-0.336c0-0.024,0.013-0.048,0.013-0.06
			c0.012-0.036,0.012-0.072,0.012-0.12c0-0.072-0.012-0.168-0.024-0.276c-0.023-0.168-0.023-0.288-0.036-0.839V9.057
			c0-0.3,0-0.479,0.013-0.563c0.012-0.12,0.132-0.888,0.275-1.067c0.145-0.18,0.3-0.624,0.444-0.756
			c0.144-0.132,0.348-0.3,0.552-0.492c0.203-0.192,0.6-0.396,0.707-0.432c0.132,0,0.252,0.06,0.288,0.18
			c0,0.156-0.168,0.288-0.252,0.492c-0.036,0.084-0.048,0.167-0.048,0.24c0,0.12,0.036,0.228,0.072,0.312
			c0.048,0.144,0.167,0.3,0.371,0.528c0.204,0.228,0.372,0.48,0.432,0.66c0.036,0.12,0.061,0.216,0.061,0.348
			c0,0.06-0.013,0.132-0.024,0.216C5.257,8.949,5.101,9.273,5.053,9.369c0.18-0.144,0.323-0.204,0.455-0.36
			c0.132-0.168,0.312-0.504,0.36-0.78c0.048-0.275,0.144-0.443,0.228-0.492c0.024-0.024,0.06-0.036,0.096-0.036
			c0.084,0,0.216,0.072,0.348,0.264c0.181,0.288,0.229,0.444,0.492,0.6c0.264,0.156,0.492,0.168,0.684,0.252
			c0.18,0.084,0.516,0.192,0.611,0.264c-0.071-0.12-0.18-0.456-0.264-0.635c-0.084-0.192-0.096-0.42-0.252-0.684
			C7.656,7.498,7.5,7.45,7.212,7.27C7.02,7.138,6.948,7.006,6.948,6.922c0-0.036,0.012-0.072,0.036-0.096
			C7.032,6.743,7.2,6.646,7.475,6.599c0.276-0.048,0.612-0.228,0.78-0.36c0.155-0.132,0.216-0.276,0.371-0.479
			c-0.084,0.06-0.419,0.228-0.659,0.264C7.884,6.035,7.811,6.047,7.752,6.047c-0.132,0-0.228-0.024-0.348-0.06
			c-0.181-0.06-0.432-0.228-0.66-0.432C6.516,5.352,6.36,5.231,6.217,5.184C6.133,5.147,6.024,5.111,5.905,5.111
			c-0.072,0-0.156,0.012-0.24,0.048C5.461,5.243,5.329,5.411,5.209,5.411C5.053,5.375,4.993,5.255,4.993,5.159
			c0.036-0.144,0.24-0.54,0.432-0.743c0.192-0.204,0.36-0.408,0.492-0.552c0.132-0.144,0.575-0.3,0.756-0.444
			C6.852,3.276,7.62,3.157,7.74,3.145c0.084-0.012,0.264-0.012,0.563-0.012h0.432c0.552,0.012,0.672,0.012,0.84,0.036
			C9.682,3.181,9.778,3.192,9.85,3.192c0.192,0,0.336,0.012,0.479,0.012c0.108-0.012,0.324-0.036,0.468-0.036
			c0.145,0,0.408-0.024,0.636-0.024h0.996c0.096,0.012,0.695,0.012,0.935,0.012c0.192,0,0.301-0.036,0.408-0.036
			c0.024,0,0.048,0.012,0.072,0.012c0.084,0.012,0.228,0.024,0.348,0.024c0.084,0,0.18-0.012,0.228-0.012v0.6
			C14.288,3.732,14.18,3.72,14.084,3.72c-0.252,0-0.396,0.048-0.443,0.048c-0.072,0-0.492,0.024-0.552,0.024
			c-0.072,0-0.708-0.024-0.84-0.024c-0.144,0-0.323,0-0.407,0.024c-0.024,0.012-0.072,0.012-0.132,0.012
			c-0.108,0-0.252-0.012-0.396-0.036c-0.071-0.012-0.132-0.012-0.18-0.012c-0.107,0-0.216,0.012-0.407,0.024
			c-0.312,0-0.42-0.048-0.828-0.048c-0.432,0-0.756-0.012-0.911-0.012c-0.132,0-0.528,0.036-0.779,0.036
			c-0.168,0-0.217-0.012-0.265-0.012c-0.18,0-0.384,0.036-0.552,0.036c-0.216,0-0.455,0.096-0.552,0.12
			C6.348,4.116,5.94,4.536,5.976,4.548c0.096,0,0.588-0.156,0.828-0.156c0.371,0.024,0.563,0.3,0.72,0.456
			c0.144,0.156,0.287,0.528,0.443,0.563c0.107,0.024,0.252,0.084,0.384,0.084c0.048,0,0.107-0.012,0.144-0.036
			c0.12-0.084,0.264-0.192,0.264-0.348c-0.012-0.204-0.18-0.456-0.3-0.479c-0.155,0-0.335,0.048-0.359,0.072
			c-0.024,0.012,0.204-0.516,0.54-0.516S9.094,4.32,9.203,4.644c0.048,0.144,0.072,0.288,0.072,0.42
			c0,0.204-0.049,0.396-0.108,0.528c-0.084,0.228-0.072,0.324-0.18,0.479c-0.096,0.144-0.24,0.168-0.312,0.312
			c-0.06,0.144-0.071,0.156-0.203,0.252C8.34,6.73,8.004,6.874,7.895,6.911C7.8,6.935,7.572,6.982,7.572,6.982
			s0.312,0.072,0.6,0.504c0.191,0.288,0.203,0.695,0.3,0.911c0.096,0.228,0.084,0.42,0.191,0.564
			c0.036,0.06,0.108,0.192,0.108,0.312c0,0.06-0.013,0.108-0.061,0.156C8.639,9.501,8.579,9.525,8.519,9.525z M6.852,5.076
			C6.9,5.135,6.9,5.159,7.188,5.423c0.239,0.216,0.479,0.276,0.671,0.276c0.048,0,0.084-0.012,0.12-0.012
			C7.716,5.579,7.584,5.363,7.427,5.255c-0.168-0.096-0.191-0.3-0.359-0.36c-0.084-0.024-0.204-0.072-0.36-0.072
			c-0.096,0-0.203,0.024-0.3,0.06C6.589,4.943,6.78,5.016,6.852,5.076z M4.094,7.462c0,0.156,0.048,0.276,0.072,0.36
			c0.06,0.168,0.264,0.192,0.359,0.36C4.634,8.338,4.849,8.47,4.957,8.733c0-0.036,0.013-0.072,0.013-0.12
			c0-0.191-0.061-0.432-0.276-0.671C4.429,7.654,4.405,7.654,4.345,7.606c-0.06-0.072-0.132-0.264-0.192-0.444
			C4.118,7.258,4.094,7.366,4.094,7.462z"/>
	</g>
	<g>
		<path class="st1" d="M8.795,27.678c0,0.096-0.072,0.18-0.108,0.288c-0.072,0.168-0.096,0.336-0.192,0.563
			c-0.096,0.216-0.108,0.624-0.3,0.911c-0.276,0.408-0.563,0.504-0.587,0.504c0.036,0.013,0.228,0.061,0.312,0.072
			c0.108,0.036,0.444,0.18,0.576,0.275c0.132,0.097,0.144,0.108,0.204,0.252c0.072,0.145,0.216,0.168,0.312,0.312
			c0.108,0.155,0.096,0.252,0.18,0.479c0.06,0.132,0.108,0.324,0.108,0.527c0,0.132-0.024,0.276-0.072,0.42
			c-0.108,0.324-0.228,0.456-0.564,0.456s-0.563-0.528-0.54-0.516c0.024,0.023,0.204,0.071,0.324,0.071
			c0.156-0.023,0.324-0.275,0.336-0.443c0-0.191-0.144-0.3-0.264-0.384c-0.036-0.024-0.096-0.036-0.144-0.036
			c-0.132,0-0.276,0.061-0.384,0.084c-0.156,0.036-0.3,0.408-0.444,0.563c-0.156,0.156-0.348,0.432-0.696,0.456
			c-0.252,0-0.755-0.156-0.839-0.156c0,0.108,0.419,0.444,0.852,0.648c0.096,0.023,0.335,0.119,0.552,0.119
			c0.204,0,0.456,0.145,0.647,0.145c0.252-0.024,0.731-0.048,0.888-0.048c0.156,0,0.54-0.013,0.971-0.013
			c0.408,0,0.516-0.048,0.756-0.048h0.072c0.192,0.013,0.3,0.024,0.408,0.024c0.048,0,0.108,0,0.18-0.012
			c0.144-0.024,0.288-0.036,0.396-0.036c0.06,0,0.108,0,0.132,0.012c0.084,0.024,0.264,0.024,0.408,0.024
			c0.132,0,0.744-0.061,0.816-0.061c0.06,0,0.479,0.024,0.551,0.024c0.048,0,0.192,0.048,0.444,0.048
			c0.096,0,0.204-0.012,0.336-0.024v0.6c-0.048,0-0.144-0.012-0.228-0.012c-0.12,0-0.264,0.012-0.348,0.024
			c-0.024,0-0.048,0.012-0.072,0.012c-0.108,0-0.216-0.036-0.408-0.036c-0.24,0-0.408,0-0.504,0.012h-1.403
			c-0.228,0-0.492-0.023-0.636-0.023c-0.144,0-0.36-0.024-0.432-0.036c-0.096,0-0.24,0.036-0.336,0.036
			c-0.024,0-0.048-0.013-0.06-0.013c-0.036-0.012-0.072-0.012-0.12-0.012c-0.072,0-0.168,0.012-0.276,0.024
			c-0.168,0.023-0.288,0.023-0.839,0.036H8.327c-0.3,0-0.479,0-0.563-0.013c-0.12-0.012-0.888-0.132-1.067-0.275
			c-0.18-0.145-0.624-0.3-0.756-0.444c-0.132-0.144-0.3-0.348-0.492-0.552c-0.192-0.203-0.396-0.6-0.432-0.707
			c0-0.132,0.06-0.252,0.18-0.288c0.156,0,0.288,0.168,0.492,0.252c0.084,0.036,0.167,0.048,0.24,0.048
			c0.12,0,0.228-0.036,0.312-0.072c0.144-0.048,0.3-0.167,0.528-0.371c0.228-0.204,0.48-0.372,0.66-0.432
			c0.12-0.036,0.216-0.061,0.348-0.061c0.06,0,0.132,0.013,0.216,0.024c0.228,0.036,0.551,0.191,0.647,0.239
			c-0.144-0.18-0.204-0.323-0.36-0.455c-0.168-0.132-0.504-0.312-0.78-0.36C7.224,30.28,7.056,30.184,7.008,30.1
			c-0.024-0.024-0.036-0.06-0.036-0.096c0-0.084,0.072-0.216,0.264-0.348c0.288-0.181,0.444-0.229,0.6-0.492
			c0.156-0.264,0.168-0.492,0.252-0.684c0.084-0.18,0.192-0.516,0.264-0.611c-0.12,0.071-0.456,0.18-0.635,0.264
			c-0.192,0.084-0.42,0.096-0.684,0.252c-0.264,0.155-0.312,0.312-0.492,0.6c-0.132,0.191-0.264,0.264-0.348,0.264
			c-0.036,0-0.072-0.012-0.096-0.036c-0.084-0.048-0.18-0.216-0.228-0.491c-0.048-0.276-0.228-0.612-0.36-0.78
			c-0.132-0.155-0.276-0.216-0.479-0.371c0.06,0.084,0.228,0.419,0.264,0.659c0.012,0.084,0.024,0.156,0.024,0.216
			c0,0.132-0.024,0.228-0.06,0.348c-0.06,0.181-0.228,0.432-0.432,0.66c-0.204,0.228-0.324,0.384-0.372,0.527
			c-0.036,0.084-0.072,0.192-0.072,0.312c0,0.072,0.012,0.156,0.048,0.24c0.084,0.204,0.252,0.336,0.252,0.456
			c-0.036,0.155-0.156,0.216-0.252,0.216c-0.144-0.036-0.54-0.24-0.743-0.432c-0.204-0.192-0.408-0.36-0.552-0.492
			c-0.144-0.132-0.3-0.575-0.444-0.756c-0.144-0.18-0.264-0.947-0.276-1.067c-0.012-0.084-0.012-0.264-0.012-0.563v-0.432
			c0.012-0.552,0.012-0.672,0.036-0.84c0.012-0.107,0.024-0.203,0.024-0.275c0-0.192,0.012-0.336,0.012-0.479
			c-0.012-0.108-0.036-0.324-0.036-0.468c0-0.145-0.024-0.408-0.024-0.636v-0.996c0.012-0.096,0.012-0.695,0.012-0.935
			c0-0.192-0.036-0.301-0.036-0.408c0-0.024,0.012-0.048,0.012-0.072c0.012-0.084,0.024-0.228,0.024-0.348
			c0-0.084-0.012-0.18-0.012-0.228h0.6c-0.012,0.132-0.024,0.239-0.024,0.336c0,0.252,0.048,0.396,0.048,0.443
			c0,0.072,0.024,0.492,0.024,0.552c0,0.072-0.024,0.708-0.024,0.84c0,0.144,0,0.323,0.024,0.407
			c0.012,0.024,0.012,0.072,0.012,0.132c0,0.108-0.012,0.252-0.036,0.396c-0.012,0.071-0.012,0.132-0.012,0.18
			c0,0.107,0.012,0.216,0.024,0.407c0,0.312-0.048,0.42-0.048,0.828c0,0.432-0.012,0.756-0.012,0.911
			c0,0.132,0.036,0.528,0.036,0.779c0,0.168-0.012,0.217-0.012,0.265c0,0.18,0.036,0.384,0.036,0.552
			c0,0.216,0.096,0.455,0.12,0.552c0.216,0.491,0.636,0.899,0.648,0.863c0-0.096-0.156-0.588-0.156-0.828
			c0.024-0.371,0.3-0.563,0.456-0.72c0.156-0.144,0.528-0.287,0.563-0.443c0.024-0.107,0.084-0.252,0.084-0.384
			c0-0.048-0.012-0.107-0.036-0.144c-0.084-0.12-0.192-0.264-0.348-0.264c-0.204,0.012-0.456,0.18-0.479,0.3
			c0,0.155,0.048,0.335,0.072,0.359c0.012,0.024-0.516-0.204-0.516-0.54s0.132-0.455,0.456-0.563
			c0.144-0.048,0.288-0.072,0.42-0.072c0.204,0,0.396,0.049,0.528,0.108c0.228,0.084,0.324,0.072,0.479,0.18
			c0.144,0.096,0.168,0.24,0.312,0.312c0.144,0.06,0.156,0.071,0.252,0.203C6,27.857,6.144,28.193,6.18,28.302
			c0.024,0.096,0.072,0.323,0.072,0.323s0.072-0.312,0.504-0.6c0.288-0.191,0.695-0.203,0.911-0.3
			c0.228-0.096,0.42-0.084,0.564-0.191c0.06-0.036,0.192-0.108,0.312-0.108c0.06,0,0.108,0.013,0.156,0.061
			C8.771,27.558,8.795,27.618,8.795,27.678z M4.345,29.345c0.06-0.048,0.083-0.048,0.348-0.336c0.216-0.239,0.276-0.479,0.276-0.671
			c0-0.048-0.012-0.084-0.012-0.12c-0.108,0.264-0.324,0.396-0.432,0.552c-0.096,0.168-0.3,0.191-0.36,0.359
			c-0.024,0.084-0.072,0.204-0.072,0.36c0,0.096,0.024,0.203,0.06,0.3C4.213,29.608,4.285,29.417,4.345,29.345z M6.732,32.103
			c0.156,0,0.276-0.048,0.36-0.072c0.168-0.06,0.192-0.264,0.36-0.359c0.156-0.108,0.288-0.324,0.552-0.432
			c-0.036,0-0.072-0.013-0.12-0.013c-0.191,0-0.432,0.061-0.671,0.276c-0.288,0.264-0.288,0.288-0.336,0.348
			c-0.072,0.06-0.264,0.132-0.444,0.192C6.528,32.079,6.636,32.103,6.732,32.103z"/>
		<path class="st1" d="M109.32,27.402c0.096,0,0.18,0.072,0.288,0.108c0.168,0.072,0.336,0.096,0.563,0.192
			c0.216,0.096,0.624,0.108,0.911,0.3c0.408,0.276,0.504,0.563,0.504,0.587c0.013-0.036,0.061-0.228,0.072-0.312
			c0.036-0.108,0.18-0.444,0.275-0.576c0.097-0.132,0.108-0.144,0.252-0.204c0.145-0.072,0.168-0.216,0.312-0.312
			c0.155-0.108,0.252-0.096,0.479-0.18c0.132-0.06,0.324-0.108,0.527-0.108c0.132,0,0.276,0.024,0.42,0.072
			c0.324,0.108,0.456,0.228,0.456,0.564s-0.528,0.563-0.516,0.54c0.023-0.024,0.071-0.204,0.071-0.324
			c-0.023-0.156-0.275-0.324-0.443-0.336c-0.191,0-0.3,0.144-0.384,0.264c-0.024,0.036-0.036,0.096-0.036,0.144
			c0,0.132,0.061,0.276,0.084,0.384c0.036,0.156,0.408,0.3,0.563,0.444c0.156,0.156,0.432,0.348,0.456,0.696
			c0,0.252-0.156,0.755-0.156,0.839c0.108,0,0.444-0.419,0.648-0.852c0.023-0.096,0.119-0.335,0.119-0.552
			c0-0.204,0.145-0.456,0.145-0.647c-0.024-0.252-0.048-0.731-0.048-0.888c0-0.156-0.013-0.54-0.013-0.971
			c0-0.408-0.048-0.516-0.048-0.756v-0.072c0.013-0.192,0.024-0.3,0.024-0.408c0-0.048,0-0.108-0.012-0.18
			c-0.024-0.144-0.036-0.288-0.036-0.396c0-0.06,0-0.108,0.012-0.132c0.024-0.084,0.024-0.264,0.024-0.408
			c0-0.132-0.061-0.744-0.061-0.816c0-0.06,0.024-0.479,0.024-0.551c0-0.048,0.048-0.192,0.048-0.444
			c0-0.096-0.012-0.204-0.024-0.336h0.6c0,0.048-0.012,0.144-0.012,0.228c0,0.12,0.012,0.264,0.024,0.348
			c0,0.024,0.012,0.048,0.012,0.072c0,0.108-0.036,0.216-0.036,0.408c0,0.24,0,0.408,0.012,0.504v1.403
			c0,0.228-0.023,0.492-0.023,0.636c0,0.144-0.024,0.36-0.036,0.432c0,0.096,0.036,0.24,0.036,0.336c0,0.024-0.013,0.048-0.013,0.06
			c-0.012,0.036-0.012,0.072-0.012,0.12c0,0.072,0.012,0.168,0.024,0.276c0.023,0.168,0.023,0.288,0.036,0.839v0.432
			c0,0.3,0,0.479-0.013,0.563c-0.012,0.12-0.132,0.888-0.275,1.067c-0.145,0.18-0.3,0.624-0.444,0.756
			c-0.144,0.132-0.348,0.3-0.552,0.492c-0.203,0.192-0.6,0.396-0.707,0.432c-0.132,0-0.252-0.06-0.288-0.18
			c0-0.156,0.168-0.288,0.252-0.492c0.036-0.084,0.048-0.167,0.048-0.24c0-0.12-0.036-0.228-0.072-0.312
			c-0.048-0.144-0.167-0.3-0.371-0.528c-0.204-0.228-0.372-0.48-0.432-0.66c-0.036-0.12-0.061-0.216-0.061-0.348
			c0-0.06,0.013-0.132,0.024-0.216c0.036-0.228,0.191-0.551,0.239-0.647c-0.18,0.144-0.323,0.204-0.455,0.36
			c-0.132,0.168-0.312,0.504-0.36,0.78c-0.048,0.275-0.144,0.443-0.228,0.492c-0.024,0.024-0.06,0.036-0.096,0.036
			c-0.084,0-0.216-0.072-0.348-0.264c-0.181-0.288-0.229-0.444-0.492-0.6c-0.264-0.156-0.492-0.168-0.684-0.252
			c-0.18-0.084-0.516-0.192-0.611-0.264c0.071,0.12,0.18,0.456,0.264,0.635c0.084,0.192,0.096,0.42,0.252,0.684
			c0.155,0.264,0.312,0.312,0.6,0.492c0.191,0.132,0.264,0.264,0.264,0.348c0,0.036-0.012,0.072-0.036,0.096
			c-0.048,0.084-0.216,0.18-0.491,0.228c-0.276,0.048-0.612,0.228-0.78,0.36c-0.155,0.132-0.216,0.276-0.371,0.479
			c0.084-0.06,0.419-0.228,0.659-0.264c0.084-0.012,0.156-0.024,0.216-0.024c0.132,0,0.228,0.024,0.348,0.06
			c0.181,0.06,0.432,0.228,0.66,0.432c0.228,0.204,0.384,0.324,0.527,0.372c0.084,0.036,0.192,0.072,0.312,0.072
			c0.072,0,0.156-0.012,0.24-0.048c0.204-0.084,0.336-0.252,0.456-0.252c0.155,0.036,0.216,0.156,0.216,0.252
			c-0.036,0.144-0.24,0.54-0.432,0.743c-0.192,0.204-0.36,0.408-0.492,0.552c-0.132,0.144-0.575,0.3-0.756,0.444
			c-0.18,0.144-0.947,0.264-1.067,0.276c-0.084,0.012-0.264,0.012-0.563,0.012h-0.432c-0.552-0.012-0.672-0.012-0.84-0.036
			c-0.107-0.012-0.203-0.024-0.275-0.024c-0.192,0-0.336-0.012-0.479-0.012c-0.108,0.012-0.324,0.036-0.468,0.036
			c-0.145,0-0.408,0.024-0.636,0.024h-0.996c-0.096-0.012-0.695-0.012-0.935-0.012c-0.192,0-0.301,0.036-0.408,0.036
			c-0.024,0-0.048-0.012-0.072-0.012c-0.084-0.012-0.228-0.024-0.348-0.024c-0.084,0-0.18,0.012-0.228,0.012v-0.6
			c0.132,0.012,0.239,0.024,0.336,0.024c0.252,0,0.396-0.048,0.443-0.048c0.072,0,0.492-0.024,0.552-0.024
			c0.072,0,0.708,0.024,0.84,0.024c0.144,0,0.323,0,0.407-0.024c0.024-0.012,0.072-0.012,0.132-0.012
			c0.108,0,0.252,0.012,0.396,0.036c0.071,0.012,0.132,0.012,0.18,0.012c0.107,0,0.216-0.012,0.407-0.024
			c0.312,0,0.42,0.048,0.828,0.048c0.432,0,0.756,0.012,0.911,0.012c0.132,0,0.528-0.036,0.779-0.036
			c0.168,0,0.217,0.012,0.265,0.012c0.18,0,0.384-0.036,0.552-0.036c0.216,0,0.455-0.096,0.552-0.12
			c0.491-0.216,0.899-0.636,0.863-0.648c-0.096,0-0.588,0.156-0.828,0.156c-0.371-0.024-0.563-0.3-0.72-0.456
			c-0.144-0.156-0.287-0.528-0.443-0.563c-0.107-0.024-0.252-0.084-0.384-0.084c-0.048,0-0.107,0.012-0.144,0.036
			c-0.12,0.084-0.264,0.192-0.264,0.348c0.012,0.204,0.18,0.456,0.3,0.479c0.155,0,0.335-0.048,0.359-0.072
			c0.024-0.012-0.204,0.516-0.54,0.516s-0.455-0.132-0.563-0.456c-0.048-0.144-0.072-0.288-0.072-0.42
			c0-0.204,0.049-0.396,0.108-0.528c0.084-0.228,0.072-0.324,0.18-0.479c0.096-0.144,0.24-0.168,0.312-0.312
			c0.06-0.144,0.071-0.156,0.203-0.252c0.132-0.096,0.468-0.24,0.576-0.276c0.096-0.024,0.323-0.072,0.323-0.072
			s-0.312-0.072-0.6-0.504c-0.191-0.288-0.203-0.695-0.3-0.911c-0.096-0.228-0.084-0.42-0.191-0.564
			c-0.036-0.06-0.108-0.192-0.108-0.312c0-0.06,0.013-0.108,0.061-0.156C109.2,27.426,109.26,27.402,109.32,27.402z M110.987,31.851
			c-0.048-0.06-0.048-0.083-0.336-0.348c-0.239-0.216-0.479-0.276-0.671-0.276c-0.048,0-0.084,0.012-0.12,0.012
			c0.264,0.108,0.396,0.324,0.552,0.432c0.168,0.096,0.191,0.3,0.359,0.36c0.084,0.024,0.204,0.072,0.36,0.072
			c0.096,0,0.203-0.024,0.3-0.06C111.251,31.984,111.059,31.912,110.987,31.851z M113.746,29.465c0-0.156-0.048-0.276-0.072-0.36
			c-0.06-0.168-0.264-0.192-0.359-0.36c-0.108-0.156-0.324-0.288-0.432-0.552c0,0.036-0.013,0.072-0.013,0.12
			c0,0.191,0.061,0.432,0.276,0.671c0.264,0.288,0.288,0.288,0.348,0.336c0.06,0.072,0.132,0.264,0.192,0.444
			C113.721,29.669,113.746,29.561,113.746,29.465z"/>
	</g>
	<g>
		<g>
			<g>
				<path class="st1" d="M9.994,33.523c0.898,0,0.898-0.021,1.797-0.021c0.898,0,0.898-0.007,1.797-0.007
					c0.899,0,0.899,0.026,1.797,0.026c0.899,0,0.899-0.093,1.798-0.093c0.899,0,0.899,0.095,1.799,0.095c0.9,0,0.9-0.035,1.8-0.035
					c0.9,0,0.9,0.025,1.799,0.025c0.899,0,0.899-0.008,1.798-0.008c0.899,0,0.899-0.021,1.798-0.021
					c0.899,0,0.899-0.083,1.798-0.083c0.899,0,0.899-0.007,1.798-0.007c0.899,0,0.899,0.033,1.799,0.033c0.9,0,0.9,0.021,1.8,0.021
					c0.9,0,0.9-0.048,1.8-0.048c0.9,0,0.9,0.082,1.799,0.082c0.899,0,0.899,0.011,1.799,0.011c0.899,0,0.899,0.033,1.799,0.033
					c0.9,0,0.9-0.114,1.799-0.114c0.9,0,0.9-0.012,1.801-0.012c0.9,0,0.9,0.033,1.8,0.033c0.9,0,0.9-0.012,1.799-0.012
					c0.9,0,0.9,0.025,1.799,0.025c0.9,0,0.9-0.039,1.8-0.039c0.901,0,0.901,0.03,1.801,0.03c0.899,0,0.899-0.043,1.798-0.043
					c0.898,0,0.898,0.112,1.796,0.112c0.898,0,0.898-0.086,1.795-0.086c0.898,0,0.898,0.015,1.795,0.015
					c0.898,0,0.898,0.068,1.797,0.068c0.9,0,0.9,0.012,1.8,0.012c0.901,0,0.901-0.045,1.802-0.045c0.899,0,0.899-0.073,1.799-0.073
					c0.899,0,0.899,0.116,1.798,0.116c0.899,0,0.899-0.11,1.799-0.11c0.901,0,0.901,0.035,1.802,0.035
					c0.901,0,0.901,0.072,1.801,0.072c0.9,0,0.9-0.067,1.8-0.067c0.9,0,0.9,0.029,1.801,0.029c0.901,0,0.901-0.077,1.803-0.077
					c0.9,0,0.9,0.04,1.801,0.04c0.902,0,0.902,0.032,1.803,0.032c0.901,0,0.901,0.03,1.802,0.03c0.902,0,0.902,0.035,1.804,0.035
					c0.901,0,0.901-0.032,1.803-0.032c0.899,0,0.899-0.094,1.798-0.094c0.902,0,0.902,0.112,1.804,0.112
					c0.901,0,0.901-0.068,1.801-0.068c0.902,0,0.902,0.028,1.804,0.028c0.903,0,0.903,0.048,1.806,0.048
					c0.902,0,0.902-0.029,1.803-0.029c0.904,0,0.904-0.021,1.807-0.021c0.905,0,0.905,0.024,1.81,0.024s0.905-0.035,1.81-0.035"/>
			</g>
			<g>
				<path class="st1" d="M105.418,33.765c-0.859,0.263-0.907-0.03-1.805-0.03c-0.898,0-0.898-0.03-1.797-0.03
					c-0.899,0-0.899-0.035-1.797-0.035c-0.899,0-0.899,0.032-1.798,0.032c-0.899,0-0.899,0.094-1.799,0.094
					c-0.9,0-0.9-0.112-1.8-0.112c-0.9,0-0.9,0.068-1.799,0.068c-0.899,0-0.899-0.028-1.798-0.028c-0.899,0-0.899-0.048-1.798-0.048
					c-0.899,0-0.899,0.029-1.798,0.029c-0.899,0-0.899,0.021-1.798,0.021c-0.899,0-0.899-0.024-1.799-0.024
					c-0.9,0-0.9,0.035-1.8,0.035c-0.9,0-0.9-0.063-1.8-0.063c-0.9,0-0.9,0.01-1.799,0.01c-0.899,0-0.899,0.056-1.799,0.056
					c-0.899,0-0.899,0.062-1.799,0.062c-0.9,0-0.9-0.065-1.799-0.065c-0.9,0-0.9,0.058-1.801,0.058c-0.9,0-0.9-0.092-1.8-0.092
					c-0.9,0-0.9,0.049-1.799,0.049c-0.9,0-0.9-0.066-1.799-0.066c-0.9,0-0.9,0.017-1.8,0.017c-0.901,0-0.901,0.054-1.801,0.054
					c-0.899,0-0.899,0.005-1.798,0.005c-0.898,0-0.898,0.028-1.796,0.028c-0.898,0-0.898-0.122-1.795-0.122
					c-0.898,0-0.898,0.12-1.795,0.12c-0.898,0-0.898,0.018-1.797,0.018c-0.9,0-0.9-0.111-1.8-0.111c-0.901,0-0.901,0.03-1.802,0.03
					c-0.899,0-0.899,0.046-1.799,0.046c-0.899,0-0.899-0.073-1.798-0.073c-0.899,0-0.899,0.048-1.799,0.048
					c-0.901,0-0.901-0.035-1.802-0.035c-0.901,0-0.901,0.094-1.801,0.094c-0.9,0-0.9-0.095-1.8-0.095c-0.9,0-0.9-0.043-1.801-0.043
					c-0.901,0-0.901,0.017-1.803,0.017c-0.9,0-0.9,0.073-1.801,0.073c-0.902,0-0.902,0.034-1.803,0.034
					c-0.901,0-0.901-0.108-1.802-0.108c-0.902,0-0.902,0.088-1.804,0.088c-0.901,0-0.901,0.02-1.803,0.02
					c-0.899,0-0.899-0.098-1.798-0.098c-0.902,0-0.902,0.021-1.804,0.021c-0.901,0-0.901-0.038-1.801-0.038
					c-0.902,0-0.902,0.059-1.804,0.059c-0.903,0-0.903-0.007-1.806-0.007c-0.902,0-0.902,0.021-1.803,0.021
					c-0.904,0-0.904-0.034-1.807-0.034c-0.905,0-0.905-0.019-1.81-0.019s-0.956,0.346-1.822,0.082
					c-0.263-0.08-0.242-0.481,0.021-0.562c0.859-0.263,0.89-0.067,1.788-0.067c0.898,0,0.898,0.049,1.797,0.049
					c0.899,0,0.899,0.031,1.797,0.031c0.899,0,0.899-0.093,1.798-0.093c0.899,0,0.899,0,1.799,0c0.9,0,0.9,0.087,1.8,0.087
					c0.9,0,0.9,0.01,1.799,0.01c0.899,0,0.899-0.065,1.798-0.065c0.899,0,0.899-0.038,1.798-0.038c0.899,0,0.899,0.068,1.798,0.068
					c0.899,0,0.899-0.028,1.798-0.028c0.899,0,0.899,0.063,1.799,0.063c0.9,0,0.9-0.093,1.8-0.093c0.9,0,0.9,0.077,1.8,0.077
					c0.9,0,0.9,0.025,1.799,0.025c0.899,0,0.899-0.031,1.799-0.031c0.899,0,0.899,0.018,1.799,0.018c0.9,0,0.9,0.009,1.799,0.009
					c0.9,0,0.9-0.037,1.801-0.037c0.9,0,0.9-0.025,1.8-0.025c0.9,0,0.9,0.041,1.799,0.041c0.9,0,0.9,0.029,1.799,0.029
					c0.9,0,0.9-0.084,1.8-0.084c0.901,0,0.901,0.073,1.801,0.073c0.899,0,0.899,0.016,1.798,0.016c0.898,0,0.898-0.132,1.796-0.132
					c0.898,0,0.898,0.08,1.795,0.08c0.898,0,0.898-0.038,1.795-0.038c0.898,0,0.898,0.077,1.797,0.077c0.9,0,0.9-0.037,1.8-0.037
					c0.901,0,0.901,0.012,1.802,0.012c0.899,0,0.899-0.021,1.799-0.021c0.899,0,0.899-0.016,1.798-0.016
					c0.899,0,0.899,0.048,1.799,0.048c0.901,0,0.901,0.018,1.802,0.018c0.901,0,0.901-0.051,1.801-0.051c0.9,0,0.9,0.041,1.8,0.041
					c0.9,0,0.9-0.092,1.801-0.092c0.901,0,0.901,0.019,1.803,0.019c0.9,0,0.9,0.095,1.801,0.095c0.902,0,0.902-0.074,1.803-0.074
					c0.901,0,0.901,0.021,1.802,0.021c0.902,0,0.902-0.03,1.804-0.03c0.901,0,0.901,0.056,1.803,0.056
					c0.899,0,0.899-0.063,1.798-0.063c0.902,0,0.902,0.016,1.804,0.016c0.901,0,0.901,0.073,1.801,0.073
					c0.902,0,0.902-0.008,1.804-0.008c0.903,0,0.903-0.092,1.806-0.092c0.902,0,0.902,0.026,1.803,0.026
					c0.904,0,0.904,0.017,1.807,0.017c0.905,0,0.905-0.023,1.81-0.023c0.905,0,0.932-0.208,1.812,0.003
					C105.729,33.254,105.682,33.685,105.418,33.765z"/>
			</g>
		</g>
	</g>
	<g>
		<g>
			<g>
				<path class="st1" d="M9.994,3.444c0.898-0.003,0.899,0.052,1.797,0.049c0.898-0.003,0.898-0.103,1.796-0.106
					c0.899-0.003,0.899,0.012,1.797,0.009c0.899-0.003,0.899,0.006,1.798,0.003c0.899-0.003,0.899-0.019,1.799-0.021
					c0.9-0.003,0.9,0.086,1.801,0.083c0.9-0.003,0.9-0.044,1.799-0.047c0.899-0.003,0.899,0.027,1.799,0.025
					c0.899-0.003,0.899,0.005,1.798,0.002c0.899-0.003,0.899-0.081,1.798-0.084c0.899-0.003,0.899,0.022,1.798,0.02
					c0.899-0.003,0.899-0.026,1.799-0.029c0.9-0.003,0.9,0.037,1.8,0.034c0.9-0.003,0.9,0.051,1.8,0.048
					c0.9-0.003,0.9-0.023,1.799-0.026c0.899-0.003,0.899-0.01,1.799-0.012C39.67,3.39,39.67,3.416,40.57,3.413
					c0.9-0.003,0.899-0.095,1.799-0.098c0.9-0.003,0.901,0.092,1.801,0.09c0.9-0.003,0.9-0.038,1.8-0.041
					c0.9-0.003,0.9,0.023,1.799,0.02c0.9-0.003,0.9-0.01,1.799-0.013c0.9-0.003,0.9-0.024,1.8-0.026
					c0.901-0.003,0.9-0.086,1.801-0.088c0.899-0.003,0.899-0.01,1.798-0.013c0.898-0.003,0.898,0.03,1.796,0.028
					c0.898-0.003,0.898,0.018,1.795,0.015c0.898-0.003,0.898-0.051,1.795-0.054c0.898-0.003,0.899,0.08,1.797,0.077
					c0.9-0.003,0.9,0.008,1.8,0.006c0.901-0.003,0.901,0.031,1.802,0.028c0.899-0.003,0.899-0.117,1.798-0.119
					c0.899-0.003,0.899-0.015,1.798-0.018c0.899-0.003,0.899,0.03,1.799,0.028c0.901-0.003,0.901-0.015,1.802-0.018
					c0.901-0.003,0.901,0.022,1.801,0.02c0.9-0.003,0.9-0.042,1.8-0.045c0.9-0.003,0.901,0.027,1.801,0.024
					c0.901-0.003,0.901-0.045,1.803-0.048c0.9-0.003,0.901,0.109,1.801,0.106c0.902-0.003,0.901-0.089,1.803-0.092
					c0.901-0.003,0.901,0.012,1.802,0.009c0.902-0.003,0.902,0.066,1.804,0.063c0.901-0.003,0.901,0.009,1.803,0.007
					c0.899-0.003,0.899-0.047,1.798-0.05c0.902-0.003,0.902-0.075,1.804-0.078c0.901-0.003,0.901,0.113,1.802,0.11
					c0.902-0.003,0.901-0.113,1.803-0.115c0.903-0.003,0.903,0.033,1.806,0.03c0.902-0.003,0.902,0.069,1.803,0.066
					c0.904-0.003,0.903-0.07,1.807-0.072c0.905-0.003,0.905,0.026,1.81,0.023c0.905-0.003,0.905-0.079,1.81-0.082"/>
			</g>
			<g>
				<path class="st1" d="M10.004,3.692C9.74,3.613,9.749,3.313,10.012,3.231c0.858-0.266,0.879-0.114,1.778-0.117
					c0.898-0.003,0.898-0.015,1.797-0.018c0.899-0.003,0.899,0.03,1.797,0.028c0.899-0.003,0.899-0.015,1.798-0.018
					c0.899-0.003,0.9,0.022,1.799,0.02c0.9-0.003,0.9-0.042,1.8-0.045c0.9-0.003,0.9,0.027,1.8,0.024
					c0.899-0.003,0.899-0.045,1.798-0.048c0.899-0.003,0.899,0.109,1.798,0.106c0.899-0.003,0.899-0.089,1.797-0.092
					c0.899-0.003,0.899,0.012,1.798,0.009c0.899-0.003,0.9,0.066,1.799,0.063c0.9-0.003,0.9,0.009,1.8,0.007
					c0.9-0.003,0.9-0.047,1.8-0.05c0.9-0.003,0.899-0.075,1.799-0.078c0.899-0.003,0.9,0.113,1.799,0.11
					c0.899-0.003,0.899-0.113,1.798-0.115c0.9-0.003,0.9,0.033,1.799,0.03c0.9-0.003,0.901,0.069,1.801,0.066
					c0.9-0.003,0.9-0.07,1.8-0.072c0.9-0.003,0.9,0.026,1.799,0.023c0.9-0.003,0.899-0.079,1.799-0.082
					c0.9-0.003,0.9,0.037,1.8,0.035c0.901-0.003,0.901,0.029,1.801,0.026c0.899-0.003,0.899,0.028,1.798,0.025
					c0.898-0.003,0.898,0.032,1.796,0.029c0.898-0.003,0.898-0.035,1.795-0.038c0.898-0.003,0.897-0.097,1.795-0.1
					c0.898-0.003,0.899,0.109,1.797,0.107c0.9-0.003,0.9-0.07,1.799-0.073c0.901-0.003,0.901,0.026,1.802,0.023
					c0.899-0.003,0.9,0.045,1.799,0.043c0.899-0.003,0.899-0.032,1.798-0.034c0.899-0.003,0.899-0.024,1.799-0.026
					c0.901-0.003,0.901,0.021,1.802,0.018c0.901-0.003,0.901-0.037,1.801-0.04c0.9-0.003,0.9,0.06,1.8,0.057
					c0.9-0.003,0.9-0.012,1.801-0.015c0.901-0.003,0.901-0.059,1.803-0.062c0.9-0.003,0.9-0.065,1.801-0.068
					c0.902-0.003,0.902,0.062,1.803,0.059c0.901-0.003,0.901-0.061,1.802-0.063c0.902-0.003,0.902,0.089,1.804,0.087
					c0.901-0.003,0.901-0.052,1.802-0.054c0.899-0.003,0.899,0.063,1.798,0.061c0.902-0.003,0.902-0.02,1.804-0.023
					c0.901-0.003,0.9-0.056,1.801-0.059c0.902-0.003,0.902-0.008,1.804-0.01c0.903-0.003,0.903-0.031,1.806-0.034
					c0.902-0.003,0.902,0.119,1.803,0.116c0.904-0.003,0.903-0.123,1.807-0.125c0.905-0.003,0.905-0.021,1.81-0.024
					c0.905-0.003,0.932-0.157,1.798,0.103c0.264,0.079,0.274,0.419,0.011,0.5c-0.858,0.266-0.895,0.048-1.793,0.051
					c-0.898,0.003-0.899-0.07-1.797-0.068c-0.899,0.003-0.898,0.051-1.797,0.053c-0.899,0.003-0.899-0.032-1.798-0.029
					c-0.899,0.003-0.899,0.096-1.799,0.099c-0.9,0.003-0.9-0.092-1.801-0.09c-0.9,0.003-0.9-0.04-1.8-0.038
					c-0.899,0.003-0.899,0.02-1.798,0.022c-0.899,0.003-0.899,0.075-1.798,0.078c-0.899,0.003-0.899,0.036-1.798,0.039
					c-0.899,0.003-0.899-0.105-1.798-0.103c-0.899,0.003-0.899,0.091-1.799,0.094c-0.9,0.003-0.9,0.023-1.8,0.025
					c-0.9,0.003-0.9-0.095-1.801-0.093c-0.9,0.003-0.9,0.024-1.799,0.027c-0.899,0.003-0.899-0.035-1.799-0.033
					c-0.899,0.003-0.899,0.061-1.798,0.064c-0.9,0.003-0.9-0.005-1.799-0.002c-0.9,0.003-0.9,0.024-1.801,0.026
					c-0.9,0.003-0.9-0.031-1.8-0.029c-0.9,0.003-0.9-0.017-1.799-0.014c-0.9,0.003-0.899,0.087-1.799,0.089
					c-0.9,0.003-0.9-0.069-1.8-0.067c-0.901,0.003-0.9,0.071-1.801,0.074c-0.899,0.003-0.899-0.046-1.798-0.043
					c-0.898,0.003-0.898-0.029-1.796-0.026c-0.898,0.003-0.897,0.096-1.795,0.099c-0.898,0.003-0.898,0.003-1.795,0.005
					c-0.898,0.003-0.899-0.085-1.797-0.082c-0.9,0.003-0.9-0.008-1.8-0.005c-0.901,0.003-0.901,0.067-1.801,0.07
					c-0.899,0.003-0.899,0.041-1.799,0.044c-0.899,0.003-0.899-0.065-1.798-0.062c-0.899,0.003-0.899,0.03-1.799,0.033
					c-0.901,0.003-0.901-0.06-1.802-0.058c-0.901,0.003-0.9,0.096-1.801,0.099c-0.9,0.003-0.9-0.074-1.8-0.071
					c-0.9,0.003-0.901-0.023-1.801-0.02c-0.901,0.003-0.901,0.033-1.803,0.036c-0.9,0.003-0.901-0.015-1.801-0.012
					c-0.902,0.003-0.902-0.007-1.803-0.004c-0.901,0.003-0.901,0.04-1.802,0.043c-0.902,0.003-0.902,0.027-1.804,0.03
					C27.14,3.681,27.14,3.64,26.239,3.643c-0.899,0.003-0.899-0.026-1.798-0.024c-0.902,0.003-0.902,0.086-1.804,0.089
					c-0.901,0.003-0.901-0.07-1.801-0.067c-0.902,0.003-0.902-0.014-1.804-0.011c-0.903,0.003-0.902,0.135-1.805,0.137
					c-0.902,0.003-0.902-0.077-1.803-0.074c-0.904,0.003-0.904,0.04-1.807,0.043c-0.905,0.003-0.913-0.151-1.815-0.071
					C10.894,3.745,10.871,3.953,10.004,3.692z"/>
			</g>
		</g>
	</g>
	<g>
		<path class="st1" d="M3.075,22.124c-0.09,0.286-0.484,0.257-0.574-0.029c-0.286-0.907-0.033-0.933-0.033-1.884
			c0-0.95,0.025-0.95,0.025-1.899c0-0.952-0.008-0.952-0.008-1.904c0-0.953-0.021-0.953-0.021-1.907c0-0.953-0.366-1.015-0.08-1.925
			c0.09-0.286,0.632-0.288,0.722-0.002c0.286,0.907-0.03,0.971-0.03,1.922c0,0.95-0.021,0.95-0.021,1.899
			c0,0.952,0.048,0.952,0.048,1.904c0,0.953-0.186,0.961-0.082,1.909C3.129,21.175,3.361,21.214,3.075,22.124z"/>
	</g>
	<g>
		<path class="st1" d="M115.387,22.669c-0.076,0.264-0.378,0.27-0.454,0.006c-0.264-0.913-0.006-0.94-0.006-1.891
			c0-0.95,0.026-0.95,0.026-1.899c0-0.952-0.093-0.952-0.093-1.904c0-0.953,0.095-0.953,0.095-1.907s-0.3-0.984-0.036-1.899
			c0.076-0.264,0.4-0.257,0.476,0.007c0.264,0.913,0.006,0.937,0.006,1.888c0,0.95,0.021,0.95,0.021,1.899
			c0,0.952,0.083,0.952,0.083,1.904c0,0.953-0.061,0.951,0.007,1.902C115.581,21.726,115.651,21.753,115.387,22.669z"/>
	</g>
</g>
<g>
	<path class="st1" d="M28.518,21.445h-0.762h-0.773h-0.762h-0.773h-0.762h-0.773v-0.762v-0.762v-0.762v-0.773v-0.762v-0.773v-0.762
		h0.773v0.762v0.773v0.762v0.773v0.762v0.762h0.762h0.773h0.762h0.773h0.762V21.445z"/>
	<path class="st1" d="M33.897,21.445h-0.773h-0.762h-0.773h-0.762h-0.773v-0.762h0.773h0.762v-0.762v-0.762v-0.773v-0.762v-0.773
		h-0.762h-0.773v-0.762h0.773h0.762h0.773h0.762h0.773v0.762h-0.773h-0.762v0.773v0.762v0.773v0.762v0.762h0.762h0.773V21.445z"/>
	<path class="st1" d="M35.432,17.624v-0.773v-0.762h0.762v0.762v0.773H35.432z M36.194,19.159v-0.773v-0.762h0.773v0.762v0.773
		H36.194z M36.967,20.683v-0.762v-0.762h0.762v0.762v0.762H36.967z M38.503,21.445h-0.773v-0.762h0.773V21.445z M39.264,20.683
		h-0.762v-0.762v-0.762h0.762v0.762V20.683z M40.038,19.159h-0.773v-0.773v-0.762h0.773v0.762V19.159z M40.799,17.624h-0.762v-0.773
		v-0.762h0.762v0.762V17.624z"/>
	<path class="st1" d="M46.178,19.159h-0.773h-0.762H43.87h-0.762v0.762v0.762h0.762h0.773h0.762h0.773h0.762v0.762h-0.762h-0.773
		h-0.762H43.87h-0.762h-0.773v-0.762v-0.762v-0.762v-0.773v-0.762v-0.773v-0.762h0.773h0.762h0.773h0.762h0.773h0.762v0.762h-0.762
		h-0.773h-0.762H43.87h-0.762v0.773v0.762h0.762h0.773h0.762h0.773V19.159z"/>
	<path class="st1" d="M54.616,18.386v-0.762v-0.773h0.773v0.773v0.762H54.616z M54.616,20.683v-0.762h0.773v0.762H54.616z
		 M55.389,16.089h0.762h0.773h0.762h0.773v0.762h-0.773h-0.762h-0.773h-0.762V16.089z M55.389,19.159v-0.773h0.762h0.773h0.762
		h0.773v0.773h-0.773h-0.762h-0.773H55.389z M58.46,21.445h-0.773h-0.762h-0.773h-0.762v-0.762h0.762h0.773h0.762h0.773V21.445z
		 M59.221,17.624H58.46v-0.773h0.762V17.624z M59.221,20.683H58.46v-0.762v-0.762h0.762v0.762V20.683z"/>
	<path class="st1" d="M64.6,19.159h-0.773h-0.762h-0.773H61.53v0.762v0.762h0.762h0.773h0.762H64.6h0.762v0.762H64.6h-0.773h-0.762
		h-0.773H61.53h-0.773v-0.762v-0.762v-0.762v-0.773v-0.762v-0.773v-0.762h0.773h0.762h0.773h0.762H64.6h0.762v0.762H64.6h-0.773
		h-0.762h-0.773H61.53v0.773v0.762h0.762h0.773h0.762H64.6V19.159z"/>
	<path class="st1" d="M66.897,20.683v-0.762v-0.762v-0.773v-0.762v-0.773h0.773v0.773v0.762v0.773v0.762v0.762H66.897z
		 M67.671,16.089h0.762h0.773h0.762h0.773v0.762h-0.773h-0.762h-0.773h-0.762V16.089z M70.741,21.445h-0.773h-0.762h-0.773h-0.762
		v-0.762h0.762h0.773h0.762h0.773V21.445z M71.503,17.624h-0.762v-0.773h0.762V17.624z M71.503,20.683h-0.762v-0.762h0.762V20.683z"
		/>
	<path class="st1" d="M73.811,21.445h-0.773v-0.762v-0.762v-0.762v-0.773v-0.762v-0.773v-0.762h0.773h0.762h0.773h0.762h0.773v0.762
		h-0.773h-0.762h-0.773h-0.762v0.773v0.762h0.762h0.773h0.762h0.773v0.773h-0.773v0.762h-0.762v-0.762h-0.773h-0.762v0.762v0.762
		V21.445z M76.108,20.683v-0.762h0.773v0.762H76.108z M77.643,18.386h-0.762v-0.762v-0.773h0.762v0.773V18.386z M77.643,21.445
		h-0.762v-0.762h0.762V21.445z"/>
	<path class="st1" d="M83.022,19.159h-0.773h-0.762h-0.773h-0.762v0.762v0.762h0.762h0.773h0.762h0.773h0.762v0.762h-0.762h-0.773
		h-0.762h-0.773h-0.762h-0.773v-0.762v-0.762v-0.762v-0.773v-0.762v-0.773v-0.762h0.773h0.762h0.773h0.762h0.773h0.762v0.762h-0.762
		h-0.773h-0.762h-0.773h-0.762v0.773v0.762h0.762h0.773h0.762h0.773V19.159z"/>
	<path class="st1" d="M87.628,21.445h-0.773v-0.762v-0.762v-0.762v-0.773v-0.762v-0.773h-0.762h-0.773h-0.762v-0.762h0.762h0.773
		h0.762h0.773h0.762h0.773h0.762v0.762h-0.762h-0.773h-0.762v0.773v0.762v0.773v0.762v0.762V21.445z"/>
	<path class="st1" d="M93.768,19.921h-0.773v-0.762v-0.773v-0.762v-0.773v-0.762v-0.773h0.773v0.773v0.762v0.773v0.762v0.773V19.921
		z M93.768,21.445h-0.773v-0.762h0.773V21.445z"/>
</g>
</svg>
