<?xml version="1.0" encoding="utf-8"?>
<!-- Generator: Adobe Illustrator 23.1.1, SVG Export Plug-In . SVG Version: 6.00 Build 0)  -->
<svg version="1.1" id="map_x5F_base_x5F_sec_xA0_画像_1_"
	 xmlns="http://www.w3.org/2000/svg" xmlns:xlink="http://www.w3.org/1999/xlink" x="0px" y="0px" viewBox="0 0 108 27.07"
	 style="enable-background:new 0 0 108 27.07;" xml:space="preserve">
<style type="text/css">
	.st0{fill:#FFFFFF;}
	.st1{fill:#EABF40;}
</style>
<g>
	<path class="st0" d="M12.242,23.274c-0.055,0-0.587,0-1.487-0.018c-1.331-0.036-3.258-0.072-4.293-0.072c-0.041,0-0.081,0-0.122,0
		c-0.649,0-1.292,0.001-1.827,0.034c-0.615,0.038-1.098,0.056-1.311,0.056c-0.891,0-1.615-0.716-1.615-1.597
		s0.725-1.598,1.615-1.598c0.089,0,0.225,0,0.365-0.002v-9.929c-0.156-0.008-0.443-0.02-0.443-0.02
		c-0.837,0-1.537-0.701-1.537-1.596c0-0.896,0.702-1.597,1.597-1.597c0.004,0,0.008,0,0.012,0c0.083,0,0.229,0,0.632,0.02
		c0.686,0.035,1.628,0.07,2.327,0.07c0.705,0,1.657-0.036,2.556-0.071c0.39-0.019,0.536-0.019,0.619-0.019c0.004,0,0.008,0,0.012,0
		c0.896,0,1.597,0.702,1.597,1.597c0,0.896-0.702,1.598-1.597,1.598c-0.159,0.006-0.385,0.015-0.599,0.026
		c0,0,0.001,9.824,0.002,9.869h0.723c1.159,0,1.555-0.337,2.337-2.856c0.218-0.66,0.81-1.088,1.479-1.088
		c0.865,0,1.543,0.686,1.543,1.562c0,0.469-0.185,1.98-0.449,3.676C14.181,22.651,13.501,23.274,12.242,23.274z"/>
	<path class="st1" d="M9.469,21.443c2.305,0,2.953-1.477,3.691-3.853c0.018-0.055,0.072-0.091,0.126-0.091
		c0.072,0,0.126,0.055,0.126,0.145c0,0.27-0.126,1.494-0.432,3.457c-0.108,0.72-0.252,0.756-0.738,0.756
		c-0.054,0-0.576,0-1.458-0.018c-1.333-0.036-3.277-0.072-4.321-0.072c-0.72,0-1.44,0-2.035,0.036
		c-0.576,0.036-1.026,0.054-1.225,0.054c-0.126,0-0.198-0.09-0.198-0.18c0-0.091,0.072-0.181,0.198-0.181
		c1.603,0,1.783-0.054,1.783-1.116V9.902c0-1.081-0.036-1.116-1.801-1.188c-0.108,0-0.18-0.072-0.18-0.18
		c0-0.09,0.054-0.18,0.18-0.18c0.072,0,0.198,0,0.576,0.018c0.703,0.036,1.675,0.072,2.395,0.072s1.692-0.036,2.611-0.072
		c0.378-0.018,0.504-0.018,0.576-0.018c0.126,0,0.18,0.09,0.18,0.18c0,0.108-0.072,0.18-0.18,0.18
		C7.362,8.785,7.327,8.821,7.327,9.902v9.975c0,1.278,0.378,1.566,1.278,1.566H9.469z"/>
	<path class="st0" d="M19.747,23.274c-0.176,0-0.684-0.018-1.25-0.057c-0.422-0.016-0.922-0.033-1.181-0.033
		c-0.274,0-0.72,0.018-1.148,0.035c-0.501,0.037-1.027,0.055-1.319,0.055c-0.896,0-1.598-0.701-1.598-1.597
		c0-0.867,0.658-1.553,1.513-1.596c0,0,0-5.715,0-5.772c-0.693-0.179-1.207-0.804-1.207-1.545c0-0.881,0.725-1.598,1.616-1.598
		c0.271,0,0.529-0.003,0.773-0.01c-0.785-0.486-1.309-1.352-1.309-2.336c0-1.516,1.242-2.75,2.768-2.75
		c1.506,0,2.732,1.233,2.732,2.75c0,0.908-0.44,1.715-1.117,2.216c0.587,0.243,0.991,0.82,0.991,1.511
		c0,0.105,0.006,0.132-0.047,0.554c-0.03,0.198-0.097,0.902-0.097,1.75v5.229c0.817,0.019,1.513,0.713,1.513,1.595
		C21.381,22.573,20.663,23.274,19.747,23.274z"/>
	<path class="st1" d="M15.174,12.945c-0.126,0-0.198-0.09-0.198-0.18s0.072-0.18,0.198-0.18c1.422,0,2.376-0.09,3.025-0.216
		c0.054-0.018,0.144-0.036,0.198-0.036c0.108,0,0.198,0.072,0.198,0.216c0,0.072,0,0.09-0.036,0.378
		c-0.036,0.234-0.108,1.008-0.108,1.927v5.275c0,1.242,0.054,1.296,1.296,1.368c0.144,0,0.216,0.09,0.216,0.181
		c0,0.09-0.072,0.18-0.216,0.18c-0.162,0-0.63-0.018-1.152-0.054c-0.486-0.019-1.008-0.036-1.278-0.036
		c-0.288,0-0.756,0.018-1.207,0.036c-0.504,0.036-0.99,0.054-1.26,0.054c-0.126,0-0.18-0.09-0.18-0.18
		c0-0.091,0.054-0.181,0.18-0.181c1.26-0.072,1.333-0.107,1.333-1.368v-5.672c0-1.314-0.036-1.512-0.702-1.512H15.174z M18.72,8.821
		c0,0.721-0.594,1.333-1.314,1.333c-0.756,0-1.35-0.612-1.35-1.333c0-0.72,0.594-1.332,1.35-1.332
		C18.126,7.489,18.72,8.101,18.72,8.821z"/>
	<path class="st0" d="M25.237,23.274l-1.289-0.828l-3.313-7.256c-0.137-0.296-0.289-0.624-0.398-0.83
		c-0.855-0.042-1.513-0.728-1.513-1.595c0-0.896,0.702-1.598,1.598-1.598c0.005,0,0.01,0,0.016,0c0.118,0,0.246,0,0.617,0.02
		c0.579,0.035,1.284,0.07,1.852,0.07c0.491,0,1.341-0.018,2.122-0.069c0.266-0.021,0.382-0.021,0.49-0.021c0.005,0,0.011,0,0.017,0
		c0.364,0,0.701,0.123,0.97,0.329c0.272-0.207,0.616-0.329,0.993-0.329c0.156,0,0.423,0.02,0.668,0.042
		c0.407,0.031,0.8,0.048,1.078,0.048c0.22,0,0.643-0.034,0.957-0.065c0.221-0.025,0.304-0.025,0.432-0.025c0.005,0,0.011,0,0.016,0
		c0.906,0,1.615,0.694,1.615,1.58c0,0.81-0.595,1.484-1.414,1.601c-0.018,0.003-0.036,0.005-0.053,0.008
		c-0.204,0.314-0.597,1.21-0.867,1.824l-2.697,6.24l-1.301,0.854H25.237z M26.398,15.871l0.361-0.852
		c0.119-0.281,0.209-0.506,0.276-0.687c-0.231-0.046-0.449-0.151-0.636-0.299c-0.187,0.14-0.406,0.242-0.649,0.294L26.398,15.871z"
		/>
	<path class="st1" d="M28.064,15.574c0.396-0.937,0.594-1.531,0.594-1.909c0-0.612-0.432-0.666-1.26-0.72
		c-0.126,0-0.198-0.09-0.198-0.18s0.054-0.18,0.198-0.18c0.126,0,0.342,0.018,0.54,0.036c0.468,0.036,0.9,0.054,1.206,0.054
		c0.252,0,0.738-0.036,1.099-0.072c0.162-0.018,0.216-0.018,0.306-0.018c0.126,0,0.198,0.072,0.198,0.162
		c0,0.09-0.072,0.18-0.198,0.198c-0.846,0.126-0.972,0.288-2.017,2.665l-2.701,6.248h-0.594l-3.313-7.256
		c-0.667-1.44-0.774-1.656-1.603-1.656c-0.126,0-0.18-0.09-0.18-0.18s0.054-0.18,0.18-0.18c0.108,0,0.216,0,0.558,0.018
		c0.594,0.036,1.333,0.072,1.926,0.072c0.504,0,1.387-0.018,2.215-0.072c0.234-0.018,0.324-0.018,0.414-0.018
		c0.108,0,0.18,0.09,0.18,0.18s-0.054,0.162-0.18,0.18l-0.648,0.036c-0.541,0.036-0.72,0.27-0.72,0.648
		c0,0.306,0.162,0.738,0.36,1.207l1.963,4.681L28.064,15.574z"/>
	<path class="st0" d="M35.443,23.454c-2.898,0-6.027-2.311-6.027-6.044c0-4.079,3.194-6.603,6.153-6.603
		c3.023,0,5.217,2.088,5.217,4.964v0.27l-1.417,1.417h-4.644c0.05,1.419,0.372,2.261,0.674,2.584
		c0.102,0.111,0.247,0.163,0.441,0.163c0.518,0,1.276-0.133,1.878-1.277c0.257-0.516,0.819-0.865,1.417-0.865
		c0.9,0,1.633,0.717,1.633,1.598c0,0.122,0,0.479-0.233,0.865C39.454,22.442,37.694,23.454,35.443,23.454z M35.54,14.264
		c-0.038-0.117-0.077-0.198-0.106-0.238l-0.026-0.024c-0.083,0-0.113,0.007-0.114,0.007c-0.032,0.05-0.076,0.135-0.125,0.255H35.54z
		"/>
	<path class="st1" d="M33.354,16.041c-0.036,0.342-0.054,0.685-0.054,1.026c0,1.621,0.306,3.133,1.062,3.943
		c0.396,0.433,0.936,0.612,1.477,0.612c1.891,0,2.772-1.35,3.133-2.034c0.036-0.072,0.108-0.108,0.162-0.108
		c0.108,0,0.216,0.072,0.216,0.181c0,0.054,0,0.09-0.036,0.144c-0.612,1.099-1.729,2.232-3.871,2.232
		c-2.034,0-4.609-1.584-4.609-4.627c0-3.277,2.503-5.186,4.735-5.186c2.323,0,3.799,1.548,3.799,3.547v0.27H33.354z M36.649,15.681
		c0.396,0,0.45-0.09,0.45-0.45c0-0.792-0.198-1.639-0.558-2.089c-0.288-0.396-0.756-0.558-1.134-0.558
		c-0.486,0-0.882,0.126-1.243,0.594c-0.378,0.504-0.648,1.458-0.774,2.503H36.649z"/>
	<path class="st0" d="M48.996,23.454c-0.862,0-1.583-0.151-2.248-0.307c-0.144-0.035-0.347-0.086-0.53-0.121
		c-0.282,0.254-0.665,0.41-1.075,0.41c-0.861,0-1.562-0.708-1.562-1.579c0-0.212,0.033-0.408,0.114-0.678
		c0.144-0.512,0.192-0.899,0.192-1.572c0-0.697-0.071-1.408-0.113-1.719c-0.032-0.224-0.031-0.29-0.031-0.425
		c0-0.88,0.708-1.597,1.58-1.597c0.729,0,1.361,0.494,1.537,1.2c0.856,2.955,1.559,3.194,2.388,3.194
		c1.302,0,1.302-0.601,1.302-0.96c0-0.629-0.098-0.981-2.312-2.126c-1.648-0.839-4.152-2.114-4.152-5.167
		c0-3.043,2.315-5.252,5.505-5.252c0.947,0,1.684,0.177,2.483,0.444c0.27-0.197,0.611-0.318,0.975-0.318
		c0.89,0,1.615,0.725,1.615,1.616c0,0.213-0.033,0.379-0.099,0.708c-0.065,0.336-0.117,1.34-0.117,2.28v0.36
		c0,0.906-0.694,1.615-1.58,1.615c-0.096,0-0.19-0.008-0.281-0.023c1.394,0.846,2.616,2.081,2.616,4.404
		C55.203,20.632,53.071,23.454,48.996,23.454z M49.681,9.951c-0.424,0-0.815,0.112-0.815,0.923c0,0.573,0.257,0.851,2.07,1.708
		c0.241,0.115,0.49,0.233,0.74,0.358c-0.205-0.23-0.344-0.525-0.391-0.862C51.038,10.683,50.496,9.951,49.681,9.951z"/>
	<path class="st1" d="M53.029,11.846c0,0.126-0.072,0.198-0.162,0.198s-0.162-0.036-0.18-0.162c-0.36-2.052-1.369-3.349-3.007-3.349
		c-1.297,0-2.233,0.829-2.233,2.341c0,1.584,1.207,2.197,2.881,2.989c2.197,1.044,3.457,1.818,3.457,3.979
		c0,2.16-1.638,4.194-4.789,4.194c-0.738,0-1.386-0.144-1.926-0.27c-0.432-0.108-0.829-0.198-1.17-0.198
		c-0.18,0-0.414,0.018-0.594,0.342c-0.036,0.072-0.09,0.108-0.162,0.108s-0.144-0.054-0.144-0.162c0-0.036,0-0.09,0.054-0.271
		c0.198-0.702,0.252-1.224,0.252-1.979c0-0.738-0.072-1.513-0.126-1.909c-0.018-0.126-0.018-0.162-0.018-0.234
		c0-0.107,0.072-0.18,0.162-0.18c0.072,0,0.144,0.054,0.162,0.126c0.756,2.611,1.638,4.268,3.763,4.268
		c1.657,0,2.719-0.829,2.719-2.377c0-1.566-0.918-2.269-3.079-3.385c-1.98-1.008-3.385-1.926-3.385-3.907
		c0-2.431,1.909-3.835,4.087-3.835c0.738,0,1.314,0.126,2.107,0.396c0.288,0.108,0.521,0.18,0.72,0.18
		c0.271,0,0.324-0.09,0.45-0.324c0.036-0.09,0.108-0.126,0.181-0.126c0.09,0,0.197,0.072,0.197,0.198
		c0,0.072-0.018,0.162-0.071,0.432c-0.108,0.558-0.145,1.8-0.145,2.557V11.846z"/>
	<path class="st0" d="M59.923,23.454c-2.898,0-6.027-2.311-6.027-6.044c0-4.079,3.194-6.603,6.153-6.603
		c3.022,0,5.216,2.088,5.216,4.964v0.27l-1.417,1.417h-4.644c0.051,1.419,0.372,2.261,0.674,2.585
		c0.102,0.11,0.247,0.162,0.44,0.162c0.519,0,1.277-0.133,1.878-1.276c0.258-0.517,0.819-0.866,1.417-0.866
		c0.901,0,1.634,0.717,1.634,1.598c0,0.122,0,0.479-0.233,0.865C63.933,22.442,62.174,23.454,59.923,23.454z M60.019,14.264
		c-0.038-0.116-0.076-0.197-0.106-0.237l-0.026-0.025c-0.083,0-0.113,0.007-0.114,0.007c-0.032,0.051-0.076,0.135-0.125,0.255
		H60.019z"/>
	<path class="st1" d="M57.834,16.041c-0.036,0.342-0.054,0.685-0.054,1.026c0,1.621,0.306,3.133,1.062,3.943
		c0.396,0.433,0.937,0.612,1.477,0.612c1.891,0,2.773-1.35,3.133-2.034c0.036-0.072,0.108-0.108,0.162-0.108
		c0.108,0,0.217,0.072,0.217,0.181c0,0.054,0,0.09-0.036,0.144c-0.612,1.099-1.729,2.232-3.871,2.232
		c-2.035,0-4.609-1.584-4.609-4.627c0-3.277,2.503-5.186,4.735-5.186c2.322,0,3.799,1.548,3.799,3.547v0.27H57.834z M61.129,15.681
		c0.396,0,0.45-0.09,0.45-0.45c0-0.792-0.198-1.639-0.559-2.089c-0.288-0.396-0.756-0.558-1.134-0.558
		c-0.486,0-0.883,0.126-1.242,0.594c-0.379,0.504-0.648,1.458-0.774,2.503H61.129z"/>
	<path class="st0" d="M70.145,23.436c-3.591,0-6.098-2.441-6.098-5.937c0-3.878,2.663-6.693,6.332-6.693
		c1.468,0,2.794,0.549,3.638,1.506c0.559,0.65,0.858,1.438,0.858,2.234c0,1.785-1.098,2.984-2.731,2.984
		c-1.38,0-2.461-1.042-2.461-2.372c0-0.069,0.002-0.137,0.007-0.203c-0.185,0.528-0.324,1.286-0.324,2.202
		c0,1.484,0.25,2.479,0.722,2.878c0.169,0.141,0.188,0.152,0.437,0.152c0.479,0,0.93,0,1.568-1.43
		c0.227-0.567,0.813-0.965,1.475-0.965c0.905,0,1.614,0.709,1.614,1.615c0,0.347-0.12,0.634-0.192,0.773
		C74.002,22.382,72.453,23.436,70.145,23.436z"/>
	<path class="st1" d="M72.955,13.251c0.324,0.378,0.504,0.828,0.504,1.296c0,0.918-0.414,1.566-1.314,1.566
		c-0.63,0-1.044-0.432-1.044-0.955c0-0.576,0.342-1.026,1.08-1.026c0.126,0,0.234-0.072,0.234-0.27c0-0.667-0.774-1.279-1.801-1.279
		c-0.721,0-1.171,0.252-1.603,0.72c-0.738,0.811-1.062,2.377-1.062,3.854c0,2.017,0.414,3.277,1.225,3.961
		c0.432,0.36,0.774,0.486,1.351,0.486c1.278,0,2.106-0.576,2.862-2.269c0.036-0.09,0.108-0.126,0.181-0.126
		c0.107,0,0.197,0.072,0.197,0.198c0,0.036-0.018,0.09-0.036,0.126c-0.81,1.8-1.89,2.484-3.583,2.484
		c-2.772,0-4.681-1.801-4.681-4.52c0-3.277,2.25-5.275,4.915-5.275C71.496,12.224,72.415,12.638,72.955,13.251z"/>
	<path class="st0" d="M80.244,23.274c-0.553,0-1.106-0.019-1.679-0.057c-0.425-0.016-0.89-0.033-1.147-0.033
		c-0.256,0-0.683,0.018-1.092,0.035c-0.465,0.037-0.957,0.055-1.213,0.055c-0.891,0-1.615-0.716-1.615-1.597
		c0-0.798,0.594-1.461,1.368-1.579v-5.746c-0.81-0.087-1.44-0.766-1.44-1.588c0-0.881,0.725-1.598,1.615-1.598
		c1.293,0,2.185-0.078,2.648-0.233c0.242-0.08,0.411-0.108,0.629-0.108c0.377,0,0.721,0.124,0.992,0.333
		c0.523-0.275,1.106-0.423,1.727-0.423c2.018,0,3.073,1.393,3.073,2.768c0,1.598-1.167,2.804-2.714,2.804
		c-0.532,0-1.016-0.144-1.414-0.395c-0.009,0.132-0.014,0.272-0.014,0.418v3.736c0.127,0.007,0.339,0.016,0.34,0.016
		c0.843,0,1.551,0.701,1.551,1.597S81.15,23.274,80.244,23.274z"/>
	<path class="st1" d="M78.353,14.853c0.343-1.603,1.333-2.701,2.684-2.701c1.08,0,1.656,0.612,1.656,1.351
		c0,0.828-0.522,1.386-1.297,1.386c-0.702,0-1.116-0.45-1.116-1.044c0-0.558,0.36-0.955,0.757-1.081
		c0.126-0.036,0.162-0.072,0.162-0.144c0-0.054-0.072-0.108-0.271-0.108c-1.225,0-2.377,1.278-2.377,3.817v3.872
		c0,1.17,0.036,1.224,1.692,1.296c0.145,0,0.198,0.09,0.198,0.181c0,0.09-0.054,0.18-0.198,0.18c-0.521,0-1.044-0.018-1.584-0.054
		c-0.486-0.019-0.973-0.036-1.242-0.036c-0.271,0-0.721,0.018-1.152,0.036c-0.469,0.036-0.919,0.054-1.152,0.054
		c-0.126,0-0.198-0.09-0.198-0.18c0-0.091,0.072-0.181,0.198-0.181c1.08-0.072,1.17-0.107,1.17-1.296v-5.924
		c0-1.278-0.09-1.333-0.937-1.333h-0.306c-0.126,0-0.198-0.09-0.198-0.18s0.072-0.18,0.198-0.18c1.422,0,2.448-0.09,3.097-0.306
		c0.108-0.036,0.126-0.036,0.181-0.036c0.107,0,0.197,0.072,0.197,0.198c0,0.072-0.054,0.378-0.107,0.612
		c-0.09,0.432-0.162,1.116-0.217,1.801H78.353z"/>
	<path class="st0" d="M88.02,23.454c-2.898,0-6.026-2.311-6.026-6.044c0-4.079,3.193-6.603,6.152-6.603
		c3.022,0,5.216,2.088,5.216,4.964v0.27l-1.417,1.417h-4.644c0.051,1.419,0.372,2.261,0.674,2.585
		c0.102,0.11,0.247,0.162,0.44,0.162c0.519,0,1.277-0.133,1.878-1.276c0.258-0.517,0.819-0.866,1.417-0.866
		c0.901,0,1.634,0.717,1.634,1.598c0,0.122,0,0.479-0.233,0.865C92.031,22.442,90.271,23.454,88.02,23.454z M88.117,14.264
		c-0.038-0.116-0.076-0.197-0.106-0.237l-0.026-0.025c-0.083,0-0.113,0.007-0.114,0.007c-0.032,0.051-0.076,0.135-0.125,0.255
		H88.117z"/>
	<path class="st1" d="M85.931,16.041c-0.036,0.342-0.054,0.685-0.054,1.026c0,1.621,0.306,3.133,1.062,3.943
		c0.396,0.433,0.937,0.612,1.477,0.612c1.891,0,2.773-1.35,3.133-2.034c0.036-0.072,0.108-0.108,0.162-0.108
		c0.108,0,0.217,0.072,0.217,0.181c0,0.054,0,0.09-0.036,0.144c-0.612,1.099-1.729,2.232-3.871,2.232
		c-2.035,0-4.609-1.584-4.609-4.627c0-3.277,2.503-5.186,4.735-5.186c2.322,0,3.799,1.548,3.799,3.547v0.27H85.931z M89.226,15.681
		c0.396,0,0.45-0.09,0.45-0.45c0-0.792-0.198-1.639-0.559-2.089c-0.288-0.396-0.756-0.558-1.134-0.558
		c-0.486,0-0.883,0.126-1.242,0.594c-0.379,0.504-0.648,1.458-0.774,2.503H89.226z"/>
	<path class="st0" d="M97.397,23.454c-2.557,0-4.208-1.623-4.208-4.135v-4.957h-0.077c-0.896,0-1.598-0.702-1.598-1.598
		s0.701-1.598,1.598-1.598H93.4c0.828,0,1.444-0.684,1.691-1.876c0.098-0.721,0.763-1.311,1.567-1.311
		c0.881,0,1.597,0.725,1.597,1.616v1.571h1.122c0.916,0,1.633,0.702,1.633,1.598c0,0.906-0.717,1.616-1.633,1.616h-1.122
		c0,0,0,5.014,0.001,5.034c0.02-0.059,0.039-0.124,0.06-0.197c0.132-0.654,0.77-1.171,1.529-1.171c0.881,0,1.598,0.716,1.598,1.597
		C101.443,20.483,100.474,23.454,97.397,23.454z"/>
	<path class="st1" d="M96.839,19.354c0,1.477,0.45,1.909,1.278,1.909c0.685,0,1.243-0.486,1.566-1.675
		c0.019-0.09,0.091-0.126,0.162-0.126c0.091,0,0.181,0.072,0.181,0.18c0,0.162-0.486,2.395-2.629,2.395
		c-1.513,0-2.791-0.773-2.791-2.718v-5.132c0-0.99-0.162-1.242-0.828-1.242h-0.666c-0.126,0-0.181-0.09-0.181-0.18
		s0.055-0.18,0.181-0.18H93.4c1.242,0,2.629-0.828,3.079-3.007c0.018-0.126,0.107-0.18,0.18-0.18c0.09,0,0.18,0.072,0.18,0.198
		v2.989h2.539c0.144,0,0.216,0.09,0.216,0.18c0,0.108-0.072,0.198-0.216,0.198h-2.539V19.354z"/>
	<path class="st0" d="M102.598,23.49c-1.446,0-2.623-1.177-2.623-2.623c0-0.913,0.468-1.718,1.178-2.188
		c-0.087-0.203-0.134-0.431-0.134-0.674c0-2.522-0.438-4.313-0.788-5.75c-0.256-1.002-0.454-1.845-0.454-2.659
		c0-1.592,1.239-2.84,2.821-2.84s2.821,1.248,2.821,2.84c0,0.813-0.198,1.656-0.458,2.673c-0.347,1.423-0.784,3.213-0.784,5.736
		c0,0.243-0.047,0.471-0.134,0.674c0.71,0.471,1.178,1.275,1.178,2.188C105.221,22.313,104.045,23.49,102.598,23.49z"/>
	<path class="st1" d="M104.003,9.596c0,0.648-0.18,1.404-0.414,2.323c-0.36,1.477-0.828,3.403-0.828,6.086
		c0,0.107-0.036,0.197-0.162,0.197s-0.162-0.09-0.162-0.197c0-2.684-0.468-4.61-0.828-6.086c-0.234-0.918-0.414-1.674-0.414-2.323
		c0-0.81,0.612-1.422,1.404-1.422S104.003,8.785,104.003,9.596z M103.804,20.867c0,0.685-0.54,1.206-1.206,1.206
		s-1.206-0.521-1.206-1.206c0-0.666,0.54-1.206,1.206-1.206S103.804,20.201,103.804,20.867z"/>
</g>
</svg>
