<?xml version="1.0" encoding="utf-8"?>
<!-- Generator: Adobe Illustrator 23.1.1, SVG Export Plug-In . SVG Version: 6.00 Build 0)  -->
<svg version="1.1" id="レイヤー_1" xmlns="http://www.w3.org/2000/svg" xmlns:xlink="http://www.w3.org/1999/xlink" x="0px"
	 y="0px" viewBox="0 0 102.055 126.027" style="enable-background:new 0 0 102.055 126.027;" xml:space="preserve">
<style type="text/css">
	.st0{fill:#267839;}
</style>
<g>
	<path class="st0" d="M93.852,51.433c0.002-5.854-0.205-11.716-0.97-17.55c-0.809-6.168-3.012-11.699-8.842-15.46
		c-2.965-1.913-6.118-3.711-9.883-4.102c-1.672-0.174-2.81-0.56-3.267-2.216c-0.208-0.753-1.052-1.42-1.739-2.002
		c-4.282-3.629-9.218-5.764-15.625-5.251c-1.933-0.188-4.2-0.083-6.474,0.238c-7.811,1.102-15.081,3.067-20.002,9.259
		c-1.826,2.298-4.479,3.6-7.472,4.45c-1.549,0.44-3.052,1.017-4.46,1.862c-4.452,2.671-6.152,6.831-7.767,11.068
		c-0.074,0.193-0.27,4.114-0.458,5.236C6.043,42.046,5.272,47.138,4.41,52.218c-0.21,1.239-0.425,2.461-0.417,3.721
		c0.028,4.4,0.226,8.811-0.048,13.197c-0.289,4.633-0.178,9.239,0.26,13.84c0.254,2.667,1.103,5.297,1.234,7.961
		c0.222,4.511,2.172,8.301,5.469,11.519c3.414,3.333,7.796,5.428,12.463,7.036c0.95,0.327,1.961,0.538,2.651,1.272
		c2.075,2.205,4.722,3.749,7.295,5.431c3.535,2.31,7.614,3.303,11.586,4.603c0.39,0.127,1.094,0.197,1.272,0.006
		c0.97-1.039,2.088-0.571,3.141-0.329c2.031,0.468,4.058,0.969,6.05,1.556c3.82,1.126,7.852,1.66,11.617,0.692
		c4.672-1.201,9.325-2.693,13.65-4.793c3.617-1.756,6.922-3.834,8.797-7.325c2.027-3.774,3.003-7.73,3.637-11.896
		c1.268-8.333,1.796-16.701,1.797-25.07C94.865,66.242,93.85,58.857,93.852,51.433z M92.474,37.73
		c0.463,5.408,0.449,10.831,0.713,16.239c0.163,3.34-0.878,5.824-3.414,8.065c-2.084,1.841-4.063,3.78-6.05,5.707
		c-1.29,1.251-2.511,2.561-3.766,3.842c-0.239,0.244-0.424,0.675-0.857,0.509c-0.163-0.062-0.221-0.514-0.197-0.779
		c0.115-1.277-0.519-1.442-1.835-1.366c-2.789,0.163-5.595,0.09-8.394,0.103c-1.165,0.005-1.852-0.322-1.899-1.578
		c-0.185-4.901-0.457-9.8-0.754-14.697c-0.083-1.368,0.304-2.169,2.008-1.827c0.938,0.188,1.089-0.206,1.074-0.914
		c-0.032-1.598-0.01-3.197-0.01-4.796c-0.066,0-0.131,0-0.197,0c0-1.655-0.055-3.311,0.024-4.963
		c0.038-0.786,0.209-1.513,1.511-1.551c6.51-0.19,12.797-1.659,19.137-2.821c0.433-0.079,0.904-0.094,1.29-0.262
		C92.239,36.04,92.384,36.688,92.474,37.73z M72.046,70.827c0.885,0,1.805,0.139,2.649-0.027c2.091-0.413,2.443,0.723,2.591,2.135
		c0.155,1.482-0.492,2.379-2.228,2.503c-2.21,0.159-4.418,0.331-6.628,0.486c-0.539,0.038-1.04-0.039-1.108-0.656
		c-0.138-1.248-0.277-2.496-0.394-3.746c-0.071-0.755,0.521-0.812,1.13-0.789c1.33,0.05,2.659,0.118,3.988,0.178
		C72.046,70.883,72.046,70.855,72.046,70.827z M37.412,113.641c0-0.095,0-0.189-0.001-0.284
		C37.621,113.453,37.59,113.548,37.412,113.641z M36.639,112.649c0.238-0.002,0.349,0.104,0.339,0.313
		C36.736,112.974,36.61,112.881,36.639,112.649z M36.611,112.624c-0.246,0.062-0.376-0.049-0.44-0.259
		c-1.132-0.821-2.514-1.502-2.207-3.128c1.107,0.788,1.882,1.789,2.347,2.987C36.534,112.287,36.645,112.414,36.611,112.624z
		 M31.253,101.705c0.046-0.208-0.096-0.577,0.319-0.641c0.435-0.067,0.454,0.318,0.533,0.565c0.641,2.016,1.449,3.974,2.445,5.871
		c0.084,0.16-0.013,0.398-0.026,0.599c-0.146-0.101-0.31-0.186-0.434-0.305C32.971,106.725,31.226,102.998,31.253,101.705z
		 M35.236,109.077l0.014-0.095l0.094,0.059L35.236,109.077z M33.759,104.472c-0.431-1.665-1.334-3.212-1.536-5.058
		c0.573-1.694,1.526-3.366,2.516-5.019c3.254-5.433,8.408-9.383,13.204-13.608c0.38-0.335,1.008-0.432,1.483-0.694
		c0.767-0.423,1.726-1.363,2.355-0.832c0.542,0.458-0.148,1.668-0.618,2.342c-1.154,1.656-1.392,3.684-2.703,5.232
		c-0.803,0.949-0.249,2.044-0.78,3.067c-2.217,4.275-5.024,8.14-8.754,11.475c-1.201,1.074-2.163,2.363-3.323,3.479
		C34.874,105.556,34.092,105.759,33.759,104.472z M50.857,78.163C42.525,82.355,37.404,89.09,32.88,96.311
		c-0.28,0.446-0.453,1.17-0.992,1.14c-0.616-0.034-0.552-0.783-0.644-1.258c-0.333-1.731-0.635-3.468-0.948-5.202
		c-0.081-1.844,1.019-3.147,2.313-4.374c4.151-3.936,8.995-6.987,14.493-9.214c0.437-0.177,1.177-0.563,1.137-0.731
		c-0.138-0.593-0.788-0.868-1.438-0.956c-6.812-0.921-11.284-5.159-15.994-9.073c-0.927-0.77-0.582-1.678-0.489-2.555
		c0.131-1.241-0.122-2.51,0.331-3.726c1.333,0.566,1.765,1.862,2.732,2.726c3.647,3.259,7.115,6.71,11.84,8.8
		c1.811,0.801,3.627,1.594,5.401,2.458C53.155,75.578,53.276,76.946,50.857,78.163z M30.243,78.501
		c0.497-2.797-0.025-6.217-0.056-9.637c-0.003-0.363-0.245-0.898,0.333-1.016c0.226-0.046,0.595,0.348,0.854,0.582
		c3.464,3.139,7.245,5.863,11.928,7.415c0.405,0.134,0.925,0.179,1.035,0.597c0.041,0.155-0.326,0.486-0.583,0.601
		c-4.733,2.128-7.797,6.189-12.301,8.576c-0.348,0.185-0.56,0.784-1.061,0.451c-0.2-0.133-0.141-0.621-0.143-0.947
		C30.238,83.122,30.243,81.123,30.243,78.501z M30.268,50.462c0.014-0.038,0.028-0.075,0.042-0.113
		c0.032,0.014,0.065,0.027,0.097,0.041C30.36,50.414,30.314,50.438,30.268,50.462z M30.632,48.966c0-0.012,0.075-0.021,0.115-0.032
		c0.01,0.044,0.019,0.088,0.029,0.132c-0.037,0.012-0.073,0.024-0.11,0.036C30.652,49.056,30.63,49.011,30.632,48.966z
		 M52.304,72.436c-0.177,1.368-1.017,0.425-1.449,0.256c-5.817-2.268-10.524-5.902-14.938-9.893
		c-1.211-1.095-2.379-2.257-3.743-3.176c-1.274-0.858-1.417-1.816-1.262-3.114c0.445-3.712,1.235-7.366,1.325-11.152
		c0.055-2.324,0.866-4.863,1.735-7.222c0.177-0.479,0.378-0.672,0.943-0.494c7.971,2.513,16.284,1.993,24.51,2.16
		c1.611,0.033,1.521,0.961,1.593,1.799c0.269,3.134-0.027,6.289,0.447,9.421c0.126,0.834,0.273,1.278,1.394,0.998
		c1.598-0.4,2.345-0.141,2.517,1.733c0.415,4.506,0.274,9.023,0.665,13.526c0.216,2.487,0.002,2.511-2.745,2.694
		c-1.331,0.088-2.666,0.133-3.999,0.197c-0.001-0.024-0.002-0.048-0.004-0.072c-1.015,0-2.06,0.139-3.04-0.028
		C54.003,69.686,52.588,70.244,52.304,72.436z M62.34,41.254c0.051-0.685,0.423-1.029,1.034-1.259
		c0.228-0.086,0.495-0.094,0.746-0.123c4.036-0.475,4.155-0.382,4.161,3.271c0.001,0.571,0,1.143,0,1.714c0.025,0,0.049,0,0.074,0
		c0,0.685-0.001,1.371,0,2.057c0.003,3.454-0.92,4.226-4.801,3.757c-0.367-0.044-0.812-1.045-0.841-1.617
		C62.583,46.455,62.147,43.868,62.34,41.254z M53.928,74.574c0.07-0.394,0.193-0.782,0.246-1.177
		c0.342-2.557,0.338-2.575,3.146-2.569c2.286,0.005,4.573,0.11,6.858,0.073c1.225-0.02,1.751,0.277,1.952,1.476
		c0.576,3.439,0.657,3.438-3.209,3.767c-1.136,0.097-2.283,0.082-3.419,0.179c-1.135,0.097-2.263,0.271-2.968,0.358
		C53.925,76.755,53.597,76.438,53.928,74.574z M76.605,16.124c5.27,1.244,9.377,3.877,11.939,8.325
		c1.7,2.952,3.363,5.887,3.521,9.312c0.043,0.922-0.241,1.339-1.26,1.739c-3.551,1.394-7.363,1.662-11.077,2.363
		c-4.364,0.823-8.742,1.449-13.715,1.203c-4.705,0.178-9.899-0.092-15.101-0.03c-5.072,0.061-10.118-0.574-15.021-1.906
		c-1.039-0.282-1.33-0.637-1.185-1.674c0.36-2.571,1.374-4.971,2.063-7.455c0.495-1.784,2.287-2.719,3.146-4.32
		c0.912-1.698,2.757-2.974,4.062-4.524c1.378-1.638,3.299-2.505,5.328-3.108c5.026-1.494,10.091-2.438,15.518-1.786
		C68.792,14.742,72.741,15.212,76.605,16.124z M46.734,15.83c-0.08-0.388,0.215-0.546,0.542-0.667
		c0.056-0.021,0.163,0.068,0.246,0.107C47.259,15.456,46.996,15.643,46.734,15.83z M46.723,15.837
		c-0.008,0.006-0.016,0.011-0.024,0.017l-0.088-0.069L46.723,15.837z M41.908,17.49c-0.795,0.73-1.586,1.04-2.818,0.451
		c-1.08-0.516-2.436-0.557-3.658-0.848c-0.468-0.111-1.206,0.11-1.356-0.338c-0.174-0.519,0.499-0.863,0.882-1.221
		c3.813-3.563,8.507-5.392,13.937-5.785c3.464-0.137,6.636,0.78,9.748,1.914c0.545,0.198,1.358,0.467,1.122,1.137
		c-0.164,0.467-0.909,0.049-1.368,0.147C52.795,14.144,46.491,13.283,41.908,17.49z M43.712,18.119
		c-0.016-0.223-0.203-0.476,0.086-0.654c-0.028,0.218-0.056,0.436-0.085,0.654C43.713,18.119,43.712,18.119,43.712,18.119z
		 M43.667,18.105c-0.1-0.031-0.199-0.063-0.299-0.094C43.583,17.758,43.585,18.031,43.667,18.105z M44.048,16.967
		c0.086,0.194,0.217,0.404-0.185,0.427C43.924,17.25,43.986,17.109,44.048,16.967z M40.601,19.487
		c-0.021,0.02-0.049,0.034-0.079,0.046c0.018-0.05,0.037-0.101,0.055-0.151C40.586,19.418,40.616,19.472,40.601,19.487z
		 M27.228,15.35c3.511-3.583,7.286-6.655,12.716-7.956c5.235-1.254,10.454-1.969,15.811-1.556c5.68,0.438,10.928,1.777,13.763,6.899
		c0.16,0.289,0.48,0.647,0.396,0.874c-0.138,0.373-0.635,0.247-1.009,0.192c-1.328-0.128-2.657-0.245-3.982-0.385
		c-0.421-0.045-0.831-0.035-1.158-0.438c-2.108-2.591-5.164-3.726-8.546-3.933c-4.672-0.285-9.376-0.487-13.837,1.359
		c-2.833,1.172-5.086,2.965-7.228,4.928c-1.132,1.038-5.546,1.6-6.92,0.956C26.521,15.956,26.976,15.607,27.228,15.35z
		 M9.471,28.189c0.003,0.001,0.006,0,0.009,0c-0.011,0.016-0.021,0.033-0.032,0.049l-0.01-0.054L9.471,28.189z M23.865,108.557
		c-0.275,0.363-0.687,0.061-1.023-0.032c-3.544-0.985-6.346-3.086-9.268-5.005c-5.331-3.502-6.358-8.885-7.479-14.151
		c-1.044-4.907-0.75-9.909-0.908-14.882c-0.144-4.512-0.649-9.039-0.317-13.534c0.451-6.09,0.502-12.264,2.073-18.216
		c0.942-3.567,1.22-7.219,2.206-10.735c1.682-5.999,4.832-11.072,12.159-12.887c1.216-0.301,2.388-0.803,3.51-1.333
		c1.378-0.65,2.712-0.794,4.215-0.36c0.884,0.255,1.867,0.289,2.809,0.314c2.158,0.058,4.273,0.115,6.405,0.668
		c1.54,0.399,0.834,0.685,0.295,1.239c-1.832,1.883-4.092,2.565-6.824,2.076c-1.743-0.312-3.494-0.497-5.225,0.115
		c-2.813,0.994-6.108,0.795-8.481,2.898c-2.432,2.156-4.128,4.746-4.86,7.667c-0.414,1.652-1.352,3.235-1.211,5
		c-1.638,2.042-1.698,4.527-2.008,6.834c-1.218,9.061-1.397,18.209-2.672,27.275c-0.329,2.343-0.42,4.765,0.312,7.118
		c0.963,3.093,0.318,6.308,0.998,9.469c1.034,4.808,3.777,8.508,7.635,11.732c1.214,1.015,2.383,2.065,3.983,2.595
		c0.581,0.192,0.915,0.577,1.073,1.116c0.457,1.559,1.134,3.021,2.295,4.28C23.742,108.019,23.963,108.429,23.865,108.557z
		 M20.418,100.374c0.057,0.188,0.017,0.535-0.115,0.609c-0.376,0.209-0.724-0.054-1.033-0.235c-2.711-1.584-4.732-3.768-6.632-6.08
		c-3.083-3.75-3.045-8.234-3.921-12.542c-1.688-8.304,0.206-16.489,0.588-24.728c0.235-5.087,0.991-10.11,1.731-15.142
		c0.238-1.62,0.909-3.175,0.921-4.831c1.574-2.123,2.253-4.615,3.107-6.936c1.954-5.307,6.489-6.962,11.832-7.754
		c1.407-0.209,2.9,0.049,4.354,0.095c0.001,0.002,0.002,0.003,0.003,0.005c0.876-0.185,2.207-0.49,2.524,0.017
		c0.468,0.749-0.933,0.984-1.413,1.538c-3.836,4.431-7.279,8.981-8.439,14.716c-1.435,7.096-2.246,14.217-2.756,21.416
		c-0.704,9.931-0.82,19.862-1.051,29.799C20.041,93.684,19.419,97.041,20.418,100.374z M31.22,22.771
		c-0.223-0.257-0.806-0.288-0.622-0.778c0.028-0.074,0.351-0.117,0.512-0.081C31.909,22.091,31.141,22.486,31.22,22.771z
		 M22.221,103.885l0.094-0.033l-0.01,0.084L22.221,103.885z M38.444,117.318c-4.89-1.881-9.333-4.391-12.525-8.35
		c-3.02-3.746-4.258-8.08-4.577-12.588c-0.761-10.776-0.1-21.55,0.379-32.319c0.381-8.563,0.988-17.106,3.026-25.514
		c0.923-3.808,2.693-7.144,5.56-10.155c2.787-2.927,5.991-5.442,8.948-8.193c0.31-0.288,0.58-0.759,1.183-0.614
		c-5.296,7.305-7.808,15.48-9.099,23.998c-0.507,3.343-2.124,6.514-1.969,9.929c0.203,4.471-0.585,8.868-0.959,13.297
		c-0.262,3.101,0.697,6.112,0.782,9.207c0.147,5.365-0.057,10.725,0.042,16.083c0.105,5.713,0.602,11.412,4.533,16.304
		c0.154,0.191,0.112,0.509,0.151,0.775c-0.605-0.079-0.74-1.164-1.313-0.747c-0.452,0.329,0.212,1.031,0.47,1.511
		c0.917,1.706,2.277,3.036,4.289,3.74c1.901,1.731,4.086,3.156,6.203,4.654C41.612,119.096,40.033,117.929,38.444,117.318z
		 M37.028,113.004c0.194,0.019,0.299,0.118,0.321,0.293C37.158,113.276,37.042,113.187,37.028,113.004z M43.728,118.68
		c-0.027-0.085-0.053-0.169-0.08-0.254c0.044,0.056,0.09,0.112,0.129,0.171C43.786,118.611,43.745,118.652,43.728,118.68z
		 M59.846,120.999c-0.344,1.011-1.258,0.627-1.918,0.514c-4.939-0.851-9.586-2.348-14.075-4.472
		c-4.032-1.908-6.06-5.055-7.991-8.418c-0.576-1.003-0.524-1.722,0.462-2.691c3.128-3.076,6.06-6.314,9.017-9.528
		c1.43-1.554,2.367-3.379,3.253-5.222c1.812-3.766,4.374-7.333,4.923-11.451c0.3-2.254,1.185-2.64,3.397-2.607
		c2.526,0.037,5.061-0.336,7.59-0.552c1.747-0.149,2.264,0.772,2.212,2.092c-0.15,3.807-0.599,7.604-0.92,11.396
		c-0.023,0.276-0.013,0.547,0.014,0.816c-0.754-0.11-1.508-0.226-2.26-0.344c-1.696-0.265-3.349-0.655-5.025-0.987
		c-0.082-0.033-0.166-0.053-0.245-0.049c-0.04-0.008-0.079-0.016-0.118-0.024c-0.476-0.091-0.623,0.477-0.196,0.639
		c1.016,0.384,2.12,0.628,3.222,0.829c0.384,0.094,0.767,0.188,1.141,0.27c-0.04-0.035-0.084-0.06-0.125-0.093
		c0.097,0.016,0.193,0.032,0.289,0.049c-0.055,0.014-0.111,0.028-0.155,0.056c0.112-0.009,0.223-0.017,0.335-0.026
		c0.026,0.004,0.052,0.009,0.078,0.013c1.055,0.178,2.113,0.341,3.174,0.496c0.124,0.762,0.246,1.521-0.028,2.33
		c-0.529,1.564-0.634,3.256-0.599,4.927c0.008,0.387,0.078,0.848-0.101,1.177c-1.668-0.216-3.318-0.561-4.92-1.031
		c-0.843-0.247-1.664-0.542-2.49-0.833c-0.555-0.196-1.085-0.334-1.64-0.373c-0.095-0.075-0.186-0.146-0.283-0.222
		c-0.103,0.066-0.329,0.153-0.366,0.226c-0.086,0.007-0.172,0.014-0.259,0.027c-0.375,0.053-0.29,0.626,0.09,0.599
		c0.157-0.011,0.313-0.006,0.468,0.006c0.345,0.291,0.907,0.348,1.329,0.553c0.119,0.058,0.321-0.024,0.484-0.041
		c-0.02-0.016-0.04-0.031-0.06-0.047c0.187,0.072,0.372,0.145,0.554,0.215c0.187,0.072,0.378,0.134,0.562,0.203
		c0.15,0.097,0.286,0.25,0.452,0.283c1.162,0.236,2.287,0.658,3.465,0.817c0.643,0.136,1.29,0.258,1.942,0.355
		c0.234,0.319,0.358,0.66,0.164,1.148c-0.646,1.622-0.886,3.326-1.059,5.04c-0.05,0.495-0.298,0.92-0.524,1.367
		c-2.622-0.473-5.208-1.121-7.762-1.825c-0.99-0.273-1.977-0.555-2.962-0.84c-1.007-0.291-2.062-0.529-3.033-0.909
		c-0.277-0.109-0.602,0.102-0.507,0.399c0.458,1.424,2.364,1.235,3.523,1.286c0.98,0.044,1.868,0.484,2.749,0.871
		c0.991,0.434,1.913,0.503,2.932,0.763c0.651,0.166,1.305,0.325,1.96,0.474c0.919,0.21,1.846,0.403,2.778,0.574
		c-0.087,0.328-0.114,0.686-0.016,1.104c0.312,1.328-0.631,2.867-0.855,4.333c-0.179,1.174-0.731,1.539-2.016,1.356
		c-1.565-0.222-3.16-0.265-4.734-0.446c-2.892-0.334-5.56-1.134-7.599-3.151c-0.239-0.236-0.537-0.638-0.902-0.245
		c-0.229,0.247,0.171,0.485,0.37,0.69c2.002,2.063,4.625,2.936,7.57,3.187c1.706,0.145,3.413,0.291,5.121,0.415
		c1.032,0.075,1.516,0.434,1.144,1.433C60.491,118.92,60.197,119.968,59.846,120.999z M65.263,122.166
		c-0.112,0-0.224-0.017-0.335-0.028c0.015-0.041,0.033-0.118,0.046-0.118c0.117,0.005,0.234,0.024,0.35,0.038
		C65.303,122.099,65.283,122.166,65.263,122.166z M89.98,105.471c-1.787,7.133-7.259,11.131-14.404,13.704
		c-4.279,1.541-8.646,2.616-13.341,2.411c-1.385-0.061-1.466-0.492-1.121-1.424c0.221-0.597,0.549-1.178,0.65-1.79
		c0.249-1.514,1.238-1.688,2.723-1.578c1.76,0.13,3.545-0.012,5.319-0.048c0.438-0.009,1.18-0.029,1.1-0.405
		c-0.104-0.488-0.828-0.251-1.24-0.153c-1.828,0.434-3.673,0.139-5.51,0.172c-1.239,0.022-1.763-0.448-1.41-1.589
		c0.221-0.715,0.358-1.451,0.558-2.172c0.559-2.02,0.788-2.759,1.798-3.002c2.091,0.293,4.202,0.46,6.318,0.429
		c2.141-0.032,4.333-0.241,6.402-0.755c0.287-0.071,0.43-0.38,0.277-0.613c-0.126-0.191-0.26-0.377-0.397-0.562
		c-0.302-0.409-0.932-0.057-0.718,0.378c0.016,0.032,0.033,0.062,0.049,0.094c-3.5,0.665-7.008,0.763-10.571,0.364
		c-0.238-0.027-0.474-0.06-0.712-0.091c-0.505-0.342-0.533-1.012-0.412-2.326c0.104-1.138,0.314-2.276,0.303-3.412
		c-0.011-1.106,0.315-1.775,1.102-1.971c3.384,0.288,6.947,0.101,10.203-0.749c0.431-0.112,0.437-0.681,0-0.791
		c-0.354-0.089-0.705-0.185-1.061-0.267c-0.394-0.09-0.575,0.262-0.432,0.509c-1.401,0.258-2.803,0.46-4.242,0.537
		c-1.647,0.089-3.303,0.047-4.944-0.11c-0.282-0.432-0.215-1.106,0.014-1.976c0.464-1.766,0.523-3.618,0.766-5.432
		c0.043-0.325,0.032-0.689,0.187-0.963c0.123,0.016,0.245,0.036,0.367,0.052c1.523,0.194,3.062,0.329,4.602,0.266
		c0.746-0.03,1.493-0.107,2.225-0.242c0.375-0.069,0.746-0.155,1.11-0.258c0.17-0.048,0.336-0.105,0.504-0.156
		c0.079-0.035,0.162-0.058,0.248-0.073c0.147,0.228,0.558,0.311,0.722,0.02c0.296-0.525-0.267-0.891-0.822-0.846
		c-0.362,0.029-0.72,0.206-1.068,0.299c-0.395,0.105-0.796,0.19-1.201,0.256c-1.685,0.278-3.427,0.212-5.122,0.045
		c-0.37-0.036-0.739-0.079-1.108-0.124c-0.2-0.078-0.357-0.201-0.389-0.419c-0.144-0.955-0.127-1.941-0.069-2.908
		c0.194-3.251,0.488-6.502,0.173-9.755c-0.116-1.2,0.384-1.588,1.689-1.614c2.095-0.043,4.184-0.262,6.278-0.387
		c1.249-0.075,1.806,0.359,1.778,1.601c-0.237,10.331,4.731,18.693,12.374,25.993C90.185,104.266,90.154,104.775,89.98,105.471z
		 M93.183,90.634c-0.52,4.139-1.001,7.82-2.083,11.41c-0.089,0.294-0.039,0.804-0.497,0.793c-0.29-0.007-0.637-0.335-0.845-0.593
		c-3.152-3.926-6.16-7.952-8.307-12.399c-0.998-2.067-1.394-4.371-2.036-6.573c-0.074-0.253-0.096-0.653,0.066-0.799
		c0.327-0.296,0.702-0.004,0.996,0.18c2.285,1.428,4.624,2.795,6.817,4.331c1.417,0.993,2.807,1.992,4.559,2.384
		C92.977,89.619,93.26,90.181,93.183,90.634z M93.124,87.947c-0.719,0.922-1.656,0.715-2.506,0.194
		c-2.602-1.597-5.176-3.231-7.756-4.856c-0.205-0.129-0.352-0.386-0.569-0.438c-3.476-0.83-3.981-3.15-3.587-6
		c-1.181-3.129,1.909-4.636,3.761-6.224c3.464-2.968,6.171-6.491,9.526-9.507c0.298-0.268,0.461-0.847,0.929-0.725
		c0.519,0.136,0.164,0.7,0.28,1.065c0.859,2.71-0.629,4.483-2.907,5.998c-3.387,2.254-6.125,5.157-9.293,7.633
		c-0.501,0.391-0.764,0.737-0.189,1.265c1.279,1.175,2.481,2.38,4.127,3.225c2.745,1.409,5.364,3.016,8.038,4.537
		C93.487,84.403,93.649,87.273,93.124,87.947z M92.329,82.583c-3.768-1.795-7.154-4.087-10.506-6.43
		c-0.689-0.482-0.245-0.659,0.188-0.97c3.542-2.543,6.821-5.348,10.063-8.189c0.386-0.338,0.839-0.684,1.298-0.489
		c0.255,0.108,0.357,0.688,0.363,1.058c0.033,2.108,0.016,4.217,0.016,6.325c0.102,0.002,0.204,0.003,0.305,0.005
		c-0.156,2.672-0.33,5.343-0.456,8.015C93.559,82.802,93.234,83.014,92.329,82.583z"/>
	<path class="st0" d="M63.955,27.221c-0.644-0.051-0.562-0.509-0.565-0.906c-0.002-0.286-0.017-0.722-0.321-0.719
		c-0.59,0.005-0.322,0.491-0.325,0.786c-0.006,0.552-0.026,1.044-0.875,1.028c-0.749-0.014-0.742-0.452-0.762-0.936
		c-0.01-0.243,0.175-0.671-0.262-0.681c-0.372-0.009-0.275,0.432-0.385,0.677c-0.152,0.338-0.257,1.311-0.495,0.889
		c-0.851-1.512-1.227-0.064-1.684,0.105c-1.4,0.517-1.54-1.517-1.646-1.145c-0.385,1.356-0.994,1.344-2.097,0.822
		c-0.611-0.289-1.866,0.736-1.895-0.752c-0.092,0.037-0.251,0.059-0.265,0.112c-0.438,1.715-1.121,1.147-1.886,0.182
		c-0.209-0.264-0.41-0.134-0.524,0.125c-0.489,1.118-0.893,0.635-1.314-0.047c-0.136-0.22-0.554-0.328-0.584-0.092
		c-0.124,0.973-1.512,0.717-1.536,0.936c-0.112,1.042,1.241,0.247,1.615,0.847c0.091,0.147,0.171,0.397,0.292,0.416
		c0.847,0.133,1.703,0.219,2.556,0.319c0.179-1.709,0.785-1.237,1.525-0.25c0.2,0.266,0.421,0.198,0.781,0.07
		c0.78-0.278,1.634-0.263,2.473-0.56c1.06-0.376,0.509,1.29,1.469,1.406l0,0c0.048,0.074,0.095,0.148,0.143,0.222
		c0.04-0.036,0.08-0.072,0.12-0.108c-0.083-0.043-0.165-0.085-0.248-0.128c0.283-0.438-0.574-1.243,0.487-1.4
		c1.046-0.155,0.719,0.706,0.938,1.163c0.093,0.195,0.179,0.483,0.515,0.35c0.113-0.045,0.207-0.271,0.193-0.404
		c-0.046-0.428-0.387-0.933,0.375-1.114c0.815-0.193,0.892,0.438,1.139,0.875c0.145,0.256,0.321,0.518,0.69,0.488
		c0.07-0.006,0.2-0.294,0.155-0.402c-0.211-0.503-0.502-1.047,0.372-1.21c0.881-0.165,0.729,0.59,0.961,1.006
		c0.106,0.19,0.264,0.415,0.461,0.49c0.288,0.11,0.253-0.155,0.241-0.307c-0.036-0.464-0.509-1.161,0.408-1.208
		c0.761-0.039,0.456,0.823,0.781,1.201c0.144,0.168,0.41,0.438,0.527,0.403c0.32-0.093,0.138-0.356,0.058-0.555
		c-0.195-0.481-0.546-1.077,0.326-1.224c0.622-0.105,1.577-0.585,1.763,0.587c0.022,0.14,0.201,0.349,0.336,0.368
		c0.407,0.058,0.283-0.277,0.294-0.45c0.028-0.443,0.139-0.845,0.727-0.794c0.633,0.054,0.466,0.573,0.547,0.943
		c0.058,0.265,0.085,0.663,0.477,0.612c0.431-0.056,0.206-0.45,0.213-0.698c0.012-0.42-0.325-0.965,0.493-1.062
		c0.559-0.066,1.155-0.195,1.464,0.457c0.09,0.19,0.292,0.337,0.443,0.503c0.082-0.115,0.237-0.232,0.235-0.345
		c-0.023-1.024,0.83-0.612,1.363-0.664c0.753-0.074,0.994,0.372,1.035,0.952c0.025,0.352,0.164,0.906,0.464,0.815
		c0.593-0.18-0.066-0.477-0.124-0.732c-0.18-0.8,0.102-1.194,1.063-1.136c0.69,0.042,1.412,0.191,2.058-0.149
		c1.317-0.695,2.182-0.19,3.075,0.736c2.043,2.119,2.065,2.085,3.162-0.495c0.246-0.579,0.268-1.063-0.482-1.2
		c-1.555-0.285-3.038-1.258-4.732-0.417c-1.024,0.508-1.522,0.141-1.624-0.857c-0.031-0.301-0.06-0.844-0.48-0.761
		c-0.349,0.069-0.225,0.616-0.13,0.929c0.236,0.778,0.192,1.327-0.898,1.478c-1.19,0.165-1.44-0.426-1.47-1.285
		c-0.006-0.161-0.075-0.32-0.115-0.48c-0.06,0.172-0.145,0.34-0.174,0.516c-0.083,0.516,0.264,1.236-0.754,1.299
		c-0.703,0.044-1.45,0.126-1.622-0.767c-0.043-0.223-0.116-0.5-0.427-0.477c-0.361,0.026-0.182,0.337-0.241,0.527
		c-0.405,1.315-1.256,0.967-2.041,0.371c-0.347-0.263-0.545-1.451-0.662,0.05c-0.028,0.358-0.274,0.542-0.591,0.55
		c-0.334,0.008-0.566-0.206-0.604-0.546c-0.029-0.258,0.122-0.602-0.259-0.703c-0.06-0.016-0.38,0.438-0.397,0.684
		c-0.039,0.591-0.351,0.808-0.968,0.783c-0.499-0.02-1.021,0.093-1.025-0.648c-0.003-0.657-0.333-0.477-0.55-0.066
		C64.548,26.76,64.595,27.272,63.955,27.221z M82.339,26.442c0.745,0.169,1.641,0.139,1.982,0.973c-0.217,0.366-0.194,1-0.67,0.943
		c-0.927-0.11-1.407-0.875-1.851-1.525C81.558,26.477,82.05,26.376,82.339,26.442z"/>
	<path class="st0" d="M30.779,110.046c0.806,1.288,1.744,2.477,3.158,3.292c0.19,0.109,0.446,0.125,0.672,0.184
		c-0.026-0.145-0.001-0.383-0.087-0.422C32.959,112.394,32.47,110.615,30.779,110.046z"/>
	<path class="st0" d="M30.736,109.94c-0.012,0.024-0.022,0.046-0.036,0.071l-0.008,0.004c0.03,0.009,0.057,0.022,0.087,0.032
		c-0.011-0.018-0.024-0.036-0.035-0.055C30.742,109.974,30.739,109.957,30.736,109.94z"/>
	<path class="st0" d="M9.276,45.314c-0.001,0.043-0.001,0.087-0.002,0.13c0.018-0.022,0.036-0.044,0.054-0.066
		C9.311,45.357,9.294,45.335,9.276,45.314z"/>
	<path class="st0" d="M9.361,45.34c-0.011,0.013-0.021,0.026-0.032,0.039c0.009,0.011,0.018,0.022,0.027,0.032
		C9.355,45.411,9.363,45.338,9.361,45.34z"/>
</g>
<g>
</g>
<g>
</g>
<g>
</g>
<g>
</g>
<g>
</g>
<g>
</g>
</svg>
