<?xml version="1.0" encoding="utf-8"?>
<!-- Generator: Adobe Illustrator 23.1.1, SVG Export Plug-In . SVG Version: 6.00 Build 0)  -->
<svg version="1.1" id="レイヤー_1" xmlns="http://www.w3.org/2000/svg" xmlns:xlink="http://www.w3.org/1999/xlink" x="0px"
	 y="0px" width="243px" height="39.1px" viewBox="0 0 243 39.1" style="enable-background:new 0 0 243 39.1;" xml:space="preserve">
<path d="M9.931,27.621c1.464,0,1.626-0.244,1.626-1.979V11.361c0-1.789-0.162-1.951-0.786-1.951c-1.869,0-2.06,3.441-2.249,6.855
	H8.061L8.169,9.03h9.188l0.081,7.235h-0.488c-0.135-3.469-0.352-6.855-2.222-6.855c-0.705,0-0.786,0.217-0.786,1.896v14.391
	c0,1.652,0.136,1.924,1.599,1.924v0.406H9.931V27.621z"/>
<path d="M18.303,18.461c0-5.42,1.762-9.81,4.878-9.81c3.09,0,4.933,4.472,4.933,9.918c0,5.339-1.843,9.811-4.933,9.811
	C20.011,28.38,18.303,23.936,18.303,18.461z M25.484,18.488c0-5.284-0.136-9.403-2.33-9.403c-2.223,0-2.25,4.119-2.25,9.376
	c0,5.286,0.027,9.458,2.25,9.458C25.376,27.919,25.484,23.746,25.484,18.488z"/>
<path d="M29.196,18.433c0-6.26,2.141-9.782,5.148-9.782c1.084,0,1.653,0.46,2.168,1.029c0.217,0.244,0.407,0.542,0.542,0.542
	c0.19,0,0.271-0.352,0.434-1.246h0.434c0,2.195,0.027,4.797,0.082,6.721h-0.488c-0.406-3.36-1.084-6.612-3.116-6.612
	c-2.331,0-2.602,4.715-2.602,9.403c0,5.176,0.298,9.431,2.357,9.431c1.599,0,1.681-1.734,1.681-4.688c0-0.298,0-2.303,0-2.846
	c0-1.274-0.217-1.572-1.247-1.572v-0.38h4.716v0.38c-1.003,0-1.139,0.244-1.139,1.681v7.588H37.76
	c-0.217-0.813-0.488-1.897-0.65-2.412c-0.434,1.273-1.247,2.71-2.981,2.71C31.12,28.38,29.196,24.342,29.196,18.433z"/>
<path d="M41.01,21.252v-9.918c0-1.653-0.271-1.924-1.328-1.924V9.03h5.122v0.38c-1.301,0-1.409,0.298-1.409,1.896v10.245
	c0,3.577,0.189,5.771,2.412,5.771c2.33,0,2.71-3.035,2.71-6.477v-7.967c0-3.171-0.108-3.469-1.545-3.469V9.03h3.496v0.38
	c-1.22,0-1.382,0.298-1.382,3.469v8.645c0,4.525-1.058,6.856-3.876,6.856C42.202,28.38,41.01,26.238,41.01,21.252z"/>
<path d="M57.16,23.122c-0.163-3.442-0.325-4.906-1.626-4.906h-0.841v7.535c0,1.653,0.163,1.87,1.383,1.87v0.406h-5.149v-0.406
	c1.165,0,1.382-0.217,1.382-2.006v-14.39c0-1.653-0.217-1.815-1.382-1.815V9.03h5.366c1.707,0,3.794,0.705,3.794,4.336
	c0,3.144-1.708,4.391-3.279,4.634c1.626,0.407,2.493,1.925,2.764,4.77c0.244,2.954,0.217,3.849,0.813,3.849
	c0.623,0,0.65-1.951,0.65-2.872h0.461v0.46c0,2.602-0.542,4.065-1.925,4.065C58.027,28.272,57.295,26.699,57.16,23.122z
	 M55.859,17.757c1.544,0,1.815-1.437,1.815-4.2c0-2.629-0.353-4.146-1.681-4.146c-0.026,0-0.352,0-0.379,0
	c-0.813,0-0.922,0.379-0.922,2.032v6.314H55.859z"/>
<path d="M61.413,27.621c1.084,0,1.246-0.353,1.979-3.632c0.731-3.252,2.466-11.111,3.36-15.203c0.108,0,1.002,0,1.002,0
	c0.949,4.39,2.629,11.87,3.686,16.694c0.434,1.842,0.597,2.141,1.437,2.141v0.406h-5.148v-0.406c1.301,0,1.518-0.299,1.192-2.25
	c-0.217-1.084-0.569-2.818-0.705-3.495h-3.767c-0.108,0.677-0.38,1.87-0.542,2.764c-0.461,2.493-0.353,2.981,1.22,2.981v0.406
	h-3.713V27.621z M68.106,21.334c-0.542-2.684-1.111-5.367-1.762-8.375c-0.623,3.008-1.165,5.447-1.761,8.375H68.106z"/>
<path d="M77.888,27.621c1.246,0,1.409-0.325,1.409-2.493V11.496c0-1.869-0.217-2.086-1.382-2.086V9.03h3.495
	c1.816,4.878,3.198,8.591,4.824,12.955V11.822c0-2.195-0.244-2.412-1.518-2.412V9.03h3.496v0.38c-1.166,0-1.409,0.244-1.409,2.412
	v16.395h-0.759c-2.006-5.582-4.363-11.842-6.179-16.585c0,0.461,0,13.523,0,13.523c0,2.168,0.081,2.467,1.409,2.467v0.406h-3.388
	V27.621z"/>
<path d="M88.021,27.621c1.084,0,1.246-0.353,1.979-3.632c0.731-3.252,2.466-11.111,3.36-15.203c0.108,0,1.002,0,1.002,0
	c0.949,4.39,2.629,11.87,3.686,16.694c0.434,1.842,0.597,2.141,1.437,2.141v0.406h-5.148v-0.406c1.301,0,1.518-0.299,1.192-2.25
	c-0.217-1.084-0.569-2.818-0.705-3.495h-3.767c-0.108,0.677-0.38,1.87-0.542,2.764c-0.461,2.493-0.353,2.981,1.22,2.981v0.406
	h-3.713V27.621z M94.715,21.334c-0.542-2.684-1.111-5.367-1.762-8.375c-0.623,3.008-1.165,5.447-1.761,8.375H94.715z"/>
<path d="M100.784,27.621c1.464,0,1.626-0.244,1.626-1.979V11.361c0-1.789-0.162-1.951-0.786-1.951c-1.869,0-2.06,3.441-2.249,6.855
	h-0.461l0.108-7.235h9.188l0.081,7.235h-0.488c-0.135-3.469-0.352-6.855-2.222-6.855c-0.705,0-0.786,0.217-0.786,1.896v14.391
	c0,1.652,0.136,1.924,1.599,1.924v0.406h-5.609V27.621z"/>
<path d="M110.322,21.252v-9.918c0-1.653-0.271-1.924-1.328-1.924V9.03h5.122v0.38c-1.301,0-1.409,0.298-1.409,1.896v10.245
	c0,3.577,0.189,5.771,2.411,5.771c2.331,0,2.71-3.035,2.71-6.477v-7.967c0-3.171-0.108-3.469-1.544-3.469V9.03h3.495v0.38
	c-1.219,0-1.382,0.298-1.382,3.469v8.645c0,4.525-1.057,6.856-3.875,6.856C111.515,28.38,110.322,26.238,110.322,21.252z"/>
<path d="M126.472,23.122c-0.162-3.442-0.325-4.906-1.626-4.906h-0.84v7.535c0,1.653,0.162,1.87,1.382,1.87v0.406h-5.148v-0.406
	c1.165,0,1.382-0.217,1.382-2.006v-14.39c0-1.653-0.217-1.815-1.382-1.815V9.03h5.365c1.707,0,3.794,0.705,3.794,4.336
	c0,3.144-1.707,4.391-3.279,4.634c1.626,0.407,2.493,1.925,2.765,4.77c0.244,2.954,0.217,3.849,0.812,3.849
	c0.624,0,0.65-1.951,0.65-2.872h0.461v0.46c0,2.602-0.542,4.065-1.924,4.065C127.339,28.272,126.607,26.699,126.472,23.122z
	 M125.171,17.757c1.545,0,1.815-1.437,1.815-4.2c0-2.629-0.352-4.146-1.68-4.146c-0.027,0-0.353,0-0.38,0
	c-0.812,0-0.921,0.379-0.921,2.032v6.314H125.171z"/>
<path d="M130.915,27.621c1.273,0,1.382-0.244,1.382-2.033V11.144c0-1.518-0.163-1.734-1.382-1.734V9.03c0,0,8.563,0,8.645,0
	c0.027,1.897,0.108,3.876,0.136,5.772h-0.516c0-0.055-0.026-0.379-0.026-0.569c-0.299-3.171-0.895-4.823-3.035-4.823
	c-0.082,0-0.19,0-0.217,0c-1.22,0-1.22,0.189-1.22,2.303v5.989h0.704c1.518,0,1.87-0.65,1.897-3.929h0.542v8.482h-0.542
	c-0.027-3.252-0.38-4.065-1.843-4.065h-0.759v7.453c0,1.707,0.054,1.979,1.084,1.979c0.108,0,0.271,0,0.353,0
	c2.33,0,3.062-1.6,3.306-5.908h0.542c0,0-0.081,4.661-0.081,6.314h-8.97V27.621z"/>
<path d="M140.805,27.621c1.192,0,1.382-0.189,1.382-1.924V11.225c0-1.626-0.189-1.815-1.382-1.815V9.03h5.501
	c1.87,0,4.038,1.22,4.038,4.986c0,4.444-2.466,5.258-4.444,5.312c-0.596,0.027-1.138-0.027-1.328-0.108v6.478
	c0,1.734,0.19,1.924,1.572,1.924v0.406h-5.339V27.621z M145.737,18.894c1.463-0.081,2.222-1.518,2.222-4.851
	c0-2.818-0.244-4.634-2.06-4.634c-0.027,0-0.325,0-0.325,0c-0.948,0-1.003,0.325-1.003,2.276v7.1
	c0.19,0.081,0.516,0.108,0.813,0.108C145.493,18.894,145.655,18.894,145.737,18.894z"/>
<path d="M148.906,27.621c1.084,0,1.247-0.353,1.979-3.632c0.731-3.252,2.466-11.111,3.36-15.203c0.108,0,1.003,0,1.003,0
	c0.948,4.39,2.629,11.87,3.686,16.694c0.434,1.842,0.596,2.141,1.437,2.141v0.406h-5.149v-0.406c1.301,0,1.518-0.299,1.192-2.25
	c-0.217-1.084-0.569-2.818-0.704-3.495h-3.768c-0.108,0.677-0.379,1.87-0.542,2.764c-0.46,2.493-0.352,2.981,1.22,2.981v0.406
	h-3.713V27.621z M155.601,21.334c-0.542-2.684-1.111-5.367-1.762-8.375c-0.623,3.008-1.165,5.447-1.762,8.375H155.601z"/>
<path d="M167.035,23.122c-0.163-3.442-0.325-4.906-1.626-4.906h-0.841v7.535c0,1.653,0.163,1.87,1.383,1.87v0.406h-5.149v-0.406
	c1.165,0,1.382-0.217,1.382-2.006v-14.39c0-1.653-0.217-1.815-1.382-1.815V9.03h5.366c1.707,0,3.794,0.705,3.794,4.336
	c0,3.144-1.708,4.391-3.279,4.634c1.626,0.407,2.493,1.925,2.764,4.77c0.244,2.954,0.217,3.849,0.813,3.849
	c0.623,0,0.65-1.951,0.65-2.872h0.461v0.46c0,2.602-0.542,4.065-1.925,4.065C167.902,28.272,167.17,26.699,167.035,23.122z
	 M165.734,17.757c1.544,0,1.815-1.437,1.815-4.2c0-2.629-0.353-4.146-1.681-4.146c-0.026,0-0.352,0-0.379,0
	c-0.813,0-0.922,0.379-0.922,2.032v6.314H165.734z"/>
<path d="M171.479,27.621c1.273,0,1.382-0.136,1.382-1.897v-14.39c0-1.762-0.055-1.924-1.382-1.924V9.03h5.148v0.38
	c-1.354,0-1.382,0.189-1.382,2.276v7.1c1.003-1.896,2.087-3.848,3.171-5.962c0.515-1.002,0.976-1.924,0.976-2.466
	c0-0.813-0.299-0.948-1.409-0.948V9.03h3.983v0.38h-0.353c-0.731,0-1.003,0.487-2.683,3.522c-0.542,1.003-1.03,1.979-1.437,2.737
	c1.111,3.062,2.276,6.532,3.307,9.35c0.84,2.33,1.057,2.602,1.924,2.602v0.406h-4.986v-0.406c1.084,0,1.246-0.299,0.812-1.734
	c-0.785-2.385-1.734-5.176-2.574-7.507c-0.217,0.325-0.569,0.921-0.731,1.22v6.152c0,1.734,0.081,1.87,1.354,1.87v0.406h-5.121
	V27.621z"/>
<path d="M189.552,27.621c1.463,0,1.626-0.244,1.626-1.979V11.361c0-1.789-0.163-1.951-0.786-1.951c-1.87,0-2.06,3.441-2.249,6.855
	h-0.461l0.108-7.235h9.187l0.081,7.235h-0.487c-0.136-3.469-0.353-6.855-2.223-6.855c-0.704,0-0.785,0.217-0.785,1.896v14.391
	c0,1.652,0.135,1.924,1.599,1.924v0.406h-5.609V27.621z"/>
<path d="M197.734,27.621c1.301,0,1.49-0.217,1.49-1.897v-14.39c0-1.762-0.136-1.924-1.49-1.924V9.03h5.365v0.38
	c-1.409,0-1.49,0.217-1.49,1.843v14.58c0,1.626,0.189,1.789,1.49,1.789v0.406h-5.365V27.621z"/>
<path d="M203.668,27.621c1.273,0,1.382-0.189,1.382-2.574V11.578c0-1.951-0.054-2.168-1.354-2.168V9.03h3.902
	c0.162,0.976,2.574,12.846,2.71,13.713c0.189-0.922,2.574-12.955,2.71-13.713h3.956v0.38c-1.246,0-1.382,0.162-1.382,1.734v14.39
	c0,1.843,0.136,2.087,1.382,2.087v0.406h-5.148v-0.406c1.273,0,1.354-0.271,1.354-2.06V10.981
	c-0.135,0.705-3.197,16.125-3.387,17.155h-0.813c0,0-3.225-16.504-3.36-17.181v14.119c0,2.331,0.163,2.548,1.464,2.548v0.406h-3.415
	V27.621z"/>
<path d="M217.568,27.621c1.273,0,1.382-0.244,1.382-2.033V11.144c0-1.518-0.162-1.734-1.382-1.734V9.03c0,0,8.563,0,8.645,0
	c0.027,1.897,0.108,3.876,0.136,5.772h-0.515c0-0.055-0.027-0.379-0.027-0.569c-0.298-3.171-0.895-4.823-3.035-4.823
	c-0.081,0-0.189,0-0.217,0c-1.22,0-1.22,0.189-1.22,2.303v5.989h0.705c1.518,0,1.87-0.65,1.896-3.929h0.542v8.482h-0.542
	c-0.026-3.252-0.379-4.065-1.843-4.065h-0.759v7.453c0,1.707,0.055,1.979,1.084,1.979c0.108,0,0.271,0,0.353,0
	c2.331,0,3.062-1.6,3.307-5.908h0.542c0,0-0.082,4.661-0.082,6.314h-8.97V27.621z"/>
<path d="M230.006,27.269c-0.38-0.461-0.569-0.704-0.705-0.704c-0.353,0-0.515,0.812-0.569,1.463h-0.434v-7.75h0.434
	c0,0.081,0.055,0.515,0.055,0.568c0.542,4.228,1.518,7.073,3.604,7.073c1.463,0,2.303-1.49,2.303-3.767
	c0-2.385-1.246-3.388-3.008-4.526c-1.924-1.247-3.441-2.765-3.441-6.098c0.027-3.36,1.734-4.878,3.306-4.878
	c0.867,0,1.545,0.406,2.006,0.921c0.353,0.406,0.596,0.678,0.731,0.678c0.163,0,0.434-0.406,0.569-1.22h0.434v6.478h-0.406
	c0,0-0.055-0.434-0.082-0.516c-0.542-3.577-1.626-5.881-3.252-5.881c-1.219,0-2.113,1.193-2.113,3.226
	c0,2.385,1.301,3.225,2.954,4.255c1.951,1.246,3.604,2.872,3.604,6.288c0,3.658-1.788,5.501-3.604,5.501
	C231.279,28.38,230.493,27.838,230.006,27.269z"/>
</svg>
